{
.appVersion = "1342";
classes = (
{

glyphs = (
{
color = 0;
glyphname = .notdef;
lastChange = "2021-03-04 20:22:24 +0000";
layers = (
{
layerId = "3787E0F5-978F-4E40-B775-08CB0E3B1585";
paths = (
{
closed = 1;
nodes = (
"10 0 LINE",
"339 0 LINE",
"339 650 LINE",
"10 650 LINE"
);
},
{
closed = 1;
nodes = (
"265 584 LINE",
"172 374 LINE",
"79 584 LINE"
);
},
{
closed = 1;
nodes = (
"281 537 LINE",
"281 127 LINE",
"191 330 LINE"
);
},
{
closed = 1;
nodes = (
"64 129 LINE",
"64 534 LINE",
"153 330 LINE"
);
},
{
closed = 1;
nodes = (
"269 64 LINE",
"75 64 LINE",
"172 287 LINE"
);
}
);
width = 349;
}
);
note = .notdef;
},
{
glyphname = exclam;
lastChange = "2021-03-03 20:55:47 +0000";
layers = (
{
background = {
paths = (
{
closed = 1;
nodes = (
"394 652 OFFCURVE",
"395 655 OFFCURVE",
"395 657 CURVE SMOOTH",
"395 667 OFFCURVE",
"380 671 OFFCURVE",
"364 671 CURVE SMOOTH",
"341 671 OFFCURVE",
"315 664 OFFCURVE",
"314 655 CURVE",
"317 643 OFFCURVE",
"332 646 OFFCURVE",
"332 643 CURVE SMOOTH",
"332 633 OFFCURVE",
"288 552 OFFCURVE",
"279 529 CURVE SMOOTH",
"253 465 OFFCURVE",
"152 262 OFFCURVE",
"152 198 CURVE SMOOTH",
"152 186 OFFCURVE",
"154 179 OFFCURVE",
"164 179 CURVE SMOOTH",
"178 179 OFFCURVE",
"202 190 OFFCURVE",
"202 203 CURVE SMOOTH",
"202 210 OFFCURVE",
"195 212 OFFCURVE",
"195 222 CURVE SMOOTH",
"195 285 OFFCURVE",
"372 625 OFFCURVE",
"393 650 CURVE"
);
},
{
closed = 1;
nodes = (
"143 74 LINE SMOOTH",
"142 75 OFFCURVE",
"139 76 OFFCURVE",
"136 76 CURVE SMOOTH",
"118 76 OFFCURVE",
"76 51 OFFCURVE",
"76 24 CURVE SMOOTH",
"76 7 OFFCURVE",
"76 -17 OFFCURVE",
"98 -17 CURVE",
"132 -9 OFFCURVE",
"130 4 OFFCURVE",
"144 72 CURVE"
);
}
);
};
hints = (
{
place = "{77, 53}";
type = Stem;
}
);
layerId = "3787E0F5-978F-4E40-B775-08CB0E3B1585";
paths = (
{
closed = 1;
nodes = (
"394 652 OFFCURVE",
"395 655 OFFCURVE",
"395 657 CURVE SMOOTH",
"395 667 OFFCURVE",
"380 671 OFFCURVE",
"364 671 CURVE SMOOTH",
"341 671 OFFCURVE",
"315 664 OFFCURVE",
"314 655 CURVE",
"317 643 OFFCURVE",
"332 646 OFFCURVE",
"332 643 CURVE SMOOTH",
"332 633 OFFCURVE",
"288 552 OFFCURVE",
"279 529 CURVE SMOOTH",
"253 465 OFFCURVE",
"152 262 OFFCURVE",
"152 198 CURVE SMOOTH",
"152 186 OFFCURVE",
"154 179 OFFCURVE",
"164 179 CURVE SMOOTH",
"178 179 OFFCURVE",
"202 190 OFFCURVE",
"202 203 CURVE SMOOTH",
"202 210 OFFCURVE",
"195 212 OFFCURVE",
"195 222 CURVE SMOOTH",
"195 285 OFFCURVE",
"372 625 OFFCURVE",
"393 650 CURVE"
);
},
{
closed = 1;
nodes = (
"143 74 LINE SMOOTH",
"142 75 OFFCURVE",
"139 76 OFFCURVE",
"136 76 CURVE SMOOTH",
"118 76 OFFCURVE",
"76 51 OFFCURVE",
"76 24 CURVE SMOOTH",
"76 7 OFFCURVE",
"76 -17 OFFCURVE",
"98 -17 CURVE",
"132 -9 OFFCURVE",
"130 4 OFFCURVE",
"144 72 CURVE"
);
}
);
width = 202;
}
);
note = exclam;
unicode = 0021;
},
{
glyphname = quotedbl;
lastChange = "2021-03-03 20:55:47 +0000";
layers = (
{
background = {
paths = (
{
closed = 1;
nodes = (
"248 637 OFFCURVE",
"243 639 OFFCURVE",
"237 639 CURVE SMOOTH",
"219 639 OFFCURVE",
"194 616 OFFCURVE",
"194 616 CURVE",
"194 617 LINE",
"193 616 LINE SMOOTH",
"183 608 OFFCURVE",
"177 596 OFFCURVE",
"177 584 CURVE SMOOTH",
"177 576 OFFCURVE",
"180 568 OFFCURVE",
"186 562 CURVE SMOOTH",
"187 561 LINE SMOOTH",
"190 558 OFFCURVE",
"191 554 OFFCURVE",
"191 549 CURVE SMOOTH",
"191 514 OFFCURVE",
"122 433 OFFCURVE",
"90 401 CURVE",
"89 401 LINE",
"89 398 OFFCURVE",
"90 396 OFFCURVE",
"94 396 CURVE SMOOTH",
"117 396 OFFCURVE",
"212 460 OFFCURVE",
"249 572 CURVE",
"248 573 LINE",
"251 583 OFFCURVE",
"258 585 OFFCURVE",
"258 598 CURVE SMOOTH",
"258 605 OFFCURVE",
"256 615 OFFCURVE",
"251 631 CURVE"
);
},
{
closed = 1;
nodes = (
"378 645 OFFCURVE",
"373 647 OFFCURVE",
"367 647 CURVE SMOOTH",
"350 647 OFFCURVE",
"325 625 OFFCURVE",
"325 625 CURVE",
"323 624 LINE",
"313 616 OFFCURVE",
"308 604 OFFCURVE",
"308 592 CURVE SMOOTH",
"308 584 OFFCURVE",
"311 576 OFFCURVE",
"317 570 CURVE",
"317 569 LINE",
"320 566 OFFCURVE",
"321 562 OFFCURVE",
"321 557 CURVE SMOOTH",
"321 522 OFFCURVE",
"253 442 OFFCURVE",
"221 410 CURVE SMOOTH",
"220 409 LINE",
"220 408 LINE SMOOTH",
"220 405 OFFCURVE",
"221 404 OFFCURVE",
"224 404 CURVE SMOOTH",
"247 404 OFFCURVE",
"342 468 OFFCURVE",
"379 580 CURVE",
"379 581 LINE SMOOTH",
"381 591 OFFCURVE",
"388 593 OFFCURVE",
"388 606 CURVE SMOOTH",
"388 613 OFFCURVE",
"386 623 OFFCURVE",
"381 639 CURVE"
);
}
);
};
hints = (
{
horizontal = 1;
place = "{648, -20}";
target = down;
type = TopGhost;
}
);
layerId = "3787E0F5-978F-4E40-B775-08CB0E3B1585";
paths = (
{
closed = 1;
nodes = (
"248 637 OFFCURVE",
"243 639 OFFCURVE",
"237 639 CURVE SMOOTH",
"219 639 OFFCURVE",
"194 616 OFFCURVE",
"194 616 CURVE",
"194 617 LINE",
"193 616 LINE SMOOTH",
"183 608 OFFCURVE",
"177 596 OFFCURVE",
"177 584 CURVE SMOOTH",
"177 576 OFFCURVE",
"180 568 OFFCURVE",
"186 562 CURVE SMOOTH",
"187 561 LINE SMOOTH",
"190 558 OFFCURVE",
"191 554 OFFCURVE",
"191 549 CURVE SMOOTH",
"191 514 OFFCURVE",
"122 433 OFFCURVE",
"90 401 CURVE",
"89 401 LINE",
"89 398 OFFCURVE",
"90 396 OFFCURVE",
"94 396 CURVE SMOOTH",
"117 396 OFFCURVE",
"212 460 OFFCURVE",
"249 572 CURVE",
"248 573 LINE",
"251 583 OFFCURVE",
"258 585 OFFCURVE",
"258 598 CURVE SMOOTH",
"258 605 OFFCURVE",
"256 615 OFFCURVE",
"251 631 CURVE"
);
},
{
closed = 1;
nodes = (
"378 645 OFFCURVE",
"373 647 OFFCURVE",
"367 647 CURVE SMOOTH",
"350 647 OFFCURVE",
"325 625 OFFCURVE",
"325 625 CURVE",
"323 624 LINE",
"313 616 OFFCURVE",
"308 604 OFFCURVE",
"308 592 CURVE SMOOTH",
"308 584 OFFCURVE",
"311 576 OFFCURVE",
"317 570 CURVE",
"317 569 LINE",
"320 566 OFFCURVE",
"321 562 OFFCURVE",
"321 557 CURVE SMOOTH",
"321 522 OFFCURVE",
"253 442 OFFCURVE",
"221 410 CURVE SMOOTH",
"220 409 LINE",
"220 408 LINE SMOOTH",
"220 405 OFFCURVE",
"221 404 OFFCURVE",
"224 404 CURVE SMOOTH",
"247 404 OFFCURVE",
"342 468 OFFCURVE",
"379 580 CURVE",
"379 581 LINE SMOOTH",
"381 591 OFFCURVE",
"388 593 OFFCURVE",
"388 606 CURVE SMOOTH",
"388 613 OFFCURVE",
"386 623 OFFCURVE",
"381 639 CURVE"
);
}
);
width = 406;
}
);
note = quotedbl;
unicode = 0022;
},
{
color = 9;
glyphname = numbersign;
lastChange = "2021-03-03 20:55:47 +0000";
layers = (
{
background = {
paths = (
{
closed = 1;
nodes = (
"658 405 OFFCURVE",
"650 406 OFFCURVE",
"638 406 CURVE SMOOTH",
"590 406 OFFCURVE",
"539 403 OFFCURVE",
"491 403 CURVE",
"507 445 LINE SMOOTH",
"514 463 OFFCURVE",
"522 508 OFFCURVE",
"522 532 CURVE SMOOTH",
"522 544 OFFCURVE",
"519 550 OFFCURVE",
"514 550 CURVE",
"500 547 OFFCURVE",
"463 450 OFFCURVE",
"445 402 CURVE",
"390 402 OFFCURVE",
"336 403 OFFCURVE",
"282 403 CURVE",
"298 445 LINE SMOOTH",
"305 464 OFFCURVE",
"311 507 OFFCURVE",
"311 532 CURVE SMOOTH",
"311 539 OFFCURVE",
"310 551 OFFCURVE",
"304 551 CURVE SMOOTH",
"291 551 OFFCURVE",
"261 453 OFFCURVE",
"243 404 CURVE",
"198 405 OFFCURVE",
"153 405 OFFCURVE",
"109 405 CURVE",
"109 405 OFFCURVE",
"67 402 OFFCURVE",
"67 387 CURVE SMOOTH",
"67 372 OFFCURVE",
"103 365 OFFCURVE",
"146 366 CURVE SMOOTH",
"230 367 LINE",
"212 317 OFFCURVE",
"195 269 OFFCURVE",
"176 219 CURVE",
"35 219 LINE",
"35 219 OFFCURVE",
"-7 216 OFFCURVE",
"-7 200 CURVE SMOOTH",
"-7 185 OFFCURVE",
"29 180 OFFCURVE",
"72 180 CURVE SMOOTH",
"161 180 LINE",
"146 141 OFFCURVE",
"114 90 OFFCURVE",
"114 49 CURVE SMOOTH",
"114 40 OFFCURVE",
"116 32 OFFCURVE",
"125 32 CURVE SMOOTH",
"149 32 OFFCURVE",
"165 95 OFFCURVE",
"198 180 CURVE",
"365 181 LINE",
"351 143 OFFCURVE",
"323 92 OFFCURVE",
"323 50 CURVE SMOOTH",
"323 40 OFFCURVE",
"325 32 OFFCURVE",
"334 32 CURVE SMOOTH",
"358 32 OFFCURVE",
"375 95 OFFCURVE",
"407 181 CURVE",
"484 182 LINE SMOOTH",
"511 182 OFFCURVE",
"587 196 OFFCURVE",
"587 211 CURVE SMOOTH",
"587 217 OFFCURVE",
"574 220 OFFCURVE",
"544 220 CURVE SMOOTH",
"422 220 LINE",
"440 270 OFFCURVE",
"461 325 OFFCURVE",
"477 368 CURVE",
"558 368 LINE SMOOTH",
"585 368 OFFCURVE",
"661 386 OFFCURVE",
"661 399 CURVE SMOOTH",
"661 400 OFFCURVE",
"661 401 OFFCURVE",
"660 402 CURVE SMOOTH"
);
},
{
closed = 1;
nodes = (
"431 368 LINE",
"413 318 OFFCURVE",
"396 269 OFFCURVE",
"379 219 CURVE",
"213 219 LINE",
"231 269 OFFCURVE",
"252 324 OFFCURVE",
"268 367 CURVE"
);
}
);
};
hints = (
{
horizontal = 1;
place = "{182, 38}";
type = Stem;
},
{
horizontal = 1;
place = "{367, 37}";
type = Stem;
}
);
layerId = "3787E0F5-978F-4E40-B775-08CB0E3B1585";
paths = (
{
closed = 1;
nodes = (
"658 405 OFFCURVE",
"650 406 OFFCURVE",
"638 406 CURVE SMOOTH",
"590 406 OFFCURVE",
"539 403 OFFCURVE",
"491 403 CURVE",
"507 445 LINE SMOOTH",
"514 463 OFFCURVE",
"522 508 OFFCURVE",
"522 532 CURVE SMOOTH",
"522 544 OFFCURVE",
"519 550 OFFCURVE",
"514 550 CURVE",
"500 547 OFFCURVE",
"463 450 OFFCURVE",
"445 402 CURVE",
"390 402 OFFCURVE",
"336 403 OFFCURVE",
"282 403 CURVE",
"298 445 LINE SMOOTH",
"305 464 OFFCURVE",
"311 507 OFFCURVE",
"311 532 CURVE SMOOTH",
"311 539 OFFCURVE",
"310 551 OFFCURVE",
"304 551 CURVE SMOOTH",
"291 551 OFFCURVE",
"261 453 OFFCURVE",
"243 404 CURVE",
"198 405 OFFCURVE",
"153 405 OFFCURVE",
"109 405 CURVE",
"109 405 OFFCURVE",
"67 402 OFFCURVE",
"67 387 CURVE SMOOTH",
"67 372 OFFCURVE",
"103 365 OFFCURVE",
"146 366 CURVE SMOOTH",
"230 367 LINE",
"212 317 OFFCURVE",
"195 269 OFFCURVE",
"176 219 CURVE",
"35 219 LINE",
"35 219 OFFCURVE",
"-7 216 OFFCURVE",
"-7 200 CURVE SMOOTH",
"-7 185 OFFCURVE",
"29 180 OFFCURVE",
"72 180 CURVE SMOOTH",
"161 180 LINE",
"146 141 OFFCURVE",
"114 90 OFFCURVE",
"114 49 CURVE SMOOTH",
"114 40 OFFCURVE",
"116 32 OFFCURVE",
"125 32 CURVE SMOOTH",
"149 32 OFFCURVE",
"165 95 OFFCURVE",
"198 180 CURVE",
"365 181 LINE",
"351 143 OFFCURVE",
"323 92 OFFCURVE",
"323 50 CURVE SMOOTH",
"323 40 OFFCURVE",
"325 32 OFFCURVE",
"334 32 CURVE SMOOTH",
"358 32 OFFCURVE",
"375 95 OFFCURVE",
"407 181 CURVE",
"484 182 LINE SMOOTH",
"511 182 OFFCURVE",
"587 196 OFFCURVE",
"587 211 CURVE SMOOTH",
"587 217 OFFCURVE",
"574 220 OFFCURVE",
"544 220 CURVE SMOOTH",
"422 220 LINE",
"440 270 OFFCURVE",
"461 325 OFFCURVE",
"477 368 CURVE",
"558 368 LINE SMOOTH",
"585 368 OFFCURVE",
"661 386 OFFCURVE",
"661 399 CURVE SMOOTH",
"661 400 OFFCURVE",
"661 401 OFFCURVE",
"660 402 CURVE SMOOTH"
);
},
{
closed = 1;
nodes = (
"431 368 LINE",
"413 318 OFFCURVE",
"396 269 OFFCURVE",
"379 219 CURVE",
"213 219 LINE",
"231 269 OFFCURVE",
"252 324 OFFCURVE",
"268 367 CURVE"
);
}
);
width = 672;
}
);
note = numbersign;
unicode = 0023;
},
{
glyphname = dollar;
lastChange = "2021-03-03 20:55:47 +0000";
layers = (
{
background = {
paths = (
{
closed = 1;
nodes = (
"397 636 OFFCURVE",
"395 637 OFFCURVE",
"393 637 CURVE SMOOTH",
"378 637 OFFCURVE",
"370 619 OFFCURVE",
"333 522 CURVE",
"220 509 OFFCURVE",
"114 442 OFFCURVE",
"114 359 CURVE SMOOTH",
"114 294 OFFCURVE",
"174 271 OFFCURVE",
"233 249 CURVE",
"202 167 OFFCURVE",
"173 86 OFFCURVE",
"152 16 CURVE",
"114 16 OFFCURVE",
"90 22 OFFCURVE",
"77 49 CURVE SMOOTH",
"71 62 OFFCURVE",
"73 81 OFFCURVE",
"69 81 CURVE SMOOTH",
"37 81 OFFCURVE",
"41 39 OFFCURVE",
"41 39 CURVE",
"41 17 OFFCURVE",
"55 -7 OFFCURVE",
"117 -8 CURVE SMOOTH",
"126 -8 OFFCURVE",
"136 -8 OFFCURVE",
"145 -7 CURVE",
"130 -60 OFFCURVE",
"120 -106 OFFCURVE",
"120 -140 CURVE SMOOTH",
"120 -165 OFFCURVE",
"125 -187 OFFCURVE",
"139 -187 CURVE SMOOTH",
"138 -187 OFFCURVE",
"163 -183 OFFCURVE",
"163 -163 CURVE SMOOTH",
"163 -162 OFFCURVE",
"146 -159 OFFCURVE",
"146 -131 CURVE SMOOTH",
"146 -107 OFFCURVE",
"157 -63 OFFCURVE",
"174 -4 CURVE",
"292 14 OFFCURVE",
"390 101 OFFCURVE",
"390 176 CURVE SMOOTH",
"390 230 OFFCURVE",
"328 250 OFFCURVE",
"268 273 CURVE",
"296 350 OFFCURVE",
"326 428 OFFCURVE",
"352 495 CURVE",
"387 494 OFFCURVE",
"417 482 OFFCURVE",
"417 444 CURVE SMOOTH",
"417 432 OFFCURVE",
"413 420 OFFCURVE",
"413 414 CURVE SMOOTH",
"413 410 OFFCURVE",
"415 409 OFFCURVE",
"418 409 CURVE SMOOTH",
"442 409 OFFCURVE",
"446 453 OFFCURVE",
"446 457 CURVE SMOOTH",
"446 490 OFFCURVE",
"434 524 OFFCURVE",
"373 524 CURVE SMOOTH",
"364 524 LINE",
"378 559 OFFCURVE",
"403 609 OFFCURVE",
"403 625 CURVE SMOOTH",
"403 631 OFFCURVE",
"400 634 OFFCURVE",
"398 636 CURVE"
);
},
{
closed = 1;
nodes = (
"322 67 OFFCURVE",
"246 23 OFFCURVE",
"180 17 CURVE",
"200 82 OFFCURVE",
"227 160 OFFCURVE",
"256 240 CURVE",
"303 222 OFFCURVE",
"345 201 OFFCURVE",
"345 155 CURVE SMOOTH",
"345 146 OFFCURVE",
"344 135 OFFCURVE",
"340 124 CURVE SMOOTH"
);
},
{
closed = 1;
nodes = (
"153 445 OFFCURVE",
"256 488 OFFCURVE",
"323 494 CURVE",
"250 295 LINE SMOOTH",
"248 290 OFFCURVE",
"246 286 OFFCURVE",
"245 282 CURVE",
"196 301 OFFCURVE",
"153 326 OFFCURVE",
"153 375 CURVE SMOOTH"
);
}
);
};
hints = (
{
horizontal = 1;
place = "{591, 28}";
type = Stem;
},
{
place = "{27, 27}";
type = Stem;
}
);
layerId = "3787E0F5-978F-4E40-B775-08CB0E3B1585";
paths = (
{
closed = 1;
nodes = (
"397 636 OFFCURVE",
"395 637 OFFCURVE",
"393 637 CURVE SMOOTH",
"378 637 OFFCURVE",
"370 619 OFFCURVE",
"333 522 CURVE",
"220 509 OFFCURVE",
"114 442 OFFCURVE",
"114 359 CURVE SMOOTH",
"114 294 OFFCURVE",
"174 271 OFFCURVE",
"233 249 CURVE",
"202 167 OFFCURVE",
"173 86 OFFCURVE",
"152 16 CURVE",
"114 16 OFFCURVE",
"90 22 OFFCURVE",
"77 49 CURVE SMOOTH",
"71 62 OFFCURVE",
"73 81 OFFCURVE",
"69 81 CURVE SMOOTH",
"37 81 OFFCURVE",
"41 39 OFFCURVE",
"41 39 CURVE",
"41 17 OFFCURVE",
"55 -7 OFFCURVE",
"117 -8 CURVE SMOOTH",
"126 -8 OFFCURVE",
"136 -8 OFFCURVE",
"145 -7 CURVE",
"130 -60 OFFCURVE",
"120 -106 OFFCURVE",
"120 -140 CURVE SMOOTH",
"120 -165 OFFCURVE",
"125 -187 OFFCURVE",
"139 -187 CURVE SMOOTH",
"138 -187 OFFCURVE",
"163 -183 OFFCURVE",
"163 -163 CURVE SMOOTH",
"163 -162 OFFCURVE",
"146 -159 OFFCURVE",
"146 -131 CURVE SMOOTH",
"146 -107 OFFCURVE",
"157 -63 OFFCURVE",
"174 -4 CURVE",
"292 14 OFFCURVE",
"390 101 OFFCURVE",
"390 176 CURVE SMOOTH",
"390 230 OFFCURVE",
"328 250 OFFCURVE",
"268 273 CURVE",
"296 350 OFFCURVE",
"326 428 OFFCURVE",
"352 495 CURVE",
"387 494 OFFCURVE",
"417 482 OFFCURVE",
"417 444 CURVE SMOOTH",
"417 432 OFFCURVE",
"413 420 OFFCURVE",
"413 414 CURVE SMOOTH",
"413 410 OFFCURVE",
"415 409 OFFCURVE",
"418 409 CURVE SMOOTH",
"442 409 OFFCURVE",
"446 453 OFFCURVE",
"446 457 CURVE SMOOTH",
"446 490 OFFCURVE",
"434 524 OFFCURVE",
"373 524 CURVE SMOOTH",
"364 524 LINE",
"378 559 OFFCURVE",
"403 609 OFFCURVE",
"403 625 CURVE SMOOTH",
"403 631 OFFCURVE",
"400 634 OFFCURVE",
"398 636 CURVE"
);
},
{
closed = 1;
nodes = (
"322 67 OFFCURVE",
"246 23 OFFCURVE",
"180 17 CURVE",
"200 82 OFFCURVE",
"227 160 OFFCURVE",
"256 240 CURVE",
"303 222 OFFCURVE",
"345 201 OFFCURVE",
"345 155 CURVE SMOOTH",
"345 146 OFFCURVE",
"344 135 OFFCURVE",
"340 124 CURVE SMOOTH"
);
},
{
closed = 1;
nodes = (
"153 445 OFFCURVE",
"256 488 OFFCURVE",
"323 494 CURVE",
"250 295 LINE SMOOTH",
"248 290 OFFCURVE",
"246 286 OFFCURVE",
"245 282 CURVE",
"196 301 OFFCURVE",
"153 326 OFFCURVE",
"153 375 CURVE SMOOTH"
);
}
);
width = 572;
}
);
note = dollar;
unicode = 0024;
},
{
glyphname = percent;
lastChange = "2021-03-03 20:55:47 +0000";
layers = (
{
background = {
paths = (
{
closed = 1;
nodes = (
"564 599 OFFCURVE",
"556 601 OFFCURVE",
"553 601 CURVE SMOOTH",
"544 601 OFFCURVE",
"400 534 OFFCURVE",
"323 534 CURVE SMOOTH",
"319 534 OFFCURVE",
"316 535 OFFCURVE",
"315 536 CURVE",
"317 546 OFFCURVE",
"319 556 OFFCURVE",
"319 565 CURVE SMOOTH",
"319 591 OFFCURVE",
"308 612 OFFCURVE",
"275 612 CURVE SMOOTH",
"213 612 OFFCURVE",
"81 443 OFFCURVE",
"81 377 CURVE SMOOTH",
"81 359 OFFCURVE",
"93 318 OFFCURVE",
"126 318 CURVE SMOOTH",
"139 318 LINE SMOOTH",
"205 318 OFFCURVE",
"311 462 OFFCURVE",
"311 502 CURVE SMOOTH",
"311 504 OFFCURVE",
"310 506 OFFCURVE",
"310 507 CURVE",
"363 508 OFFCURVE",
"463 540 OFFCURVE",
"515 565 CURVE",
"414 451 OFFCURVE",
"148 95 OFFCURVE",
"117 10 CURVE SMOOTH",
"112 -3 OFFCURVE",
"98 -46 OFFCURVE",
"98 -74 CURVE SMOOTH",
"98 -88 OFFCURVE",
"102 -98 OFFCURVE",
"113 -98 CURVE SMOOTH",
"117 -98 OFFCURVE",
"133 -92 OFFCURVE",
"133 -85 CURVE SMOOTH",
"133 -82 OFFCURVE",
"122 -76 OFFCURVE",
"122 -61 CURVE SMOOTH",
"122 10 OFFCURVE",
"420 401 OFFCURVE",
"565 569 CURVE SMOOTH",
"571 575 OFFCURVE",
"573 581 OFFCURVE",
"573 585 CURVE SMOOTH",
"573 589 OFFCURVE",
"571 592 OFFCURVE",
"569 594 CURVE SMOOTH"
);
},
{
closed = 1;
nodes = (
"486 146 OFFCURVE",
"487 145 OFFCURVE",
"485 148 CURVE",
"487 158 OFFCURVE",
"489 168 OFFCURVE",
"489 178 CURVE SMOOTH",
"489 203 OFFCURVE",
"478 224 OFFCURVE",
"445 224 CURVE SMOOTH",
"383 224 OFFCURVE",
"251 55 OFFCURVE",
"251 -11 CURVE SMOOTH",
"251 -29 OFFCURVE",
"263 -70 OFFCURVE",
"296 -70 CURVE SMOOTH",
"309 -70 LINE SMOOTH",
"375 -70 OFFCURVE",
"481 75 OFFCURVE",
"481 115 CURVE SMOOTH",
"481 117 OFFCURVE",
"480 119 OFFCURVE",
"480 120 CURVE",
"494 125 OFFCURVE",
"499 133 OFFCURVE",
"499 138 CURVE SMOOTH",
"499 142 OFFCURVE",
"497 144 OFFCURVE",
"493 145 CURVE SMOOTH"
);
},
{
closed = 1;
nodes = (
"290 469 OFFCURVE",
"192 343 OFFCURVE",
"141 343 CURVE SMOOTH",
"123 343 OFFCURVE",
"121 358 OFFCURVE",
"121 371 CURVE SMOOTH",
"121 420 OFFCURVE",
"218 544 OFFCURVE",
"256 544 CURVE",
"256 544 OFFCURVE",
"275 513 OFFCURVE",
"290 505 CURVE"
);
},
{
closed = 1;
nodes = (
"460 82 OFFCURVE",
"362 -44 OFFCURVE",
"311 -44 CURVE SMOOTH",
"293 -44 OFFCURVE",
"291 -30 OFFCURVE",
"291 -17 CURVE SMOOTH",
"291 33 OFFCURVE",
"388 156 OFFCURVE",
"426 156 CURVE",
"426 156 OFFCURVE",
"445 126 OFFCURVE",
"460 117 CURVE"
);
}
);
};
hints = (
{
horizontal = 1;
place = "{-70, 26}";
type = Stem;
},
{
horizontal = 1;
place = "{156, 68}";
type = Stem;
},
{
horizontal = 1;
place = "{317, 26}";
type = Stem;
},
{
horizontal = 1;
place = "{544, 68}";
type = Stem;
},
{
place = "{81, 40}";
type = Stem;
},
{
place = "{251, 40}";
type = Stem;
}
);
layerId = "3787E0F5-978F-4E40-B775-08CB0E3B1585";
paths = (
{
closed = 1;
nodes = (
"564 599 OFFCURVE",
"556 601 OFFCURVE",
"553 601 CURVE SMOOTH",
"544 601 OFFCURVE",
"400 534 OFFCURVE",
"323 534 CURVE SMOOTH",
"319 534 OFFCURVE",
"316 535 OFFCURVE",
"315 536 CURVE",
"317 546 OFFCURVE",
"319 556 OFFCURVE",
"319 565 CURVE SMOOTH",
"319 591 OFFCURVE",
"308 612 OFFCURVE",
"275 612 CURVE SMOOTH",
"213 612 OFFCURVE",
"81 443 OFFCURVE",
"81 377 CURVE SMOOTH",
"81 359 OFFCURVE",
"93 318 OFFCURVE",
"126 318 CURVE SMOOTH",
"139 318 LINE SMOOTH",
"205 318 OFFCURVE",
"311 462 OFFCURVE",
"311 502 CURVE SMOOTH",
"311 504 OFFCURVE",
"310 506 OFFCURVE",
"310 507 CURVE",
"363 508 OFFCURVE",
"463 540 OFFCURVE",
"515 565 CURVE",
"414 451 OFFCURVE",
"148 95 OFFCURVE",
"117 10 CURVE SMOOTH",
"112 -3 OFFCURVE",
"98 -46 OFFCURVE",
"98 -74 CURVE SMOOTH",
"98 -88 OFFCURVE",
"102 -98 OFFCURVE",
"113 -98 CURVE SMOOTH",
"117 -98 OFFCURVE",
"133 -92 OFFCURVE",
"133 -85 CURVE SMOOTH",
"133 -82 OFFCURVE",
"122 -76 OFFCURVE",
"122 -61 CURVE SMOOTH",
"122 10 OFFCURVE",
"420 401 OFFCURVE",
"565 569 CURVE SMOOTH",
"571 575 OFFCURVE",
"573 581 OFFCURVE",
"573 585 CURVE SMOOTH",
"573 589 OFFCURVE",
"571 592 OFFCURVE",
"569 594 CURVE SMOOTH"
);
},
{
closed = 1;
nodes = (
"486 146 OFFCURVE",
"487 145 OFFCURVE",
"485 148 CURVE",
"487 158 OFFCURVE",
"489 168 OFFCURVE",
"489 178 CURVE SMOOTH",
"489 203 OFFCURVE",
"478 224 OFFCURVE",
"445 224 CURVE SMOOTH",
"383 224 OFFCURVE",
"251 55 OFFCURVE",
"251 -11 CURVE SMOOTH",
"251 -29 OFFCURVE",
"263 -70 OFFCURVE",
"296 -70 CURVE SMOOTH",
"309 -70 LINE SMOOTH",
"375 -70 OFFCURVE",
"481 75 OFFCURVE",
"481 115 CURVE SMOOTH",
"481 117 OFFCURVE",
"480 119 OFFCURVE",
"480 120 CURVE",
"494 125 OFFCURVE",
"499 133 OFFCURVE",
"499 138 CURVE SMOOTH",
"499 142 OFFCURVE",
"497 144 OFFCURVE",
"493 145 CURVE SMOOTH"
);
},
{
closed = 1;
nodes = (
"290 469 OFFCURVE",
"192 343 OFFCURVE",
"141 343 CURVE SMOOTH",
"123 343 OFFCURVE",
"121 358 OFFCURVE",
"121 371 CURVE SMOOTH",
"121 420 OFFCURVE",
"218 544 OFFCURVE",
"256 544 CURVE",
"256 544 OFFCURVE",
"275 513 OFFCURVE",
"290 505 CURVE"
);
},
{
closed = 1;
nodes = (
"460 82 OFFCURVE",
"362 -44 OFFCURVE",
"311 -44 CURVE SMOOTH",
"293 -44 OFFCURVE",
"291 -30 OFFCURVE",
"291 -17 CURVE SMOOTH",
"291 33 OFFCURVE",
"388 156 OFFCURVE",
"426 156 CURVE",
"426 156 OFFCURVE",
"445 126 OFFCURVE",
"460 117 CURVE"
);
}
);
width = 596;
}
);
note = percent;
unicode = 0025;
},
{
glyphname = ampersand;
lastChange = "2021-03-03 20:55:47 +0000";
layers = (
{
background = {
paths = (
{
closed = 1;
nodes = (
"114 336 OFFCURVE",
"158 304 OFFCURVE",
"243 297 CURVE",
"111 252 OFFCURVE",
"42 167 OFFCURVE",
"42 95 CURVE SMOOTH",
"42 26 OFFCURVE",
"105 -31 OFFCURVE",
"237 -31 CURVE SMOOTH",
"408 -31 OFFCURVE",
"627 71 OFFCURVE",
"627 189 CURVE SMOOTH",
"627 226 OFFCURVE",
"602 259 OFFCURVE",
"576 271 CURVE",
"613 261 OFFCURVE",
"662 237 OFFCURVE",
"750 237 CURVE SMOOTH",
"785 237 OFFCURVE",
"817 247 OFFCURVE",
"817 266 CURVE SMOOTH",
"817 269 OFFCURVE",
"815 271 OFFCURVE",
"810 271 CURVE SMOOTH",
"802 271 OFFCURVE",
"791 263 OFFCURVE",
"771 263 CURVE SMOOTH",
"685 263 OFFCURVE",
"604 310 OFFCURVE",
"514 310 CURVE SMOOTH",
"449 310 OFFCURVE",
"366 285 OFFCURVE",
"366 215 CURVE SMOOTH",
"366 193 OFFCURVE",
"384 179 OFFCURVE",
"393 179 CURVE SMOOTH",
"397 179 OFFCURVE",
"400 181 OFFCURVE",
"400 186 CURVE SMOOTH",
"400 197 OFFCURVE",
"394 210 OFFCURVE",
"394 220 CURVE SMOOTH",
"394 260 OFFCURVE",
"439 276 OFFCURVE",
"489 276 CURVE SMOOTH",
"550 276 OFFCURVE",
"581 240 OFFCURVE",
"581 194 CURVE SMOOTH",
"581 109 OFFCURVE",
"476 -6 OFFCURVE",
"270 -6 CURVE SMOOTH",
"160 -6 OFFCURVE",
"106 43 OFFCURVE",
"106 103 CURVE SMOOTH",
"106 174 OFFCURVE",
"180 259 OFFCURVE",
"325 298 CURVE",
"372 302 OFFCURVE",
"390 318 OFFCURVE",
"390 329 CURVE SMOOTH",
"390 336 OFFCURVE",
"383 341 OFFCURVE",
"372 341 CURVE SMOOTH",
"355 341 OFFCURVE",
"318 327 OFFCURVE",
"279 327 CURVE SMOOTH",
"222 327 OFFCURVE",
"162 343 OFFCURVE",
"162 387 CURVE SMOOTH",
"162 539 OFFCURVE",
"395 613 OFFCURVE",
"526 613 CURVE SMOOTH",
"603 613 OFFCURVE",
"655 587 OFFCURVE",
"655 533 CURVE SMOOTH",
"655 467 OFFCURVE",
"564 403 OFFCURVE",
"507 403 CURVE SMOOTH",
"499 403 OFFCURVE",
"494 398 OFFCURVE",
"494 394 CURVE SMOOTH",
"494 391 OFFCURVE",
"497 388 OFFCURVE",
"503 388 CURVE SMOOTH",
"570 388 OFFCURVE",
"718 444 OFFCURVE",
"718 543 CURVE SMOOTH",
"718 603 OFFCURVE",
"642 633 OFFCURVE",
"543 633 CURVE SMOOTH",
"375 633 OFFCURVE",
"114 553 OFFCURVE",
"114 387 CURVE SMOOTH"
);
}
);
};
hints = (
{
horizontal = 1;
place = "{388, 15}";
type = Stem;
},
{
horizontal = 1;
place = "{633, -20}";
target = down;
type = TopGhost;
},
{
place = "{41, 65}";
type = Stem;
},
{
place = "{114, 48}";
type = Stem;
},
{
place = "{370, 23}";
type = Stem;
},
{
place = "{581, 56}";
type = Stem;
},
{
place = "{654, 64}";
type = Stem;
}
);
layerId = "3787E0F5-978F-4E40-B775-08CB0E3B1585";
paths = (
{
closed = 1;
nodes = (
"114 336 OFFCURVE",
"158 304 OFFCURVE",
"243 297 CURVE",
"111 252 OFFCURVE",
"42 167 OFFCURVE",
"42 95 CURVE SMOOTH",
"42 26 OFFCURVE",
"105 -31 OFFCURVE",
"237 -31 CURVE SMOOTH",
"408 -31 OFFCURVE",
"627 71 OFFCURVE",
"627 189 CURVE SMOOTH",
"627 226 OFFCURVE",
"602 259 OFFCURVE",
"576 271 CURVE",
"613 261 OFFCURVE",
"662 237 OFFCURVE",
"750 237 CURVE SMOOTH",
"785 237 OFFCURVE",
"817 247 OFFCURVE",
"817 266 CURVE SMOOTH",
"817 269 OFFCURVE",
"815 271 OFFCURVE",
"810 271 CURVE SMOOTH",
"802 271 OFFCURVE",
"791 263 OFFCURVE",
"771 263 CURVE SMOOTH",
"685 263 OFFCURVE",
"604 310 OFFCURVE",
"514 310 CURVE SMOOTH",
"449 310 OFFCURVE",
"366 285 OFFCURVE",
"366 215 CURVE SMOOTH",
"366 193 OFFCURVE",
"384 179 OFFCURVE",
"393 179 CURVE SMOOTH",
"397 179 OFFCURVE",
"400 181 OFFCURVE",
"400 186 CURVE SMOOTH",
"400 197 OFFCURVE",
"394 210 OFFCURVE",
"394 220 CURVE SMOOTH",
"394 260 OFFCURVE",
"439 276 OFFCURVE",
"489 276 CURVE SMOOTH",
"550 276 OFFCURVE",
"581 240 OFFCURVE",
"581 194 CURVE SMOOTH",
"581 109 OFFCURVE",
"476 -6 OFFCURVE",
"270 -6 CURVE SMOOTH",
"160 -6 OFFCURVE",
"106 43 OFFCURVE",
"106 103 CURVE SMOOTH",
"106 174 OFFCURVE",
"180 259 OFFCURVE",
"325 298 CURVE",
"372 302 OFFCURVE",
"390 318 OFFCURVE",
"390 329 CURVE SMOOTH",
"390 336 OFFCURVE",
"383 341 OFFCURVE",
"372 341 CURVE SMOOTH",
"355 341 OFFCURVE",
"318 327 OFFCURVE",
"279 327 CURVE SMOOTH",
"222 327 OFFCURVE",
"162 343 OFFCURVE",
"162 387 CURVE SMOOTH",
"162 539 OFFCURVE",
"395 613 OFFCURVE",
"526 613 CURVE SMOOTH",
"603 613 OFFCURVE",
"655 587 OFFCURVE",
"655 533 CURVE SMOOTH",
"655 467 OFFCURVE",
"564 403 OFFCURVE",
"507 403 CURVE SMOOTH",
"499 403 OFFCURVE",
"494 398 OFFCURVE",
"494 394 CURVE SMOOTH",
"494 391 OFFCURVE",
"497 388 OFFCURVE",
"503 388 CURVE SMOOTH",
"570 388 OFFCURVE",
"718 444 OFFCURVE",
"718 543 CURVE SMOOTH",
"718 603 OFFCURVE",
"642 633 OFFCURVE",
"543 633 CURVE SMOOTH",
"375 633 OFFCURVE",
"114 553 OFFCURVE",
"114 387 CURVE SMOOTH"
);
}
);
width = 862;
}
);
note = ampersand;
unicode = 0026;
},
{
color = 9;
glyphname = quotesingle;
lastChange = "2021-03-03 20:55:47 +0000";
layers = (
{
background = {
paths = (
{
closed = 1;
nodes = (
"295 570 OFFCURVE",
"290 572 OFFCURVE",
"284 572 CURVE SMOOTH",
"267 572 OFFCURVE",
"242 550 OFFCURVE",
"242 550 CURVE",
"240 549 LINE",
"230 541 OFFCURVE",
"224 529 OFFCURVE",
"224 517 CURVE SMOOTH",
"224 509 OFFCURVE",
"227 501 OFFCURVE",
"233 495 CURVE SMOOTH",
"234 494 LINE SMOOTH",
"237 491 OFFCURVE",
"238 487 OFFCURVE",
"238 483 CURVE SMOOTH",
"238 448 OFFCURVE",
"169 367 OFFCURVE",
"137 335 CURVE",
"137 333 LINE SMOOTH",
"137 330 OFFCURVE",
"138 329 OFFCURVE",
"141 329 CURVE SMOOTH",
"164 329 OFFCURVE",
"259 393 OFFCURVE",
"296 505 CURVE",
"302 511 OFFCURVE",
"306 520 OFFCURVE",
"306 532 CURVE SMOOTH",
"306 541 OFFCURVE",
"304 552 OFFCURVE",
"298 564 CURVE SMOOTH"
);
}
);
};
hints = (
{
horizontal = 1;
place = "{329, 21}";
target = up;
type = BottomGhost;
},
{
horizontal = 1;
place = "{572, -20}";
target = down;
type = TopGhost;
}
);
layerId = "3787E0F5-978F-4E40-B775-08CB0E3B1585";
paths = (
{
closed = 1;
nodes = (
"295 570 OFFCURVE",
"290 572 OFFCURVE",
"284 572 CURVE SMOOTH",
"267 572 OFFCURVE",
"242 550 OFFCURVE",
"242 550 CURVE",
"240 549 LINE",
"230 541 OFFCURVE",
"224 529 OFFCURVE",
"224 517 CURVE SMOOTH",
"224 509 OFFCURVE",
"227 501 OFFCURVE",
"233 495 CURVE SMOOTH",
"234 494 LINE SMOOTH",
"237 491 OFFCURVE",
"238 487 OFFCURVE",
"238 483 CURVE SMOOTH",
"238 448 OFFCURVE",
"169 367 OFFCURVE",
"137 335 CURVE",
"137 333 LINE SMOOTH",
"137 330 OFFCURVE",
"138 329 OFFCURVE",
"141 329 CURVE SMOOTH",
"164 329 OFFCURVE",
"259 393 OFFCURVE",
"296 505 CURVE",
"302 511 OFFCURVE",
"306 520 OFFCURVE",
"306 532 CURVE SMOOTH",
"306 541 OFFCURVE",
"304 552 OFFCURVE",
"298 564 CURVE SMOOTH"
);
}
);
width = 209;
}
);
note = quotesingle;
unicode = 0027;
},
{
glyphname = parenleft;
lastChange = "2021-03-03 20:55:47 +0000";
layers = (
{
background = {
paths = (
{
closed = 1;
nodes = (
"434 678 LINE SMOOTH",
"211 678 OFFCURVE",
"56 492 OFFCURVE",
"12 345 CURVE SMOOTH",
"-8 278 OFFCURVE",
"-18 210 OFFCURVE",
"-18 150 CURVE SMOOTH",
"-18 32 OFFCURVE",
"22 -65 OFFCURVE",
"96 -65 CURVE SMOOTH",
"106 -65 OFFCURVE",
"112 -60 OFFCURVE",
"112 -54 CURVE SMOOTH",
"112 -48 OFFCURVE",
"105 -41 OFFCURVE",
"88 -40 CURVE",
"34 -27 OFFCURVE",
"13 40 OFFCURVE",
"13 122 CURVE SMOOTH",
"13 191 OFFCURVE",
"28 271 OFFCURVE",
"51 339 CURVE SMOOTH",
"92 462 OFFCURVE",
"222 628 OFFCURVE",
"407 631 CURVE SMOOTH",
"421 631 OFFCURVE",
"448 652 OFFCURVE",
"448 666 CURVE SMOOTH",
"448 672 OFFCURVE",
"444 676 OFFCURVE",
"435 678 CURVE SMOOTH"
);
}
);
};
hints = (
{
horizontal = 1;
place = "{631, 47}";
type = Stem;
}
);
layerId = "3787E0F5-978F-4E40-B775-08CB0E3B1585";
paths = (
{
closed = 1;
nodes = (
"434 678 LINE SMOOTH",
"211 678 OFFCURVE",
"56 492 OFFCURVE",
"12 345 CURVE SMOOTH",
"-8 278 OFFCURVE",
"-18 210 OFFCURVE",
"-18 150 CURVE SMOOTH",
"-18 32 OFFCURVE",
"22 -65 OFFCURVE",
"96 -65 CURVE SMOOTH",
"106 -65 OFFCURVE",
"112 -60 OFFCURVE",
"112 -54 CURVE SMOOTH",
"112 -48 OFFCURVE",
"105 -41 OFFCURVE",
"88 -40 CURVE",
"34 -27 OFFCURVE",
"13 40 OFFCURVE",
"13 122 CURVE SMOOTH",
"13 191 OFFCURVE",
"28 271 OFFCURVE",
"51 339 CURVE SMOOTH",
"92 462 OFFCURVE",
"222 628 OFFCURVE",
"407 631 CURVE SMOOTH",
"421 631 OFFCURVE",
"448 652 OFFCURVE",
"448 666 CURVE SMOOTH",
"448 672 OFFCURVE",
"444 676 OFFCURVE",
"435 678 CURVE SMOOTH"
);
}
);
width = 268;
}
);
note = parenleft;
unicode = 0028;
},
{
color = 9;
glyphname = parenright;
lastChange = "2021-03-03 20:55:47 +0000";
layers = (
{
background = {
paths = (
{
closed = 1;
nodes = (
"388 372 OFFCURVE",
"405 439 OFFCURVE",
"405 500 CURVE SMOOTH",
"405 594 OFFCURVE",
"365 674 OFFCURVE",
"238 674 CURVE SMOOTH",
"216 674 OFFCURVE",
"207 672 OFFCURVE",
"207 666 CURVE SMOOTH",
"207 657 OFFCURVE",
"223 646 OFFCURVE",
"229 646 CURVE SMOOTH",
"237 646 LINE SMOOTH",
"342 646 OFFCURVE",
"376 585 OFFCURVE",
"376 511 CURVE SMOOTH",
"376 452 OFFCURVE",
"355 385 OFFCURVE",
"330 333 CURVE",
"329 333 LINE",
"254 178 OFFCURVE",
"128 3 OFFCURVE",
"13 3 CURVE SMOOTH",
"-6 3 OFFCURVE",
"-31 -28 OFFCURVE",
"-31 -45 CURVE SMOOTH",
"-31 -50 OFFCURVE",
"-29 -54 OFFCURVE",
"-24 -56 CURVE",
"-23 -56 LINE SMOOTH",
"118 -56 OFFCURVE",
"279 109 OFFCURVE",
"366 318 CURVE SMOOTH"
);
}
);
};
hints = (
{
horizontal = 1;
place = "{-56, 60}";
type = Stem;
},
{
horizontal = 1;
place = "{648, 25}";
type = Stem;
}
);
layerId = "3787E0F5-978F-4E40-B775-08CB0E3B1585";
paths = (
{
closed = 1;
nodes = (
"388 372 OFFCURVE",
"405 439 OFFCURVE",
"405 500 CURVE SMOOTH",
"405 594 OFFCURVE",
"365 674 OFFCURVE",
"238 674 CURVE SMOOTH",
"216 674 OFFCURVE",
"207 672 OFFCURVE",
"207 666 CURVE SMOOTH",
"207 657 OFFCURVE",
"223 646 OFFCURVE",
"229 646 CURVE SMOOTH",
"237 646 LINE SMOOTH",
"342 646 OFFCURVE",
"376 585 OFFCURVE",
"376 511 CURVE SMOOTH",
"376 452 OFFCURVE",
"355 385 OFFCURVE",
"330 333 CURVE",
"329 333 LINE",
"254 178 OFFCURVE",
"128 3 OFFCURVE",
"13 3 CURVE SMOOTH",
"-6 3 OFFCURVE",
"-31 -28 OFFCURVE",
"-31 -45 CURVE SMOOTH",
"-31 -50 OFFCURVE",
"-29 -54 OFFCURVE",
"-24 -56 CURVE",
"-23 -56 LINE SMOOTH",
"118 -56 OFFCURVE",
"279 109 OFFCURVE",
"366 318 CURVE SMOOTH"
);
}
);
width = 397;
}
);
note = parenright;
unicode = 0029;
},
{
color = 9;
glyphname = asterisk;
lastChange = "2021-03-03 20:55:47 +0000";
layers = (
{
background = {
paths = (
{
closed = 1;
nodes = (
"174 655 OFFCURVE",
"171 656 OFFCURVE",
"167 656 CURVE SMOOTH",
"151 656 OFFCURVE",
"128 633 OFFCURVE",
"114 619 CURVE",
"117 631 OFFCURVE",
"121 646 OFFCURVE",
"121 660 CURVE SMOOTH",
"121 675 OFFCURVE",
"117 687 OFFCURVE",
"103 689 CURVE",
"88 688 OFFCURVE",
"84 675 OFFCURVE",
"84 659 CURVE SMOOTH",
"84 645 OFFCURVE",
"87 629 OFFCURVE",
"90 618 CURVE",
"78 633 OFFCURVE",
"55 654 OFFCURVE",
"37 654 CURVE SMOOTH",
"30 654 OFFCURVE",
"21 650 OFFCURVE",
"21 640 CURVE SMOOTH",
"21 620 OFFCURVE",
"60 606 OFFCURVE",
"81 598 CURVE",
"60 593 OFFCURVE",
"21 581 OFFCURVE",
"21 561 CURVE SMOOTH",
"21 549 OFFCURVE",
"31 545 OFFCURVE",
"38 545 CURVE SMOOTH",
"56 545 OFFCURVE",
"77 564 OFFCURVE",
"90 577 CURVE",
"87 566 OFFCURVE",
"83 550 OFFCURVE",
"83 536 CURVE SMOOTH",
"83 520 OFFCURVE",
"88 508 OFFCURVE",
"104 508 CURVE SMOOTH",
"118 508 OFFCURVE",
"123 519 OFFCURVE",
"123 533 CURVE SMOOTH",
"123 547 OFFCURVE",
"118 564 OFFCURVE",
"115 577 CURVE",
"128 563 OFFCURVE",
"149 544 OFFCURVE",
"165 544 CURVE SMOOTH",
"173 544 OFFCURVE",
"181 549 OFFCURVE",
"181 559 CURVE SMOOTH",
"181 580 OFFCURVE",
"142 593 OFFCURVE",
"122 599 CURVE",
"140 606 OFFCURVE",
"182 624 OFFCURVE",
"182 642 CURVE SMOOTH",
"182 645 OFFCURVE",
"180 649 OFFCURVE",
"177 652 CURVE SMOOTH"
);
}
);
};
hints = (
{
horizontal = 1;
place = "{508, 181}";
type = Stem;
}
);
layerId = "3787E0F5-978F-4E40-B775-08CB0E3B1585";
paths = (
{
closed = 1;
nodes = (
"174 655 OFFCURVE",
"171 656 OFFCURVE",
"167 656 CURVE SMOOTH",
"151 656 OFFCURVE",
"128 633 OFFCURVE",
"114 619 CURVE",
"117 631 OFFCURVE",
"121 646 OFFCURVE",
"121 660 CURVE SMOOTH",
"121 675 OFFCURVE",
"117 687 OFFCURVE",
"103 689 CURVE",
"88 688 OFFCURVE",
"84 675 OFFCURVE",
"84 659 CURVE SMOOTH",
"84 645 OFFCURVE",
"87 629 OFFCURVE",
"90 618 CURVE",
"78 633 OFFCURVE",
"55 654 OFFCURVE",
"37 654 CURVE SMOOTH",
"30 654 OFFCURVE",
"21 650 OFFCURVE",
"21 640 CURVE SMOOTH",
"21 620 OFFCURVE",
"60 606 OFFCURVE",
"81 598 CURVE",
"60 593 OFFCURVE",
"21 581 OFFCURVE",
"21 561 CURVE SMOOTH",
"21 549 OFFCURVE",
"31 545 OFFCURVE",
"38 545 CURVE SMOOTH",
"56 545 OFFCURVE",
"77 564 OFFCURVE",
"90 577 CURVE",
"87 566 OFFCURVE",
"83 550 OFFCURVE",
"83 536 CURVE SMOOTH",
"83 520 OFFCURVE",
"88 508 OFFCURVE",
"104 508 CURVE SMOOTH",
"118 508 OFFCURVE",
"123 519 OFFCURVE",
"123 533 CURVE SMOOTH",
"123 547 OFFCURVE",
"118 564 OFFCURVE",
"115 577 CURVE",
"128 563 OFFCURVE",
"149 544 OFFCURVE",
"165 544 CURVE SMOOTH",
"173 544 OFFCURVE",
"181 549 OFFCURVE",
"181 559 CURVE SMOOTH",
"181 580 OFFCURVE",
"142 593 OFFCURVE",
"122 599 CURVE",
"140 606 OFFCURVE",
"182 624 OFFCURVE",
"182 642 CURVE SMOOTH",
"182 645 OFFCURVE",
"180 649 OFFCURVE",
"177 652 CURVE SMOOTH"
);
}
);
width = 203;
}
);
note = asterisk;
unicode = 002A;
},
{
glyphname = plus;
lastChange = "2021-03-03 20:55:47 +0000";
layers = (
{
background = {
paths = (
{
closed = 1;
nodes = (
"350 181 OFFCURVE",
"333 182 OFFCURVE",
"312 182 CURVE SMOOTH",
"277 182 OFFCURVE",
"234 180 OFFCURVE",
"224 180 CURVE",
"243 229 OFFCURVE",
"262 297 OFFCURVE",
"262 312 CURVE",
"261 316 OFFCURVE",
"258 318 OFFCURVE",
"254 318 CURVE SMOOTH",
"222 318 OFFCURVE",
"200 225 OFFCURVE",
"186 181 CURVE",
"87 183 LINE",
"70 181 OFFCURVE",
"58 170 OFFCURVE",
"58 160 CURVE SMOOTH",
"58 155 OFFCURVE",
"51 152 OFFCURVE",
"85 152 CURVE SMOOTH",
"119 152 OFFCURVE",
"178 153 OFFCURVE",
"178 154 CURVE",
"179 151 OFFCURVE",
"162 88 OFFCURVE",
"143 29 CURVE",
"141 26 OFFCURVE",
"139 13 OFFCURVE",
"139 2 CURVE SMOOTH",
"139 -6 OFFCURVE",
"140 -13 OFFCURVE",
"144 -13 CURVE SMOOTH",
"147 -13 OFFCURVE",
"152 -6 OFFCURVE",
"161 12 CURVE SMOOTH",
"202 97 OFFCURVE",
"213 144 OFFCURVE",
"215 152 CURVE",
"268 161 OFFCURVE",
"364 156 OFFCURVE",
"364 171 CURVE SMOOTH",
"364 173 OFFCURVE",
"361 176 OFFCURVE",
"356 179 CURVE"
);
}
);
};
hints = (
{
horizontal = 1;
place = "{-13, 21}";
target = up;
type = BottomGhost;
},
{
horizontal = 1;
place = "{152, 30}";
type = Stem;
},
{
horizontal = 1;
place = "{318, -20}";
target = down;
type = TopGhost;
}
);
layerId = "3787E0F5-978F-4E40-B775-08CB0E3B1585";
paths = (
{
closed = 1;
nodes = (
"350 181 OFFCURVE",
"333 182 OFFCURVE",
"312 182 CURVE SMOOTH",
"277 182 OFFCURVE",
"234 180 OFFCURVE",
"224 180 CURVE",
"243 229 OFFCURVE",
"262 297 OFFCURVE",
"262 312 CURVE",
"261 316 OFFCURVE",
"258 318 OFFCURVE",
"254 318 CURVE SMOOTH",
"222 318 OFFCURVE",
"200 225 OFFCURVE",
"186 181 CURVE",
"87 183 LINE",
"70 181 OFFCURVE",
"58 170 OFFCURVE",
"58 160 CURVE SMOOTH",
"58 155 OFFCURVE",
"51 152 OFFCURVE",
"85 152 CURVE SMOOTH",
"119 152 OFFCURVE",
"178 153 OFFCURVE",
"178 154 CURVE",
"179 151 OFFCURVE",
"162 88 OFFCURVE",
"143 29 CURVE",
"141 26 OFFCURVE",
"139 13 OFFCURVE",
"139 2 CURVE SMOOTH",
"139 -6 OFFCURVE",
"140 -13 OFFCURVE",
"144 -13 CURVE SMOOTH",
"147 -13 OFFCURVE",
"152 -6 OFFCURVE",
"161 12 CURVE SMOOTH",
"202 97 OFFCURVE",
"213 144 OFFCURVE",
"215 152 CURVE",
"268 161 OFFCURVE",
"364 156 OFFCURVE",
"364 171 CURVE SMOOTH",
"364 173 OFFCURVE",
"361 176 OFFCURVE",
"356 179 CURVE"
);
}
);
width = 379;
}
);
note = plus;
unicode = 002B;
},
{
glyphname = comma;
lastChange = "2021-03-03 20:55:47 +0000";
layers = (
{
background = {
paths = (
{
closed = 1;
nodes = (
"159 72 OFFCURVE",
"154 74 OFFCURVE",
"148 74 CURVE SMOOTH",
"131 74 OFFCURVE",
"106 52 OFFCURVE",
"106 52 CURVE",
"104 51 LINE",
"94 43 OFFCURVE",
"88 31 OFFCURVE",
"88 20 CURVE SMOOTH",
"88 11 OFFCURVE",
"91 3 OFFCURVE",
"97 -4 CURVE",
"98 -4 LINE",
"101 -7 OFFCURVE",
"102 -11 OFFCURVE",
"102 -16 CURVE SMOOTH",
"102 -50 OFFCURVE",
"33 -131 OFFCURVE",
"1 -164 CURVE",
"1 -166 LINE SMOOTH",
"1 -168 OFFCURVE",
"2 -169 OFFCURVE",
"5 -169 CURVE SMOOTH",
"27 -169 OFFCURVE",
"122 -105 OFFCURVE",
"159 8 CURVE SMOOTH",
"162 18 OFFCURVE",
"169 20 OFFCURVE",
"169 33 CURVE SMOOTH",
"169 40 OFFCURVE",
"167 50 OFFCURVE",
"162 66 CURVE"
);
}
);
};
hints = (
{
horizontal = 1;
place = "{-169, 21}";
target = up;
type = BottomGhost;
},
{
horizontal = 1;
place = "{-4, 21}";
target = up;
type = BottomGhost;
},
{
horizontal = 1;
place = "{74, -20}";
target = down;
type = TopGhost;
}
);
layerId = "3787E0F5-978F-4E40-B775-08CB0E3B1585";
paths = (
{
closed = 1;
nodes = (
"159 72 OFFCURVE",
"154 74 OFFCURVE",
"148 74 CURVE SMOOTH",
"131 74 OFFCURVE",
"106 52 OFFCURVE",
"106 52 CURVE",
"104 51 LINE",
"94 43 OFFCURVE",
"88 31 OFFCURVE",
"88 20 CURVE SMOOTH",
"88 11 OFFCURVE",
"91 3 OFFCURVE",
"97 -4 CURVE",
"98 -4 LINE",
"101 -7 OFFCURVE",
"102 -11 OFFCURVE",
"102 -16 CURVE SMOOTH",
"102 -50 OFFCURVE",
"33 -131 OFFCURVE",
"1 -164 CURVE",
"1 -166 LINE SMOOTH",
"1 -168 OFFCURVE",
"2 -169 OFFCURVE",
"5 -169 CURVE SMOOTH",
"27 -169 OFFCURVE",
"122 -105 OFFCURVE",
"159 8 CURVE SMOOTH",
"162 18 OFFCURVE",
"169 20 OFFCURVE",
"169 33 CURVE SMOOTH",
"169 40 OFFCURVE",
"167 50 OFFCURVE",
"162 66 CURVE"
);
}
);
width = 202;
}
);
note = comma;
unicode = 002C;
},
{
glyphname = hyphen;
lastChange = "2021-03-03 20:55:47 +0000";
layers = (
{
background = {
paths = (
{
closed = 1;
nodes = (
"178 153 OFFCURVE",
"168 153 OFFCURVE",
"158 153 CURVE SMOOTH",
"125 153 OFFCURVE",
"100 155 OFFCURVE",
"74 157 CURVE",
"77 160 OFFCURVE",
"79 164 OFFCURVE",
"79 168 CURVE SMOOTH",
"79 171 OFFCURVE",
"77 173 OFFCURVE",
"72 173 CURVE SMOOTH",
"73 173 OFFCURVE",
"23 165 OFFCURVE",
"23 134 CURVE SMOOTH",
"23 126 OFFCURVE",
"30 121 OFFCURVE",
"38 121 CURVE SMOOTH",
"41 121 OFFCURVE",
"44 122 OFFCURVE",
"47 122 CURVE SMOOTH",
"53 122 OFFCURVE",
"60 121 OFFCURVE",
"67 121 CURVE SMOOTH",
"137 121 OFFCURVE",
"259 136 OFFCURVE",
"259 150 CURVE SMOOTH",
"259 154 OFFCURVE",
"253 156 OFFCURVE",
"241 156 CURVE SMOOTH",
"226 155 OFFCURVE",
"190 154 OFFCURVE",
"190 154 CURVE"
);
}
);
};
hints = (
{
horizontal = 1;
place = "{122, 35}";
type = Stem;
}
);
layerId = "3787E0F5-978F-4E40-B775-08CB0E3B1585";
paths = (
{
closed = 1;
nodes = (
"178 153 OFFCURVE",
"168 153 OFFCURVE",
"158 153 CURVE SMOOTH",
"125 153 OFFCURVE",
"100 155 OFFCURVE",
"74 157 CURVE",
"77 160 OFFCURVE",
"79 164 OFFCURVE",
"79 168 CURVE SMOOTH",
"79 171 OFFCURVE",
"77 173 OFFCURVE",
"72 173 CURVE SMOOTH",
"73 173 OFFCURVE",
"23 165 OFFCURVE",
"23 134 CURVE SMOOTH",
"23 126 OFFCURVE",
"30 121 OFFCURVE",
"38 121 CURVE SMOOTH",
"41 121 OFFCURVE",
"44 122 OFFCURVE",
"47 122 CURVE SMOOTH",
"53 122 OFFCURVE",
"60 121 OFFCURVE",
"67 121 CURVE SMOOTH",
"137 121 OFFCURVE",
"259 136 OFFCURVE",
"259 150 CURVE SMOOTH",
"259 154 OFFCURVE",
"253 156 OFFCURVE",
"241 156 CURVE SMOOTH",
"226 155 OFFCURVE",
"190 154 OFFCURVE",
"190 154 CURVE"
);
}
);
width = 289;
}
);
note = hyphen;
unicode = 002D;
},
{
color = 9;
glyphname = period;
lastChange = "2021-03-03 20:55:47 +0000";
layers = (
{
background = {
paths = (
{
closed = 1;
nodes = (
"176 76 OFFCURVE",
"175 77 OFFCURVE",
"173 77 CURVE SMOOTH",
"159 77 OFFCURVE",
"113 51 OFFCURVE",
"113 26 CURVE SMOOTH",
"113 12 OFFCURVE",
"114 -13 OFFCURVE",
"130 -13 CURVE SMOOTH",
"162 -13 OFFCURVE",
"164 11 OFFCURVE",
"177 75 CURVE"
);
}
);
};
hints = (
{
place = "{77, 53}";
type = Stem;
}
);
layerId = "3787E0F5-978F-4E40-B775-08CB0E3B1585";
paths = (
{
closed = 1;
nodes = (
"176 76 OFFCURVE",
"175 77 OFFCURVE",
"173 77 CURVE SMOOTH",
"159 77 OFFCURVE",
"113 51 OFFCURVE",
"113 26 CURVE SMOOTH",
"113 12 OFFCURVE",
"114 -13 OFFCURVE",
"130 -13 CURVE SMOOTH",
"162 -13 OFFCURVE",
"164 11 OFFCURVE",
"177 75 CURVE"
);
}
);
width = 247;
}
);
note = period;
unicode = 002E;
},
{
glyphname = slash;
lastChange = "2021-03-03 20:55:47 +0000";
layers = (
{
background = {
paths = (
{
closed = 1;
nodes = (
"575 696 OFFCURVE",
"565 698 OFFCURVE",
"561 698 CURVE SMOOTH",
"541 698 OFFCURVE",
"20 81 OFFCURVE",
"20 -92 CURVE SMOOTH",
"20 -111 OFFCURVE",
"28 -124 OFFCURVE",
"44 -124 CURVE SMOOTH",
"50 -124 OFFCURVE",
"67 -116 OFFCURVE",
"67 -109 CURVE SMOOTH",
"67 -105 OFFCURVE",
"53 -98 OFFCURVE",
"53 -80 CURVE SMOOTH",
"53 1 OFFCURVE",
"405 464 OFFCURVE",
"576 660 CURVE SMOOTH",
"582 667 OFFCURVE",
"585 674 OFFCURVE",
"585 679 CURVE SMOOTH",
"585 684 OFFCURVE",
"582 687 OFFCURVE",
"580 690 CURVE SMOOTH"
);
}
);
};
hints = (
{
place = "{27, 27}";
type = Stem;
}
);
layerId = "3787E0F5-978F-4E40-B775-08CB0E3B1585";
paths = (
{
closed = 1;
nodes = (
"575 696 OFFCURVE",
"565 698 OFFCURVE",
"561 698 CURVE SMOOTH",
"541 698 OFFCURVE",
"20 81 OFFCURVE",
"20 -92 CURVE SMOOTH",
"20 -111 OFFCURVE",
"28 -124 OFFCURVE",
"44 -124 CURVE SMOOTH",
"50 -124 OFFCURVE",
"67 -116 OFFCURVE",
"67 -109 CURVE SMOOTH",
"67 -105 OFFCURVE",
"53 -98 OFFCURVE",
"53 -80 CURVE SMOOTH",
"53 1 OFFCURVE",
"405 464 OFFCURVE",
"576 660 CURVE SMOOTH",
"582 667 OFFCURVE",
"585 674 OFFCURVE",
"585 679 CURVE SMOOTH",
"585 684 OFFCURVE",
"582 687 OFFCURVE",
"580 690 CURVE SMOOTH"
);
}
);
width = 604;
}
);
note = slash;
unicode = 002F;
},
{
glyphname = zero;
lastChange = "2021-03-03 20:55:47 +0000";
layers = (
{
background = {
paths = (
{
closed = 1;
nodes = (
"94 382 OFFCURVE",
"33 153 OFFCURVE",
"33 65 CURVE SMOOTH",
"33 2 OFFCURVE",
"61 -20 OFFCURVE",
"100 -20 CURVE SMOOTH",
"209 -20 OFFCURVE",
"286 149 OFFCURVE",
"286 280 CURVE SMOOTH",
"286 343 OFFCURVE",
"266 382 OFFCURVE",
"216 382 CURVE SMOOTH"
);
},
{
closed = 1;
nodes = (
"217 107 OFFCURVE",
"172 12 OFFCURVE",
"112 12 CURVE SMOOTH",
"89 12 OFFCURVE",
"80 38 OFFCURVE",
"80 75 CURVE SMOOTH",
"80 170 OFFCURVE",
"150 340 OFFCURVE",
"218 340 CURVE SMOOTH",
"246 340 OFFCURVE",
"254 313 OFFCURVE",
"254 281 CURVE SMOOTH",
"254 244 OFFCURVE",
"243 200 OFFCURVE",
"239 188 CURVE SMOOTH"
);
}
);
};
hints = (
{
horizontal = 1;
place = "{-10, 20}";
type = Stem;
},
{
horizontal = 1;
place = "{617, 18}";
type = Stem;
},
{
place = "{221, 31}";
type = Stem;
}
);
layerId = "3787E0F5-978F-4E40-B775-08CB0E3B1585";
paths = (
{
closed = 1;
nodes = (
"94 382 OFFCURVE",
"33 153 OFFCURVE",
"33 65 CURVE SMOOTH",
"33 2 OFFCURVE",
"61 -20 OFFCURVE",
"100 -20 CURVE SMOOTH",
"209 -20 OFFCURVE",
"286 149 OFFCURVE",
"286 280 CURVE SMOOTH",
"286 343 OFFCURVE",
"266 382 OFFCURVE",
"216 382 CURVE SMOOTH"
);
},
{
closed = 1;
nodes = (
"217 107 OFFCURVE",
"172 12 OFFCURVE",
"112 12 CURVE SMOOTH",
"89 12 OFFCURVE",
"80 38 OFFCURVE",
"80 75 CURVE SMOOTH",
"80 170 OFFCURVE",
"150 340 OFFCURVE",
"218 340 CURVE SMOOTH",
"246 340 OFFCURVE",
"254 313 OFFCURVE",
"254 281 CURVE SMOOTH",
"254 244 OFFCURVE",
"243 200 OFFCURVE",
"239 188 CURVE SMOOTH"
);
}
);
width = 318;
}
);
note = zero;
unicode = 0030;
},
{
glyphname = one;
lastChange = "2021-03-03 20:55:47 +0000";
layers = (
{
background = {
paths = (
{
closed = 1;
nodes = (
"255 381 OFFCURVE",
"252 388 OFFCURVE",
"239 388 CURVE SMOOTH",
"233 388 OFFCURVE",
"228 388 OFFCURVE",
"223 387 CURVE SMOOTH",
"209 386 OFFCURVE",
"194 380 OFFCURVE",
"190 369 CURVE",
"186 363 OFFCURVE",
"182 359 OFFCURVE",
"179 353 CURVE",
"139 313 OFFCURVE",
"96 271 OFFCURVE",
"46 245 CURVE",
"40 243 OFFCURVE",
"39 237 OFFCURVE",
"40 233 CURVE SMOOTH",
"41 228 OFFCURVE",
"45 225 OFFCURVE",
"49 225 CURVE SMOOTH",
"50 225 OFFCURVE",
"52 225 OFFCURVE",
"54 226 CURVE SMOOTH",
"89 243 OFFCURVE",
"120 262 OFFCURVE",
"150 283 CURVE",
"148 277 OFFCURVE",
"147 273 OFFCURVE",
"147 270 CURVE SMOOTH",
"147 265 OFFCURVE",
"150 264 OFFCURVE",
"150 257 CURVE SMOOTH",
"150 235 OFFCURVE",
"130 193 OFFCURVE",
"72 24 CURVE SMOOTH",
"69 15 OFFCURVE",
"68 9 OFFCURVE",
"68 3 CURVE SMOOTH",
"68 -10 OFFCURVE",
"76 -15 OFFCURVE",
"87 -15 CURVE SMOOTH",
"103 -15 OFFCURVE",
"122 2 OFFCURVE",
"124 15 CURVE SMOOTH",
"126 31 OFFCURVE",
"140 72 OFFCURVE",
"127 77 CURVE",
"131 93 OFFCURVE",
"140 107 OFFCURVE",
"146 128 CURVE SMOOTH",
"180 245 OFFCURVE",
"228 329 OFFCURVE",
"250 370 CURVE SMOOTH"
);
}
);
};
hints = (
{
horizontal = 1;
place = "{11, -20}";
target = down;
type = TopGhost;
},
{
horizontal = 1;
place = "{54, 25}";
type = Stem;
},
{
horizontal = 1;
place = "{269, 33}";
type = Stem;
},
{
horizontal = 1;
place = "{622, -20}";
target = down;
type = TopGhost;
},
{
horizontal = 1;
place = "{655, 19}";
type = Stem;
},
{
place = "{-14, 37}";
type = Stem;
},
{
place = "{470, 35}";
type = Stem;
}
);
layerId = "3787E0F5-978F-4E40-B775-08CB0E3B1585";
paths = (
{
closed = 1;
nodes = (
"255 381 OFFCURVE",
"252 388 OFFCURVE",
"239 388 CURVE SMOOTH",
"233 388 OFFCURVE",
"228 388 OFFCURVE",
"223 387 CURVE SMOOTH",
"209 386 OFFCURVE",
"194 380 OFFCURVE",
"190 369 CURVE",
"186 363 OFFCURVE",
"182 359 OFFCURVE",
"179 353 CURVE",
"139 313 OFFCURVE",
"96 271 OFFCURVE",
"46 245 CURVE",
"40 243 OFFCURVE",
"39 237 OFFCURVE",
"40 233 CURVE SMOOTH",
"41 228 OFFCURVE",
"45 225 OFFCURVE",
"49 225 CURVE SMOOTH",
"50 225 OFFCURVE",
"52 225 OFFCURVE",
"54 226 CURVE SMOOTH",
"89 243 OFFCURVE",
"120 262 OFFCURVE",
"150 283 CURVE",
"148 277 OFFCURVE",
"147 273 OFFCURVE",
"147 270 CURVE SMOOTH",
"147 265 OFFCURVE",
"150 264 OFFCURVE",
"150 257 CURVE SMOOTH",
"150 235 OFFCURVE",
"130 193 OFFCURVE",
"72 24 CURVE SMOOTH",
"69 15 OFFCURVE",
"68 9 OFFCURVE",
"68 3 CURVE SMOOTH",
"68 -10 OFFCURVE",
"76 -15 OFFCURVE",
"87 -15 CURVE SMOOTH",
"103 -15 OFFCURVE",
"122 2 OFFCURVE",
"124 15 CURVE SMOOTH",
"126 31 OFFCURVE",
"140 72 OFFCURVE",
"127 77 CURVE",
"131 93 OFFCURVE",
"140 107 OFFCURVE",
"146 128 CURVE SMOOTH",
"180 245 OFFCURVE",
"228 329 OFFCURVE",
"250 370 CURVE SMOOTH"
);
}
);
width = 275;
}
);
note = one;
unicode = 0031;
},
{
glyphname = two;
lastChange = "2021-03-03 20:55:47 +0000";
layers = (
{
background = {
paths = (
{
closed = 1;
nodes = (
"395 367 OFFCURVE",
"362 381 OFFCURVE",
"320 381 CURVE SMOOTH",
"265 381 OFFCURVE",
"194 356 OFFCURVE",
"161 343 CURVE",
"166 348 OFFCURVE",
"173 353 OFFCURVE",
"173 360 CURVE",
"174 364 OFFCURVE",
"172 367 OFFCURVE",
"169 367 CURVE SMOOTH",
"163 367 OFFCURVE",
"108 323 OFFCURVE",
"96 317 CURVE SMOOTH",
"86 312 OFFCURVE",
"79 297 OFFCURVE",
"79 286 CURVE",
"78 281 OFFCURVE",
"80 277 OFFCURVE",
"84 277 CURVE SMOOTH",
"85 277 OFFCURVE",
"88 277 OFFCURVE",
"90 279 CURVE",
"137 309 OFFCURVE",
"229 347 OFFCURVE",
"285 347 CURVE SMOOTH",
"322 347 OFFCURVE",
"339 330 OFFCURVE",
"338 309 CURVE SMOOTH",
"333 215 OFFCURVE",
"192 110 OFFCURVE",
"87 61 CURVE",
"65 53 OFFCURVE",
"19 37 OFFCURVE",
"16 18 CURVE SMOOTH",
"13 5 OFFCURVE",
"16 -12 OFFCURVE",
"24 -9 CURVE SMOOTH",
"63 6 OFFCURVE",
"123 15 OFFCURVE",
"171 23 CURVE SMOOTH",
"216 30 OFFCURVE",
"260 36 OFFCURVE",
"304 36 CURVE SMOOTH",
"333 36 OFFCURVE",
"357 27 OFFCURVE",
"357 6 CURVE SMOOTH",
"357 -3 OFFCURVE",
"354 -14 OFFCURVE",
"344 -27 CURVE",
"344 -27 OFFCURVE",
"343 -35 OFFCURVE",
"348 -35 CURVE SMOOTH",
"357 -35 OFFCURVE",
"382 4 OFFCURVE",
"382 33 CURVE SMOOTH",
"382 65 OFFCURVE",
"337 68 OFFCURVE",
"297 68 CURVE SMOOTH",
"235 68 OFFCURVE",
"143 53 OFFCURVE",
"104 40 CURVE",
"199 100 OFFCURVE",
"387 213 OFFCURVE",
"392 321 CURVE SMOOTH"
);
}
);
};
hints = (
{
horizontal = 1;
place = "{-49, 38}";
type = Stem;
},
{
place = "{645, 31}";
type = Stem;
}
);
layerId = "3787E0F5-978F-4E40-B775-08CB0E3B1585";
paths = (
{
closed = 1;
nodes = (
"395 367 OFFCURVE",
"362 381 OFFCURVE",
"320 381 CURVE SMOOTH",
"265 381 OFFCURVE",
"194 356 OFFCURVE",
"161 343 CURVE",
"166 348 OFFCURVE",
"173 353 OFFCURVE",
"173 360 CURVE",
"174 364 OFFCURVE",
"172 367 OFFCURVE",
"169 367 CURVE SMOOTH",
"163 367 OFFCURVE",
"108 323 OFFCURVE",
"96 317 CURVE SMOOTH",
"86 312 OFFCURVE",
"79 297 OFFCURVE",
"79 286 CURVE",
"78 281 OFFCURVE",
"80 277 OFFCURVE",
"84 277 CURVE SMOOTH",
"85 277 OFFCURVE",
"88 277 OFFCURVE",
"90 279 CURVE",
"137 309 OFFCURVE",
"229 347 OFFCURVE",
"285 347 CURVE SMOOTH",
"322 347 OFFCURVE",
"339 330 OFFCURVE",
"338 309 CURVE SMOOTH",
"333 215 OFFCURVE",
"192 110 OFFCURVE",
"87 61 CURVE",
"65 53 OFFCURVE",
"19 37 OFFCURVE",
"16 18 CURVE SMOOTH",
"13 5 OFFCURVE",
"16 -12 OFFCURVE",
"24 -9 CURVE SMOOTH",
"63 6 OFFCURVE",
"123 15 OFFCURVE",
"171 23 CURVE SMOOTH",
"216 30 OFFCURVE",
"260 36 OFFCURVE",
"304 36 CURVE SMOOTH",
"333 36 OFFCURVE",
"357 27 OFFCURVE",
"357 6 CURVE SMOOTH",
"357 -3 OFFCURVE",
"354 -14 OFFCURVE",
"344 -27 CURVE",
"344 -27 OFFCURVE",
"343 -35 OFFCURVE",
"348 -35 CURVE SMOOTH",
"357 -35 OFFCURVE",
"382 4 OFFCURVE",
"382 33 CURVE SMOOTH",
"382 65 OFFCURVE",
"337 68 OFFCURVE",
"297 68 CURVE SMOOTH",
"235 68 OFFCURVE",
"143 53 OFFCURVE",
"104 40 CURVE",
"199 100 OFFCURVE",
"387 213 OFFCURVE",
"392 321 CURVE SMOOTH"
);
}
);
width = 410;
}
);
note = two;
unicode = 0032;
},
{
glyphname = three;
lastChange = "2021-03-03 20:55:47 +0000";
layers = (
{
background = {
paths = (
{
closed = 1;
nodes = (
"385 195 OFFCURVE",
"476 257 OFFCURVE",
"476 319 CURVE SMOOTH",
"476 365 OFFCURVE",
"443 379 OFFCURVE",
"401 379 CURVE SMOOTH",
"346 379 OFFCURVE",
"276 354 OFFCURVE",
"244 341 CURVE",
"248 346 OFFCURVE",
"255 351 OFFCURVE",
"255 358 CURVE SMOOTH",
"255 362 OFFCURVE",
"253 365 OFFCURVE",
"250 365 CURVE SMOOTH",
"244 365 OFFCURVE",
"192 321 OFFCURVE",
"180 315 CURVE SMOOTH",
"170 310 OFFCURVE",
"164 295 OFFCURVE",
"164 284 CURVE SMOOTH",
"164 279 OFFCURVE",
"166 275 OFFCURVE",
"170 275 CURVE SMOOTH",
"171 275 OFFCURVE",
"174 275 OFFCURVE",
"176 277 CURVE",
"221 307 OFFCURVE",
"311 345 OFFCURVE",
"367 345 CURVE SMOOTH",
"404 345 OFFCURVE",
"422 328 OFFCURVE",
"422 307 CURVE SMOOTH",
"422 213 OFFCURVE",
"274 183 OFFCURVE",
"193 183 CURVE SMOOTH",
"178 183 OFFCURVE",
"168 169 OFFCURVE",
"168 158 CURVE SMOOTH",
"168 150 OFFCURVE",
"173 143 OFFCURVE",
"184 143 CURVE SMOOTH",
"205 143 OFFCURVE",
"247 159 OFFCURVE",
"286 159 CURVE SMOOTH",
"376 159 OFFCURVE",
"405 113 OFFCURVE",
"405 58 CURVE SMOOTH",
"405 -65 OFFCURVE",
"279 -158 OFFCURVE",
"145 -158 CURVE SMOOTH",
"81 -158 OFFCURVE",
"40 -130 OFFCURVE",
"40 -71 CURVE SMOOTH",
"40 -5 OFFCURVE",
"106 36 OFFCURVE",
"158 36 CURVE SMOOTH",
"165 36 OFFCURVE",
"169 38 OFFCURVE",
"169 42 CURVE SMOOTH",
"169 46 OFFCURVE",
"166 51 OFFCURVE",
"158 51 CURVE SMOOTH",
"80 51 OFFCURVE",
"-3 4 OFFCURVE",
"-3 -76 CURVE SMOOTH",
"-3 -148 OFFCURVE",
"47 -180 OFFCURVE",
"134 -180 CURVE SMOOTH",
"306 -180 OFFCURVE",
"460 -62 OFFCURVE",
"460 72 CURVE SMOOTH",
"460 136 OFFCURVE",
"426 182 OFFCURVE",
"324 183 CURVE"
);
}
);
};
hints = (
{
horizontal = 1;
place = "{261, 18}";
type = Stem;
},
{
horizontal = 1;
place = "{353, 27}";
type = Stem;
},
{
horizontal = 1;
place = "{573, 39}";
type = Stem;
},
{
place = "{32, 72}";
type = Stem;
},
{
place = "{682, 63}";
type = Stem;
}
);
layerId = "3787E0F5-978F-4E40-B775-08CB0E3B1585";
paths = (
{
closed = 1;
nodes = (
"385 195 OFFCURVE",
"476 257 OFFCURVE",
"476 319 CURVE SMOOTH",
"476 365 OFFCURVE",
"443 379 OFFCURVE",
"401 379 CURVE SMOOTH",
"346 379 OFFCURVE",
"276 354 OFFCURVE",
"244 341 CURVE",
"248 346 OFFCURVE",
"255 351 OFFCURVE",
"255 358 CURVE SMOOTH",
"255 362 OFFCURVE",
"253 365 OFFCURVE",
"250 365 CURVE SMOOTH",
"244 365 OFFCURVE",
"192 321 OFFCURVE",
"180 315 CURVE SMOOTH",
"170 310 OFFCURVE",
"164 295 OFFCURVE",
"164 284 CURVE SMOOTH",
"164 279 OFFCURVE",
"166 275 OFFCURVE",
"170 275 CURVE SMOOTH",
"171 275 OFFCURVE",
"174 275 OFFCURVE",
"176 277 CURVE",
"221 307 OFFCURVE",
"311 345 OFFCURVE",
"367 345 CURVE SMOOTH",
"404 345 OFFCURVE",
"422 328 OFFCURVE",
"422 307 CURVE SMOOTH",
"422 213 OFFCURVE",
"274 183 OFFCURVE",
"193 183 CURVE SMOOTH",
"178 183 OFFCURVE",
"168 169 OFFCURVE",
"168 158 CURVE SMOOTH",
"168 150 OFFCURVE",
"173 143 OFFCURVE",
"184 143 CURVE SMOOTH",
"205 143 OFFCURVE",
"247 159 OFFCURVE",
"286 159 CURVE SMOOTH",
"376 159 OFFCURVE",
"405 113 OFFCURVE",
"405 58 CURVE SMOOTH",
"405 -65 OFFCURVE",
"279 -158 OFFCURVE",
"145 -158 CURVE SMOOTH",
"81 -158 OFFCURVE",
"40 -130 OFFCURVE",
"40 -71 CURVE SMOOTH",
"40 -5 OFFCURVE",
"106 36 OFFCURVE",
"158 36 CURVE SMOOTH",
"165 36 OFFCURVE",
"169 38 OFFCURVE",
"169 42 CURVE SMOOTH",
"169 46 OFFCURVE",
"166 51 OFFCURVE",
"158 51 CURVE SMOOTH",
"80 51 OFFCURVE",
"-3 4 OFFCURVE",
"-3 -76 CURVE SMOOTH",
"-3 -148 OFFCURVE",
"47 -180 OFFCURVE",
"134 -180 CURVE SMOOTH",
"306 -180 OFFCURVE",
"460 -62 OFFCURVE",
"460 72 CURVE SMOOTH",
"460 136 OFFCURVE",
"426 182 OFFCURVE",
"324 183 CURVE"
);
}
);
width = 490;
}
);
note = three;
unicode = 0033;
},
{
glyphname = four;
lastChange = "2021-03-03 20:55:47 +0000";
layers = (
{
background = {
paths = (
{
closed = 1;
nodes = (
"470 381 OFFCURVE",
"467 388 OFFCURVE",
"454 388 CURVE SMOOTH",
"448 388 OFFCURVE",
"443 388 OFFCURVE",
"438 387 CURVE SMOOTH",
"424 386 OFFCURVE",
"409 380 OFFCURVE",
"405 369 CURVE",
"401 363 OFFCURVE",
"397 359 OFFCURVE",
"394 353 CURVE",
"354 313 OFFCURVE",
"61 55 OFFCURVE",
"11 29 CURVE SMOOTH",
"0 23 OFFCURVE",
"1 -13 OFFCURVE",
"13 -9 CURVE SMOOTH",
"20 -6 OFFCURVE",
"52 5 OFFCURVE",
"64 7 CURVE SMOOTH",
"124 16 OFFCURVE",
"217 27 OFFCURVE",
"292 33 CURVE",
"233 -137 LINE SMOOTH",
"230 -146 OFFCURVE",
"229 -152 OFFCURVE",
"229 -158 CURVE SMOOTH",
"229 -171 OFFCURVE",
"237 -176 OFFCURVE",
"248 -176 CURVE SMOOTH",
"264 -176 OFFCURVE",
"283 -159 OFFCURVE",
"285 -146 CURVE SMOOTH",
"287 -130 OFFCURVE",
"301 -89 OFFCURVE",
"288 -84 CURVE",
"290 -75 OFFCURVE",
"310 -16 OFFCURVE",
"327 35 CURVE",
"339 35 OFFCURVE",
"351 36 OFFCURVE",
"361 36 CURVE SMOOTH",
"390 36 OFFCURVE",
"414 27 OFFCURVE",
"414 6 CURVE SMOOTH",
"414 -3 OFFCURVE",
"411 -14 OFFCURVE",
"401 -27 CURVE",
"401 -27 OFFCURVE",
"400 -35 OFFCURVE",
"405 -35 CURVE SMOOTH",
"414 -35 OFFCURVE",
"439 4 OFFCURVE",
"439 33 CURVE SMOOTH",
"439 65 OFFCURVE",
"394 68 OFFCURVE",
"354 68 CURVE SMOOTH",
"338 68 LINE",
"346 91 OFFCURVE",
"353 110 OFFCURVE",
"356 116 CURVE SMOOTH",
"400 232 OFFCURVE",
"443 329 OFFCURVE",
"465 370 CURVE SMOOTH"
);
},
{
closed = 1;
nodes = (
"74 45 OFFCURVE",
"71 45 OFFCURVE",
"68 45 CURVE",
"160 115 OFFCURVE",
"341 266 OFFCURVE",
"365 283 CURVE SMOOTH",
"379 292 OFFCURVE",
"380 282 OFFCURVE",
"373 262 CURVE SMOOTH",
"304 66 LINE",
"230 62 OFFCURVE",
"121 52 OFFCURVE",
"77 46 CURVE"
);
}
);
};
hints = (
{
horizontal = 1;
place = "{11, -20}";
target = down;
type = TopGhost;
},
{
horizontal = 1;
place = "{54, 25}";
type = Stem;
},
{
horizontal = 1;
place = "{236, 25}";
type = Stem;
},
{
horizontal = 1;
place = "{269, 33}";
type = Stem;
},
{
horizontal = 1;
place = "{286, 39}";
type = Stem;
},
{
horizontal = 1;
place = "{622, -20}";
target = down;
type = TopGhost;
},
{
horizontal = 1;
place = "{636, -20}";
target = down;
type = TopGhost;
},
{
horizontal = 1;
place = "{655, 19}";
type = Stem;
},
{
place = "{-14, 37}";
type = Stem;
},
{
place = "{470, 35}";
type = Stem;
},
{
place = "{629, 39}";
type = Stem;
}
);
layerId = "3787E0F5-978F-4E40-B775-08CB0E3B1585";
paths = (
{
closed = 1;
nodes = (
"470 381 OFFCURVE",
"467 388 OFFCURVE",
"454 388 CURVE SMOOTH",
"448 388 OFFCURVE",
"443 388 OFFCURVE",
"438 387 CURVE SMOOTH",
"424 386 OFFCURVE",
"409 380 OFFCURVE",
"405 369 CURVE",
"401 363 OFFCURVE",
"397 359 OFFCURVE",
"394 353 CURVE",
"354 313 OFFCURVE",
"61 55 OFFCURVE",
"11 29 CURVE SMOOTH",
"0 23 OFFCURVE",
"1 -13 OFFCURVE",
"13 -9 CURVE SMOOTH",
"20 -6 OFFCURVE",
"52 5 OFFCURVE",
"64 7 CURVE SMOOTH",
"124 16 OFFCURVE",
"217 27 OFFCURVE",
"292 33 CURVE",
"233 -137 LINE SMOOTH",
"230 -146 OFFCURVE",
"229 -152 OFFCURVE",
"229 -158 CURVE SMOOTH",
"229 -171 OFFCURVE",
"237 -176 OFFCURVE",
"248 -176 CURVE SMOOTH",
"264 -176 OFFCURVE",
"283 -159 OFFCURVE",
"285 -146 CURVE SMOOTH",
"287 -130 OFFCURVE",
"301 -89 OFFCURVE",
"288 -84 CURVE",
"290 -75 OFFCURVE",
"310 -16 OFFCURVE",
"327 35 CURVE",
"339 35 OFFCURVE",
"351 36 OFFCURVE",
"361 36 CURVE SMOOTH",
"390 36 OFFCURVE",
"414 27 OFFCURVE",
"414 6 CURVE SMOOTH",
"414 -3 OFFCURVE",
"411 -14 OFFCURVE",
"401 -27 CURVE",
"401 -27 OFFCURVE",
"400 -35 OFFCURVE",
"405 -35 CURVE SMOOTH",
"414 -35 OFFCURVE",
"439 4 OFFCURVE",
"439 33 CURVE SMOOTH",
"439 65 OFFCURVE",
"394 68 OFFCURVE",
"354 68 CURVE SMOOTH",
"338 68 LINE",
"346 91 OFFCURVE",
"353 110 OFFCURVE",
"356 116 CURVE SMOOTH",
"400 232 OFFCURVE",
"443 329 OFFCURVE",
"465 370 CURVE SMOOTH"
);
},
{
closed = 1;
nodes = (
"74 45 OFFCURVE",
"71 45 OFFCURVE",
"68 45 CURVE",
"160 115 OFFCURVE",
"341 266 OFFCURVE",
"365 283 CURVE SMOOTH",
"379 292 OFFCURVE",
"380 282 OFFCURVE",
"373 262 CURVE SMOOTH",
"304 66 LINE",
"230 62 OFFCURVE",
"121 52 OFFCURVE",
"77 46 CURVE"
);
}
);
width = 442;
}
);
note = four;
unicode = 0034;
},
{
color = 9;
glyphname = five;
lastChange = "2021-03-03 20:55:47 +0000";
layers = (
{
background = {
paths = (
{
closed = 1;
nodes = (
"231 328 OFFCURVE",
"229 310 OFFCURVE",
"234 308 CURVE",
"220 274 OFFCURVE",
"198 208 OFFCURVE",
"181 171 CURVE",
"173 168 OFFCURVE",
"168 163 OFFCURVE",
"168 158 CURVE SMOOTH",
"168 150 OFFCURVE",
"174 138 OFFCURVE",
"184 143 CURVE SMOOTH",
"208 154 OFFCURVE",
"246 165 OFFCURVE",
"285 165 CURVE SMOOTH",
"375 165 OFFCURVE",
"405 113 OFFCURVE",
"405 58 CURVE SMOOTH",
"405 -65 OFFCURVE",
"306 -138 OFFCURVE",
"182 -138 CURVE SMOOTH",
"24 -138 OFFCURVE",
"63 40 OFFCURVE",
"184 40 CURVE SMOOTH",
"190 40 OFFCURVE",
"194 42 OFFCURVE",
"194 45 CURVE SMOOTH",
"194 49 OFFCURVE",
"191 54 OFFCURVE",
"184 54 CURVE SMOOTH",
"18 54 OFFCURVE",
"-31 -159 OFFCURVE",
"172 -159 CURVE SMOOTH",
"331 -159 OFFCURVE",
"460 -62 OFFCURVE",
"460 72 CURVE SMOOTH",
"460 169 OFFCURVE",
"376 188 OFFCURVE",
"278 188 CURVE SMOOTH",
"251 188 OFFCURVE",
"232 182 OFFCURVE",
"220 175 CURVE",
"235 213 OFFCURVE",
"261 275 OFFCURVE",
"290 327 CURVE",
"343 339 OFFCURVE",
"407 344 OFFCURVE",
"459 344 CURVE SMOOTH",
"488 344 OFFCURVE",
"520 339 OFFCURVE",
"520 318 CURVE SMOOTH",
"520 309 OFFCURVE",
"517 298 OFFCURVE",
"507 285 CURVE",
"507 285 OFFCURVE",
"506 277 OFFCURVE",
"511 277 CURVE SMOOTH",
"520 277 OFFCURVE",
"545 316 OFFCURVE",
"545 345 CURVE SMOOTH",
"545 377 OFFCURVE",
"500 380 OFFCURVE",
"460 380 CURVE SMOOTH",
"433 380 OFFCURVE",
"355 377 OFFCURVE",
"292 364 CURVE SMOOTH",
"259 358 OFFCURVE",
"236 353 OFFCURVE",
"234 339 CURVE SMOOTH"
);
}
);
};
hints = (
{
horizontal = 1;
place = "{-8, 30}";
type = Stem;
},
{
horizontal = 1;
place = "{261, 18}";
type = Stem;
},
{
horizontal = 1;
place = "{353, 27}";
type = Stem;
},
{
horizontal = 1;
place = "{418, 27}";
type = Stem;
},
{
horizontal = 1;
place = "{554, 25}";
type = Stem;
},
{
horizontal = 1;
place = "{573, 39}";
type = Stem;
},
{
horizontal = 1;
place = "{647, -20}";
target = down;
type = TopGhost;
},
{
place = "{-33, 45}";
type = Stem;
},
{
place = "{32, 72}";
type = Stem;
},
{
place = "{559, 74}";
type = Stem;
},
{
place = "{682, 63}";
type = Stem;
},
{
place = "{770, 24}";
type = Stem;
}
);
layerId = "3787E0F5-978F-4E40-B775-08CB0E3B1585";
paths = (
{
closed = 1;
nodes = (
"231 328 OFFCURVE",
"229 310 OFFCURVE",
"234 308 CURVE",
"220 274 OFFCURVE",
"198 208 OFFCURVE",
"181 171 CURVE",
"173 168 OFFCURVE",
"168 163 OFFCURVE",
"168 158 CURVE SMOOTH",
"168 150 OFFCURVE",
"174 138 OFFCURVE",
"184 143 CURVE SMOOTH",
"208 154 OFFCURVE",
"246 165 OFFCURVE",
"285 165 CURVE SMOOTH",
"375 165 OFFCURVE",
"405 113 OFFCURVE",
"405 58 CURVE SMOOTH",
"405 -65 OFFCURVE",
"306 -138 OFFCURVE",
"182 -138 CURVE SMOOTH",
"24 -138 OFFCURVE",
"63 40 OFFCURVE",
"184 40 CURVE SMOOTH",
"190 40 OFFCURVE",
"194 42 OFFCURVE",
"194 45 CURVE SMOOTH",
"194 49 OFFCURVE",
"191 54 OFFCURVE",
"184 54 CURVE SMOOTH",
"18 54 OFFCURVE",
"-31 -159 OFFCURVE",
"172 -159 CURVE SMOOTH",
"331 -159 OFFCURVE",
"460 -62 OFFCURVE",
"460 72 CURVE SMOOTH",
"460 169 OFFCURVE",
"376 188 OFFCURVE",
"278 188 CURVE SMOOTH",
"251 188 OFFCURVE",
"232 182 OFFCURVE",
"220 175 CURVE",
"235 213 OFFCURVE",
"261 275 OFFCURVE",
"290 327 CURVE",
"343 339 OFFCURVE",
"407 344 OFFCURVE",
"459 344 CURVE SMOOTH",
"488 344 OFFCURVE",
"520 339 OFFCURVE",
"520 318 CURVE SMOOTH",
"520 309 OFFCURVE",
"517 298 OFFCURVE",
"507 285 CURVE",
"507 285 OFFCURVE",
"506 277 OFFCURVE",
"511 277 CURVE SMOOTH",
"520 277 OFFCURVE",
"545 316 OFFCURVE",
"545 345 CURVE SMOOTH",
"545 377 OFFCURVE",
"500 380 OFFCURVE",
"460 380 CURVE SMOOTH",
"433 380 OFFCURVE",
"355 377 OFFCURVE",
"292 364 CURVE SMOOTH",
"259 358 OFFCURVE",
"236 353 OFFCURVE",
"234 339 CURVE SMOOTH"
);
}
);
width = 490;
}
);
note = five;
unicode = 0035;
},
{
color = 9;
glyphname = six;
lastChange = "2021-03-03 20:55:47 +0000";
layers = (
{
background = {
paths = (
{
closed = 1;
nodes = (
"336 490 OFFCURVE",
"61 285 OFFCURVE",
"53 98 CURVE SMOOTH",
"50 27 OFFCURVE",
"98 4 OFFCURVE",
"150 4 CURVE SMOOTH",
"290 4 OFFCURVE",
"487 115 OFFCURVE",
"508 258 CURVE SMOOTH",
"516 323 OFFCURVE",
"483 348 OFFCURVE",
"441 349 CURVE SMOOTH",
"302 353 OFFCURVE",
"172 175 OFFCURVE",
"175 61 CURVE SMOOTH",
"175 43 OFFCURVE",
"194 41 OFFCURVE",
"196 62 CURVE SMOOTH",
"206 171 OFFCURVE",
"324 331 OFFCURVE",
"435 319 CURVE SMOOTH",
"478 315 OFFCURVE",
"476 250 OFFCURVE",
"441 197 CURVE SMOOTH",
"379 104 OFFCURVE",
"277 30 OFFCURVE",
"166 30 CURVE SMOOTH",
"130 30 OFFCURVE",
"97 53 OFFCURVE",
"99 102 CURVE SMOOTH",
"104 248 OFFCURVE",
"272 405 OFFCURVE",
"431 500 CURVE",
"457 512 OFFCURVE",
"516 549 OFFCURVE",
"522 567 CURVE SMOOTH",
"528 586 OFFCURVE",
"532 616 OFFCURVE",
"493 591 CURVE SMOOTH"
);
}
);
};
hints = (
{
horizontal = 1;
place = "{-19, 26}";
type = Stem;
},
{
horizontal = 1;
place = "{212, 35}";
type = Stem;
},
{
place = "{50, 36}";
type = Stem;
},
{
place = "{535, 59}";
type = Stem;
}
);
layerId = "3787E0F5-978F-4E40-B775-08CB0E3B1585";
paths = (
{
closed = 1;
nodes = (
"336 490 OFFCURVE",
"61 285 OFFCURVE",
"53 98 CURVE SMOOTH",
"50 27 OFFCURVE",
"98 4 OFFCURVE",
"150 4 CURVE SMOOTH",
"290 4 OFFCURVE",
"487 115 OFFCURVE",
"508 258 CURVE SMOOTH",
"516 323 OFFCURVE",
"483 348 OFFCURVE",
"441 349 CURVE SMOOTH",
"302 353 OFFCURVE",
"172 175 OFFCURVE",
"175 61 CURVE SMOOTH",
"175 43 OFFCURVE",
"194 41 OFFCURVE",
"196 62 CURVE SMOOTH",
"206 171 OFFCURVE",
"324 331 OFFCURVE",
"435 319 CURVE SMOOTH",
"478 315 OFFCURVE",
"476 250 OFFCURVE",
"441 197 CURVE SMOOTH",
"379 104 OFFCURVE",
"277 30 OFFCURVE",
"166 30 CURVE SMOOTH",
"130 30 OFFCURVE",
"97 53 OFFCURVE",
"99 102 CURVE SMOOTH",
"104 248 OFFCURVE",
"272 405 OFFCURVE",
"431 500 CURVE",
"457 512 OFFCURVE",
"516 549 OFFCURVE",
"522 567 CURVE SMOOTH",
"528 586 OFFCURVE",
"532 616 OFFCURVE",
"493 591 CURVE SMOOTH"
);
}
);
width = 563;
}
);
note = six;
unicode = 0036;
},
{
glyphname = seven;
lastChange = "2021-03-03 20:55:47 +0000";
layers = (
{
background = {
paths = (
{
closed = 1;
nodes = (
"212 131 OFFCURVE",
"285 215 OFFCURVE",
"443 345 CURVE",
"445 346 OFFCURVE",
"445 348 OFFCURVE",
"445 351 CURVE SMOOTH",
"444 361 OFFCURVE",
"423 379 OFFCURVE",
"411 379 CURVE SMOOTH",
"403 379 OFFCURVE",
"388 365 OFFCURVE",
"378 357 CURVE",
"350 362 OFFCURVE",
"242 374 OFFCURVE",
"173 374 CURVE SMOOTH",
"117 374 OFFCURVE",
"78 351 OFFCURVE",
"57 317 CURVE",
"66 345 OFFCURVE",
"81 382 OFFCURVE",
"69 381 CURVE SMOOTH",
"55 380 OFFCURVE",
"35 323 OFFCURVE",
"33 316 CURVE SMOOTH",
"25 293 OFFCURVE",
"17 274 OFFCURVE",
"17 253 CURVE SMOOTH",
"17 241 OFFCURVE",
"26 233 OFFCURVE",
"36 233 CURVE SMOOTH",
"45 233 OFFCURVE",
"54 239 OFFCURVE",
"58 250 CURVE SMOOTH",
"85 332 OFFCURVE",
"152 343 OFFCURVE",
"194 343 CURVE SMOOTH",
"263 343 OFFCURVE",
"318 341 OFFCURVE",
"363 336 CURVE",
"244 228 OFFCURVE",
"172 143 OFFCURVE",
"118 71 CURVE SMOOTH",
"78 16 OFFCURVE",
"27 -79 OFFCURVE",
"27 -150 CURVE SMOOTH",
"27 -163 OFFCURVE",
"27 -180 OFFCURVE",
"42 -180 CURVE SMOOTH",
"47 -180 OFFCURVE",
"52 -177 OFFCURVE",
"52 -172 CURVE SMOOTH",
"52 -167 OFFCURVE",
"51 -162 OFFCURVE",
"51 -157 CURVE SMOOTH",
"51 -92 OFFCURVE",
"109 11 OFFCURVE",
"149 58 CURVE SMOOTH"
);
}
);
};
hints = (
{
horizontal = 1;
place = "{-15, 20}";
type = Stem;
},
{
horizontal = 1;
place = "{600, 44}";
type = Stem;
},
{
place = "{121, 29}";
type = Stem;
}
);
layerId = "3787E0F5-978F-4E40-B775-08CB0E3B1585";
paths = (
{
closed = 1;
nodes = (
"212 131 OFFCURVE",
"285 215 OFFCURVE",
"443 345 CURVE",
"445 346 OFFCURVE",
"445 348 OFFCURVE",
"445 351 CURVE SMOOTH",
"444 361 OFFCURVE",
"423 379 OFFCURVE",
"411 379 CURVE SMOOTH",
"403 379 OFFCURVE",
"388 365 OFFCURVE",
"378 357 CURVE",
"350 362 OFFCURVE",
"242 374 OFFCURVE",
"173 374 CURVE SMOOTH",
"117 374 OFFCURVE",
"78 351 OFFCURVE",
"57 317 CURVE",
"66 345 OFFCURVE",
"81 382 OFFCURVE",
"69 381 CURVE SMOOTH",
"55 380 OFFCURVE",
"35 323 OFFCURVE",
"33 316 CURVE SMOOTH",
"25 293 OFFCURVE",
"17 274 OFFCURVE",
"17 253 CURVE SMOOTH",
"17 241 OFFCURVE",
"26 233 OFFCURVE",
"36 233 CURVE SMOOTH",
"45 233 OFFCURVE",
"54 239 OFFCURVE",
"58 250 CURVE SMOOTH",
"85 332 OFFCURVE",
"152 343 OFFCURVE",
"194 343 CURVE SMOOTH",
"263 343 OFFCURVE",
"318 341 OFFCURVE",
"363 336 CURVE",
"244 228 OFFCURVE",
"172 143 OFFCURVE",
"118 71 CURVE SMOOTH",
"78 16 OFFCURVE",
"27 -79 OFFCURVE",
"27 -150 CURVE SMOOTH",
"27 -163 OFFCURVE",
"27 -180 OFFCURVE",
"42 -180 CURVE SMOOTH",
"47 -180 OFFCURVE",
"52 -177 OFFCURVE",
"52 -172 CURVE SMOOTH",
"52 -167 OFFCURVE",
"51 -162 OFFCURVE",
"51 -157 CURVE SMOOTH",
"51 -92 OFFCURVE",
"109 11 OFFCURVE",
"149 58 CURVE SMOOTH"
);
}
);
width = 420;
}
);
note = seven;
unicode = 0037;
},
{
color = 9;
glyphname = eight;
lastChange = "2021-03-03 20:55:47 +0000";
layers = (
{
background = {
paths = (
{
closed = 1;
nodes = (
"196 484 OFFCURVE",
"266 505 OFFCURVE",
"319 507 CURVE SMOOTH",
"364 510 OFFCURVE",
"420 484 OFFCURVE",
"404 430 CURVE",
"402 426 OFFCURVE",
"401 424 OFFCURVE",
"401 421 CURVE",
"399 416 OFFCURVE",
"400 415 OFFCURVE",
"405 414 CURVE SMOOTH",
"415 413 OFFCURVE",
"426 429 OFFCURVE",
"427 434 CURVE SMOOTH",
"445 508 OFFCURVE",
"403 533 OFFCURVE",
"339 533 CURVE SMOOTH",
"249 533 OFFCURVE",
"158 481 OFFCURVE",
"142 401 CURVE SMOOTH",
"130 337 OFFCURVE",
"169 297 OFFCURVE",
"216 262 CURVE",
"199 253 OFFCURVE",
"184 244 OFFCURVE",
"170 235 CURVE SMOOTH",
"114 197 OFFCURVE",
"32 133 OFFCURVE",
"32 71 CURVE SMOOTH",
"32 -47 OFFCURVE",
"178 -34 OFFCURVE",
"283 20 CURVE SMOOTH",
"341 50 OFFCURVE",
"383 95 OFFCURVE",
"389 131 CURVE SMOOTH",
"400 194 OFFCURVE",
"337 231 OFFCURVE",
"277 274 CURVE",
"381 332 OFFCURVE",
"485 383 OFFCURVE",
"506 501 CURVE SMOOTH",
"515 551 OFFCURVE",
"471 547 OFFCURVE",
"471 507 CURVE SMOOTH",
"471 409 OFFCURVE",
"359 343 OFFCURVE",
"259 287 CURVE",
"213 321 OFFCURVE",
"171 360 OFFCURVE",
"184 421 CURVE SMOOTH"
);
},
{
closed = 1;
nodes = (
"316 8 OFFCURVE",
"59 -38 OFFCURVE",
"77 78 CURVE SMOOTH",
"80 105 OFFCURVE",
"110 151 OFFCURVE",
"146 184 CURVE SMOOTH",
"172 209 OFFCURVE",
"203 230 OFFCURVE",
"234 249 CURVE",
"289 210 OFFCURVE",
"346 176 OFFCURVE",
"336 118 CURVE SMOOTH"
);
}
);
};
hints = (
{
horizontal = 1;
place = "{-18, 19}";
type = Stem;
},
{
horizontal = 1;
place = "{600, 30}";
type = Stem;
},
{
place = "{532, 57}";
type = Stem;
}
);
layerId = "3787E0F5-978F-4E40-B775-08CB0E3B1585";
paths = (
{
closed = 1;
nodes = (
"196 484 OFFCURVE",
"266 505 OFFCURVE",
"319 507 CURVE SMOOTH",
"364 510 OFFCURVE",
"420 484 OFFCURVE",
"404 430 CURVE",
"402 426 OFFCURVE",
"401 424 OFFCURVE",
"401 421 CURVE",
"399 416 OFFCURVE",
"400 415 OFFCURVE",
"405 414 CURVE SMOOTH",
"415 413 OFFCURVE",
"426 429 OFFCURVE",
"427 434 CURVE SMOOTH",
"445 508 OFFCURVE",
"403 533 OFFCURVE",
"339 533 CURVE SMOOTH",
"249 533 OFFCURVE",
"158 481 OFFCURVE",
"142 401 CURVE SMOOTH",
"130 337 OFFCURVE",
"169 297 OFFCURVE",
"216 262 CURVE",
"199 253 OFFCURVE",
"184 244 OFFCURVE",
"170 235 CURVE SMOOTH",
"114 197 OFFCURVE",
"32 133 OFFCURVE",
"32 71 CURVE SMOOTH",
"32 -47 OFFCURVE",
"178 -34 OFFCURVE",
"283 20 CURVE SMOOTH",
"341 50 OFFCURVE",
"383 95 OFFCURVE",
"389 131 CURVE SMOOTH",
"400 194 OFFCURVE",
"337 231 OFFCURVE",
"277 274 CURVE",
"381 332 OFFCURVE",
"485 383 OFFCURVE",
"506 501 CURVE SMOOTH",
"515 551 OFFCURVE",
"471 547 OFFCURVE",
"471 507 CURVE SMOOTH",
"471 409 OFFCURVE",
"359 343 OFFCURVE",
"259 287 CURVE",
"213 321 OFFCURVE",
"171 360 OFFCURVE",
"184 421 CURVE SMOOTH"
);
},
{
closed = 1;
nodes = (
"316 8 OFFCURVE",
"59 -38 OFFCURVE",
"77 78 CURVE SMOOTH",
"80 105 OFFCURVE",
"110 151 OFFCURVE",
"146 184 CURVE SMOOTH",
"172 209 OFFCURVE",
"203 230 OFFCURVE",
"234 249 CURVE",
"289 210 OFFCURVE",
"346 176 OFFCURVE",
"336 118 CURVE SMOOTH"
);
}
);
width = 410;
}
);
note = eight;
unicode = 0038;
},
{
color = 9;
glyphname = nine;
lastChange = "2021-03-03 20:55:47 +0000";
layers = (
{
background = {
paths = (
{
closed = 1;
nodes = (
"235 546 OFFCURVE",
"66 443 OFFCURVE",
"66 304 CURVE SMOOTH",
"66 247 OFFCURVE",
"97 228 OFFCURVE",
"131 225 CURVE SMOOTH",
"269 209 OFFCURVE",
"421 355 OFFCURVE",
"420 469 CURVE SMOOTH",
"421 487 OFFCURVE",
"402 490 OFFCURVE",
"400 469 CURVE SMOOTH",
"387 362 OFFCURVE",
"247 233 OFFCURVE",
"138 255 CURVE SMOOTH",
"117 259 OFFCURVE",
"107 276 OFFCURVE",
"107 300 CURVE SMOOTH",
"107 434 OFFCURVE",
"281 521 OFFCURVE",
"370 521 CURVE SMOOTH",
"423 521 OFFCURVE",
"462 506 OFFCURVE",
"462 446 CURVE SMOOTH",
"462 274 OFFCURVE",
"276 122 OFFCURVE",
"129 32 CURVE",
"120 28 OFFCURVE",
"114 33 OFFCURVE",
"104 28 CURVE SMOOTH",
"85 18 OFFCURVE",
"55 -3 OFFCURVE",
"48 -13 CURVE SMOOTH",
"37 -29 OFFCURVE",
"44 -62 OFFCURVE",
"83 -37 CURVE SMOOTH",
"240 64 OFFCURVE",
"495 235 OFFCURVE",
"495 447 CURVE SMOOTH",
"495 509 OFFCURVE",
"469 546 OFFCURVE",
"373 546 CURVE SMOOTH"
);
}
);
};
hints = (
{
horizontal = 1;
place = "{583, 43}";
type = Stem;
},
{
place = "{75, 47}";
type = Stem;
}
);
layerId = "3787E0F5-978F-4E40-B775-08CB0E3B1585";
paths = (
{
closed = 1;
nodes = (
"235 546 OFFCURVE",
"66 443 OFFCURVE",
"66 304 CURVE SMOOTH",
"66 247 OFFCURVE",
"97 228 OFFCURVE",
"131 225 CURVE SMOOTH",
"269 209 OFFCURVE",
"421 355 OFFCURVE",
"420 469 CURVE SMOOTH",
"421 487 OFFCURVE",
"402 490 OFFCURVE",
"400 469 CURVE SMOOTH",
"387 362 OFFCURVE",
"247 233 OFFCURVE",
"138 255 CURVE SMOOTH",
"117 259 OFFCURVE",
"107 276 OFFCURVE",
"107 300 CURVE SMOOTH",
"107 434 OFFCURVE",
"281 521 OFFCURVE",
"370 521 CURVE SMOOTH",
"423 521 OFFCURVE",
"462 506 OFFCURVE",
"462 446 CURVE SMOOTH",
"462 274 OFFCURVE",
"276 122 OFFCURVE",
"129 32 CURVE",
"120 28 OFFCURVE",
"114 33 OFFCURVE",
"104 28 CURVE SMOOTH",
"85 18 OFFCURVE",
"55 -3 OFFCURVE",
"48 -13 CURVE SMOOTH",
"37 -29 OFFCURVE",
"44 -62 OFFCURVE",
"83 -37 CURVE SMOOTH",
"240 64 OFFCURVE",
"495 235 OFFCURVE",
"495 447 CURVE SMOOTH",
"495 509 OFFCURVE",
"469 546 OFFCURVE",
"373 546 CURVE SMOOTH"
);
}
);
width = 512;
}
);
note = nine;
unicode = 0039;
},
{
glyphname = colon;
lastChange = "2021-03-03 20:55:47 +0000";
layers = (
{
background = {
paths = (
{
closed = 1;
nodes = (
"199 359 LINE SMOOTH",
"198 360 OFFCURVE",
"196 361 OFFCURVE",
"193 361 CURVE SMOOTH",
"175 361 OFFCURVE",
"132 335 OFFCURVE",
"132 308 CURVE SMOOTH",
"132 295 OFFCURVE",
"132 268 OFFCURVE",
"151 268 CURVE SMOOTH",
"186 268 OFFCURVE",
"186 289 OFFCURVE",
"200 357 CURVE"
);
},
{
closed = 1;
nodes = (
"157 153 LINE SMOOTH",
"156 154 OFFCURVE",
"153 155 OFFCURVE",
"150 155 CURVE SMOOTH",
"132 155 OFFCURVE",
"90 130 OFFCURVE",
"90 103 CURVE SMOOTH",
"90 90 OFFCURVE",
"90 63 OFFCURVE",
"109 63 CURVE SMOOTH",
"144 63 OFFCURVE",
"144 84 OFFCURVE",
"158 152 CURVE"
);
}
);
};
hints = (
{
place = "{91, 53}";
type = Stem;
}
);
layerId = "3787E0F5-978F-4E40-B775-08CB0E3B1585";
paths = (
{
closed = 1;
nodes = (
"199 359 LINE SMOOTH",
"198 360 OFFCURVE",
"196 361 OFFCURVE",
"193 361 CURVE SMOOTH",
"175 361 OFFCURVE",
"132 335 OFFCURVE",
"132 308 CURVE SMOOTH",
"132 295 OFFCURVE",
"132 268 OFFCURVE",
"151 268 CURVE SMOOTH",
"186 268 OFFCURVE",
"186 289 OFFCURVE",
"200 357 CURVE"
);
},
{
closed = 1;
nodes = (
"157 153 LINE SMOOTH",
"156 154 OFFCURVE",
"153 155 OFFCURVE",
"150 155 CURVE SMOOTH",
"132 155 OFFCURVE",
"90 130 OFFCURVE",
"90 103 CURVE SMOOTH",
"90 90 OFFCURVE",
"90 63 OFFCURVE",
"109 63 CURVE SMOOTH",
"144 63 OFFCURVE",
"144 84 OFFCURVE",
"158 152 CURVE"
);
}
);
width = 202;
}
);
note = colon;
unicode = 003A;
},
{
color = 9;
glyphname = semicolon;
lastChange = "2021-03-03 20:55:47 +0000";
layers = (
{
background = {
paths = (
{
closed = 1;
nodes = (
"212 256 LINE",
"211 258 OFFCURVE",
"208 259 OFFCURVE",
"205 259 CURVE SMOOTH",
"180 259 OFFCURVE",
"146 227 OFFCURVE",
"146 199 CURVE SMOOTH",
"146 183 OFFCURVE",
"147 166 OFFCURVE",
"166 166 CURVE",
"202 175 OFFCURVE",
"198 188 OFFCURVE",
"212 255 CURVE SMOOTH"
);
},
{
closed = 1;
nodes = (
"159 72 OFFCURVE",
"154 74 OFFCURVE",
"148 74 CURVE SMOOTH",
"131 74 OFFCURVE",
"106 52 OFFCURVE",
"106 52 CURVE",
"104 51 LINE",
"94 43 OFFCURVE",
"88 31 OFFCURVE",
"88 20 CURVE SMOOTH",
"88 5 OFFCURVE",
"102 -5 OFFCURVE",
"102 -18 CURVE SMOOTH",
"102 -47 OFFCURVE",
"52 -100 OFFCURVE",
"28 -136 CURVE",
"28 -137 LINE SMOOTH",
"28 -142 OFFCURVE",
"31 -144 OFFCURVE",
"36 -144 CURVE SMOOTH",
"60 -144 OFFCURVE",
"126 -99 OFFCURVE",
"159 8 CURVE SMOOTH",
"162 18 OFFCURVE",
"169 20 OFFCURVE",
"169 33 CURVE SMOOTH",
"169 40 OFFCURVE",
"167 50 OFFCURVE",
"162 66 CURVE"
);
}
);
};
hints = (
{
place = "{145, 53}";
type = Stem;
}
);
layerId = "3787E0F5-978F-4E40-B775-08CB0E3B1585";
paths = (
{
closed = 1;
nodes = (
"212 256 LINE",
"211 258 OFFCURVE",
"208 259 OFFCURVE",
"205 259 CURVE SMOOTH",
"180 259 OFFCURVE",
"146 227 OFFCURVE",
"146 199 CURVE SMOOTH",
"146 183 OFFCURVE",
"147 166 OFFCURVE",
"166 166 CURVE",
"202 175 OFFCURVE",
"198 188 OFFCURVE",
"212 255 CURVE SMOOTH"
);
},
{
closed = 1;
nodes = (
"159 72 OFFCURVE",
"154 74 OFFCURVE",
"148 74 CURVE SMOOTH",
"131 74 OFFCURVE",
"106 52 OFFCURVE",
"106 52 CURVE",
"104 51 LINE",
"94 43 OFFCURVE",
"88 31 OFFCURVE",
"88 20 CURVE SMOOTH",
"88 5 OFFCURVE",
"102 -5 OFFCURVE",
"102 -18 CURVE SMOOTH",
"102 -47 OFFCURVE",
"52 -100 OFFCURVE",
"28 -136 CURVE",
"28 -137 LINE SMOOTH",
"28 -142 OFFCURVE",
"31 -144 OFFCURVE",
"36 -144 CURVE SMOOTH",
"60 -144 OFFCURVE",
"126 -99 OFFCURVE",
"159 8 CURVE SMOOTH",
"162 18 OFFCURVE",
"169 20 OFFCURVE",
"169 33 CURVE SMOOTH",
"169 40 OFFCURVE",
"167 50 OFFCURVE",
"162 66 CURVE"
);
}
);
width = 202;
}
);
note = semicolon;
unicode = 003B;
},
{
glyphname = less;
lastChange = "2021-03-03 20:55:47 +0000";
layers = (
{
background = {
paths = (
{
closed = 1;
nodes = (
"85 254 OFFCURVE",
"86 252 OFFCURVE",
"88 250 CURVE",
"133 218 OFFCURVE",
"176 185 OFFCURVE",
"209 140 CURVE",
"217 136 LINE",
"226 136 OFFCURVE",
"227 142 OFFCURVE",
"227 149 CURVE SMOOTH",
"227 167 OFFCURVE",
"145 264 OFFCURVE",
"130 283 CURVE",
"143 301 OFFCURVE",
"229 426 OFFCURVE",
"229 436 CURVE SMOOTH",
"229 440 OFFCURVE",
"226 442 OFFCURVE",
"222 442 CURVE SMOOTH",
"215 442 OFFCURVE",
"207 438 OFFCURVE",
"203 431 CURVE SMOOTH",
"184 403 OFFCURVE",
"85 277 OFFCURVE",
"85 256 CURVE SMOOTH"
);
}
);
};
hints = (
{
place = "{85, 45}";
type = Stem;
}
);
layerId = "3787E0F5-978F-4E40-B775-08CB0E3B1585";
paths = (
{
closed = 1;
nodes = (
"85 254 OFFCURVE",
"86 252 OFFCURVE",
"88 250 CURVE",
"133 218 OFFCURVE",
"176 185 OFFCURVE",
"209 140 CURVE",
"217 136 LINE",
"226 136 OFFCURVE",
"227 142 OFFCURVE",
"227 149 CURVE SMOOTH",
"227 167 OFFCURVE",
"145 264 OFFCURVE",
"130 283 CURVE",
"143 301 OFFCURVE",
"229 426 OFFCURVE",
"229 436 CURVE SMOOTH",
"229 440 OFFCURVE",
"226 442 OFFCURVE",
"222 442 CURVE SMOOTH",
"215 442 OFFCURVE",
"207 438 OFFCURVE",
"203 431 CURVE SMOOTH",
"184 403 OFFCURVE",
"85 277 OFFCURVE",
"85 256 CURVE SMOOTH"
);
}
);
width = 318;
}
);
note = less;
unicode = 003C;
},
{
glyphname = equal;
lastChange = "2021-03-03 20:55:47 +0000";
layers = (
{
background = {
paths = (
{
closed = 1;
nodes = (
"262 151 OFFCURVE",
"252 151 OFFCURVE",
"242 151 CURVE SMOOTH",
"209 151 OFFCURVE",
"184 153 OFFCURVE",
"158 155 CURVE",
"161 158 OFFCURVE",
"163 162 OFFCURVE",
"163 166 CURVE SMOOTH",
"163 169 OFFCURVE",
"161 171 OFFCURVE",
"156 171 CURVE SMOOTH",
"157 171 OFFCURVE",
"107 163 OFFCURVE",
"107 132 CURVE SMOOTH",
"107 124 OFFCURVE",
"114 119 OFFCURVE",
"122 119 CURVE SMOOTH",
"125 119 OFFCURVE",
"128 120 OFFCURVE",
"131 120 CURVE SMOOTH",
"137 120 OFFCURVE",
"144 119 OFFCURVE",
"151 119 CURVE SMOOTH",
"221 119 OFFCURVE",
"343 134 OFFCURVE",
"343 148 CURVE SMOOTH",
"343 152 OFFCURVE",
"337 154 OFFCURVE",
"325 154 CURVE SMOOTH",
"310 153 OFFCURVE",
"274 152 OFFCURVE",
"274 152 CURVE"
);
},
{
closed = 1;
nodes = (
"266 233 OFFCURVE",
"256 233 OFFCURVE",
"246 233 CURVE SMOOTH",
"213 233 OFFCURVE",
"188 235 OFFCURVE",
"162 237 CURVE",
"165 240 OFFCURVE",
"167 244 OFFCURVE",
"167 248 CURVE SMOOTH",
"167 251 OFFCURVE",
"165 253 OFFCURVE",
"160 253 CURVE SMOOTH",
"161 253 OFFCURVE",
"111 245 OFFCURVE",
"111 214 CURVE SMOOTH",
"111 206 OFFCURVE",
"118 201 OFFCURVE",
"126 201 CURVE SMOOTH",
"129 201 OFFCURVE",
"132 202 OFFCURVE",
"135 202 CURVE SMOOTH",
"141 202 OFFCURVE",
"148 201 OFFCURVE",
"155 201 CURVE SMOOTH",
"225 201 OFFCURVE",
"347 216 OFFCURVE",
"347 230 CURVE SMOOTH",
"347 234 OFFCURVE",
"341 236 OFFCURVE",
"329 236 CURVE SMOOTH",
"314 235 OFFCURVE",
"278 234 OFFCURVE",
"278 234 CURVE"
);
}
);
};
hints = (
{
horizontal = 1;
place = "{122, 35}";
type = Stem;
},
{
horizontal = 1;
place = "{202, 35}";
type = Stem;
},
{
horizontal = 1;
place = "{120, 47}";
type = Stem;
}
);
layerId = "3787E0F5-978F-4E40-B775-08CB0E3B1585";
paths = (
{
closed = 1;
nodes = (
"262 151 OFFCURVE",
"252 151 OFFCURVE",
"242 151 CURVE SMOOTH",
"209 151 OFFCURVE",
"184 153 OFFCURVE",
"158 155 CURVE",
"161 158 OFFCURVE",
"163 162 OFFCURVE",
"163 166 CURVE SMOOTH",
"163 169 OFFCURVE",
"161 171 OFFCURVE",
"156 171 CURVE SMOOTH",
"157 171 OFFCURVE",
"107 163 OFFCURVE",
"107 132 CURVE SMOOTH",
"107 124 OFFCURVE",
"114 119 OFFCURVE",
"122 119 CURVE SMOOTH",
"125 119 OFFCURVE",
"128 120 OFFCURVE",
"131 120 CURVE SMOOTH",
"137 120 OFFCURVE",
"144 119 OFFCURVE",
"151 119 CURVE SMOOTH",
"221 119 OFFCURVE",
"343 134 OFFCURVE",
"343 148 CURVE SMOOTH",
"343 152 OFFCURVE",
"337 154 OFFCURVE",
"325 154 CURVE SMOOTH",
"310 153 OFFCURVE",
"274 152 OFFCURVE",
"274 152 CURVE"
);
},
{
closed = 1;
nodes = (
"266 233 OFFCURVE",
"256 233 OFFCURVE",
"246 233 CURVE SMOOTH",
"213 233 OFFCURVE",
"188 235 OFFCURVE",
"162 237 CURVE",
"165 240 OFFCURVE",
"167 244 OFFCURVE",
"167 248 CURVE SMOOTH",
"167 251 OFFCURVE",
"165 253 OFFCURVE",
"160 253 CURVE SMOOTH",
"161 253 OFFCURVE",
"111 245 OFFCURVE",
"111 214 CURVE SMOOTH",
"111 206 OFFCURVE",
"118 201 OFFCURVE",
"126 201 CURVE SMOOTH",
"129 201 OFFCURVE",
"132 202 OFFCURVE",
"135 202 CURVE SMOOTH",
"141 202 OFFCURVE",
"148 201 OFFCURVE",
"155 201 CURVE SMOOTH",
"225 201 OFFCURVE",
"347 216 OFFCURVE",
"347 230 CURVE SMOOTH",
"347 234 OFFCURVE",
"341 236 OFFCURVE",
"329 236 CURVE SMOOTH",
"314 235 OFFCURVE",
"278 234 OFFCURVE",
"278 234 CURVE"
);
}
);
width = 399;
}
);
note = equal;
unicode = 003D;
},
{
glyphname = greater;
lastChange = "2021-03-03 20:55:47 +0000";
layers = (
{
background = {
paths = (
{
closed = 1;
nodes = (
"229 317 OFFCURVE",
"228 320 OFFCURVE",
"226 321 CURVE SMOOTH",
"181 354 OFFCURVE",
"138 386 OFFCURVE",
"105 431 CURVE",
"97 435 LINE",
"88 435 OFFCURVE",
"86 429 OFFCURVE",
"86 422 CURVE SMOOTH",
"86 405 OFFCURVE",
"168 307 OFFCURVE",
"184 288 CURVE",
"171 270 OFFCURVE",
"85 145 OFFCURVE",
"85 135 CURVE SMOOTH",
"85 131 OFFCURVE",
"88 129 OFFCURVE",
"91 129 CURVE SMOOTH",
"99 129 OFFCURVE",
"106 134 OFFCURVE",
"110 140 CURVE SMOOTH",
"129 168 OFFCURVE",
"229 294 OFFCURVE",
"229 315 CURVE SMOOTH"
);
}
);
};
hints = (
{
horizontal = 1;
place = "{435, -20}";
target = down;
type = TopGhost;
},
{
place = "{184, 45}";
type = Stem;
}
);
layerId = "3787E0F5-978F-4E40-B775-08CB0E3B1585";
paths = (
{
closed = 1;
nodes = (
"229 317 OFFCURVE",
"228 320 OFFCURVE",
"226 321 CURVE SMOOTH",
"181 354 OFFCURVE",
"138 386 OFFCURVE",
"105 431 CURVE",
"97 435 LINE",
"88 435 OFFCURVE",
"86 429 OFFCURVE",
"86 422 CURVE SMOOTH",
"86 405 OFFCURVE",
"168 307 OFFCURVE",
"184 288 CURVE",
"171 270 OFFCURVE",
"85 145 OFFCURVE",
"85 135 CURVE SMOOTH",
"85 131 OFFCURVE",
"88 129 OFFCURVE",
"91 129 CURVE SMOOTH",
"99 129 OFFCURVE",
"106 134 OFFCURVE",
"110 140 CURVE SMOOTH",
"129 168 OFFCURVE",
"229 294 OFFCURVE",
"229 315 CURVE SMOOTH"
);
}
);
width = 318;
}
);
note = greater;
unicode = 003E;
},
{
color = 9;
glyphname = question;
lastChange = "2021-03-03 20:55:47 +0000";
layers = (
{
background = {
paths = (
{
closed = 1;
nodes = (
"138 514 OFFCURVE",
"132 496 OFFCURVE",
"132 480 CURVE SMOOTH",
"132 440 OFFCURVE",
"165 410 OFFCURVE",
"192 410 CURVE SMOOTH",
"202 410 OFFCURVE",
"215 415 OFFCURVE",
"215 426 CURVE SMOOTH",
"215 437 OFFCURVE",
"183 419 OFFCURVE",
"183 483 CURVE SMOOTH",
"183 566 OFFCURVE",
"289 618 OFFCURVE",
"391 618 CURVE SMOOTH",
"468 618 OFFCURVE",
"499 586 OFFCURVE",
"499 543 CURVE SMOOTH",
"499 398 OFFCURVE",
"235 300 OFFCURVE",
"188 241 CURVE SMOOTH",
"170 218 OFFCURVE",
"164 196 OFFCURVE",
"164 181 CURVE SMOOTH",
"164 162 OFFCURVE",
"173 149 OFFCURVE",
"182 149 CURVE SMOOTH",
"186 149 OFFCURVE",
"190 152 OFFCURVE",
"193 156 CURVE",
"194 156 LINE",
"210 188 OFFCURVE",
"216 233 OFFCURVE",
"266 265 CURVE SMOOTH",
"427 368 OFFCURVE",
"564 453 OFFCURVE",
"564 551 CURVE SMOOTH",
"564 627 OFFCURVE",
"501 657 OFFCURVE",
"428 657 CURVE SMOOTH",
"329 657 OFFCURVE",
"204 604 OFFCURVE",
"151 532 CURVE SMOOTH"
);
},
{
closed = 1;
nodes = (
"107 10 LINE SMOOTH",
"107 -4 OFFCURVE",
"108 -28 OFFCURVE",
"123 -28 CURVE SMOOTH",
"157 -28 OFFCURVE",
"158 -3 OFFCURVE",
"170 60 CURVE SMOOTH",
"170 61 OFFCURVE",
"169 62 OFFCURVE",
"167 62 CURVE SMOOTH",
"154 62 OFFCURVE",
"107 36 OFFCURVE",
"107 11 CURVE SMOOTH"
);
}
);
};
hints = (
{
horizontal = 1;
place = "{656, -20}";
target = down;
type = TopGhost;
},
{
place = "{105, 52}";
type = Stem;
}
);
layerId = "3787E0F5-978F-4E40-B775-08CB0E3B1585";
paths = (
{
closed = 1;
nodes = (
"138 514 OFFCURVE",
"132 496 OFFCURVE",
"132 480 CURVE SMOOTH",
"132 440 OFFCURVE",
"165 410 OFFCURVE",
"192 410 CURVE SMOOTH",
"202 410 OFFCURVE",
"215 415 OFFCURVE",
"215 426 CURVE SMOOTH",
"215 437 OFFCURVE",
"183 419 OFFCURVE",
"183 483 CURVE SMOOTH",
"183 566 OFFCURVE",
"289 618 OFFCURVE",
"391 618 CURVE SMOOTH",
"468 618 OFFCURVE",
"499 586 OFFCURVE",
"499 543 CURVE SMOOTH",
"499 398 OFFCURVE",
"235 300 OFFCURVE",
"188 241 CURVE SMOOTH",
"170 218 OFFCURVE",
"164 196 OFFCURVE",
"164 181 CURVE SMOOTH",
"164 162 OFFCURVE",
"173 149 OFFCURVE",
"182 149 CURVE SMOOTH",
"186 149 OFFCURVE",
"190 152 OFFCURVE",
"193 156 CURVE",
"194 156 LINE",
"210 188 OFFCURVE",
"216 233 OFFCURVE",
"266 265 CURVE SMOOTH",
"427 368 OFFCURVE",
"564 453 OFFCURVE",
"564 551 CURVE SMOOTH",
"564 627 OFFCURVE",
"501 657 OFFCURVE",
"428 657 CURVE SMOOTH",
"329 657 OFFCURVE",
"204 604 OFFCURVE",
"151 532 CURVE SMOOTH"
);
},
{
closed = 1;
nodes = (
"107 10 LINE SMOOTH",
"107 -4 OFFCURVE",
"108 -28 OFFCURVE",
"123 -28 CURVE SMOOTH",
"157 -28 OFFCURVE",
"158 -3 OFFCURVE",
"170 60 CURVE SMOOTH",
"170 61 OFFCURVE",
"169 62 OFFCURVE",
"167 62 CURVE SMOOTH",
"154 62 OFFCURVE",
"107 36 OFFCURVE",
"107 11 CURVE SMOOTH"
);
}
);
width = 464;
}
);
note = question;
unicode = 003F;
},
{
glyphname = at;
lastChange = "2021-03-03 20:55:47 +0000";
layers = (
{
background = {
paths = (
{
closed = 1;
nodes = (
"304 651 LINE SMOOTH",
"238 651 OFFCURVE",
"132 647 OFFCURVE",
"132 627 CURVE SMOOTH",
"132 623 OFFCURVE",
"134 619 OFFCURVE",
"157 619 CURVE SMOOTH",
"185 619 OFFCURVE",
"235 623 OFFCURVE",
"250 623 CURVE",
"130 559 OFFCURVE",
"9 441 OFFCURVE",
"9 277 CURVE SMOOTH",
"9 121 OFFCURVE",
"125 -2 OFFCURVE",
"299 -2 CURVE SMOOTH",
"504 -2 OFFCURVE",
"741 157 OFFCURVE",
"741 337 CURVE SMOOTH",
"741 372 OFFCURVE",
"732 408 OFFCURVE",
"712 444 CURVE",
"723 473 OFFCURVE",
"730 501 OFFCURVE",
"730 527 CURVE SMOOTH",
"730 644 OFFCURVE",
"631 679 OFFCURVE",
"520 679 CURVE SMOOTH",
"455 679 OFFCURVE",
"385 667 OFFCURVE",
"330 651 CURVE"
);
},
{
closed = 1;
nodes = (
"695 376 OFFCURVE",
"698 357 OFFCURVE",
"698 339 CURVE SMOOTH",
"698 168 OFFCURVE",
"449 26 OFFCURVE",
"272 26 CURVE SMOOTH",
"122 26 OFFCURVE",
"49 139 OFFCURVE",
"49 259 CURVE SMOOTH",
"49 409 OFFCURVE",
"173 567 OFFCURVE",
"323 616 CURVE",
"458 610 OFFCURVE",
"603 562 OFFCURVE",
"670 437 CURVE",
"639 353 OFFCURVE",
"492 151 OFFCURVE",
"442 151 CURVE SMOOTH",
"431 151 OFFCURVE",
"424 161 OFFCURVE",
"424 182 CURVE SMOOTH",
"424 200 OFFCURVE",
"445 308 OFFCURVE",
"481 408 CURVE SMOOTH",
"483 413 OFFCURVE",
"498 416 OFFCURVE",
"499 421 CURVE",
"506 437 OFFCURVE",
"521 465 OFFCURVE",
"521 485 CURVE SMOOTH",
"521 497 OFFCURVE",
"515 506 OFFCURVE",
"496 506 CURVE SMOOTH",
"480 506 OFFCURVE",
"479 490 OFFCURVE",
"470 490 CURVE SMOOTH",
"459 490 OFFCURVE",
"425 506 OFFCURVE",
"398 506 CURVE SMOOTH",
"387 506 OFFCURVE",
"377 504 OFFCURVE",
"370 496 CURVE",
"359 488 LINE",
"356 488 LINE SMOOTH",
"292 488 OFFCURVE",
"191 250 OFFCURVE",
"191 158 CURVE SMOOTH",
"191 133 OFFCURVE",
"197 122 OFFCURVE",
"215 122 CURVE SMOOTH",
"271 122 OFFCURVE",
"368 253 OFFCURVE",
"407 307 CURVE",
"395 266 OFFCURVE",
"374 188 OFFCURVE",
"374 152 CURVE",
"379 125 OFFCURVE",
"393 113 OFFCURVE",
"412 113 CURVE SMOOTH",
"488 113 OFFCURVE",
"650 292 OFFCURVE",
"689 395 CURVE"
);
},
{
closed = 1;
nodes = (
"454 471 LINE SMOOTH",
"457 471 OFFCURVE",
"459 469 OFFCURVE",
"459 465 CURVE SMOOTH",
"459 444 OFFCURVE",
"424 369 OFFCURVE",
"392 317 CURVE SMOOTH",
"383 303 OFFCURVE",
"280 169 OFFCURVE",
"247 169 CURVE SMOOTH",
"241 169 OFFCURVE",
"237 174 OFFCURVE",
"237 186 CURVE SMOOTH",
"237 264 OFFCURVE",
"345 463 OFFCURVE",
"376 471 CURVE SMOOTH",
"388 474 OFFCURVE",
"397 475 OFFCURVE",
"406 475 CURVE SMOOTH",
"424 476 OFFCURVE",
"437 470 OFFCURVE",
"451 471 CURVE SMOOTH"
);
},
{
closed = 1;
nodes = (
"631 574 OFFCURVE",
"517 625 OFFCURVE",
"396 638 CURVE",
"440 649 OFFCURVE",
"488 656 OFFCURVE",
"532 656 CURVE SMOOTH",
"619 656 OFFCURVE",
"690 627 OFFCURVE",
"690 532 CURVE SMOOTH",
"690 517 OFFCURVE",
"688 500 OFFCURVE",
"684 483 CURVE"
);
}
);
};
hints = (
{
horizontal = 1;
place = "{-2, 28}";
type = Stem;
},
{
horizontal = 1;
place = "{96, 46}";
type = Stem;
},
{
horizontal = 1;
place = "{656, 23}";
type = Stem;
},
{
place = "{9, 40}";
type = Stem;
},
{
place = "{193, 234}";
type = Stem;
},
{
place = "{461, 62}";
type = Stem;
},
{
place = "{698, 43}";
type = Stem;
}
);
layerId = "3787E0F5-978F-4E40-B775-08CB0E3B1585";
paths = (
{
closed = 1;
nodes = (
"304 651 LINE SMOOTH",
"238 651 OFFCURVE",
"132 647 OFFCURVE",
"132 627 CURVE SMOOTH",
"132 623 OFFCURVE",
"134 619 OFFCURVE",
"157 619 CURVE SMOOTH",
"185 619 OFFCURVE",
"235 623 OFFCURVE",
"250 623 CURVE",
"130 559 OFFCURVE",
"9 441 OFFCURVE",
"9 277 CURVE SMOOTH",
"9 121 OFFCURVE",
"125 -2 OFFCURVE",
"299 -2 CURVE SMOOTH",
"504 -2 OFFCURVE",
"741 157 OFFCURVE",
"741 337 CURVE SMOOTH",
"741 372 OFFCURVE",
"732 408 OFFCURVE",
"712 444 CURVE",
"723 473 OFFCURVE",
"730 501 OFFCURVE",
"730 527 CURVE SMOOTH",
"730 644 OFFCURVE",
"631 679 OFFCURVE",
"520 679 CURVE SMOOTH",
"455 679 OFFCURVE",
"385 667 OFFCURVE",
"330 651 CURVE"
);
},
{
closed = 1;
nodes = (
"695 376 OFFCURVE",
"698 357 OFFCURVE",
"698 339 CURVE SMOOTH",
"698 168 OFFCURVE",
"449 26 OFFCURVE",
"272 26 CURVE SMOOTH",
"122 26 OFFCURVE",
"49 139 OFFCURVE",
"49 259 CURVE SMOOTH",
"49 409 OFFCURVE",
"173 567 OFFCURVE",
"323 616 CURVE",
"458 610 OFFCURVE",
"603 562 OFFCURVE",
"670 437 CURVE",
"639 353 OFFCURVE",
"492 151 OFFCURVE",
"442 151 CURVE SMOOTH",
"431 151 OFFCURVE",
"424 161 OFFCURVE",
"424 182 CURVE SMOOTH",
"424 200 OFFCURVE",
"445 308 OFFCURVE",
"481 408 CURVE SMOOTH",
"483 413 OFFCURVE",
"498 416 OFFCURVE",
"499 421 CURVE",
"506 437 OFFCURVE",
"521 465 OFFCURVE",
"521 485 CURVE SMOOTH",
"521 497 OFFCURVE",
"515 506 OFFCURVE",
"496 506 CURVE SMOOTH",
"480 506 OFFCURVE",
"479 490 OFFCURVE",
"470 490 CURVE SMOOTH",
"459 490 OFFCURVE",
"425 506 OFFCURVE",
"398 506 CURVE SMOOTH",
"387 506 OFFCURVE",
"377 504 OFFCURVE",
"370 496 CURVE",
"359 488 LINE",
"356 488 LINE SMOOTH",
"292 488 OFFCURVE",
"191 250 OFFCURVE",
"191 158 CURVE SMOOTH",
"191 133 OFFCURVE",
"197 122 OFFCURVE",
"215 122 CURVE SMOOTH",
"271 122 OFFCURVE",
"368 253 OFFCURVE",
"407 307 CURVE",
"395 266 OFFCURVE",
"374 188 OFFCURVE",
"374 152 CURVE",
"379 125 OFFCURVE",
"393 113 OFFCURVE",
"412 113 CURVE SMOOTH",
"488 113 OFFCURVE",
"650 292 OFFCURVE",
"689 395 CURVE"
);
},
{
closed = 1;
nodes = (
"454 471 LINE SMOOTH",
"457 471 OFFCURVE",
"459 469 OFFCURVE",
"459 465 CURVE SMOOTH",
"459 444 OFFCURVE",
"424 369 OFFCURVE",
"392 317 CURVE SMOOTH",
"383 303 OFFCURVE",
"280 169 OFFCURVE",
"247 169 CURVE SMOOTH",
"241 169 OFFCURVE",
"237 174 OFFCURVE",
"237 186 CURVE SMOOTH",
"237 264 OFFCURVE",
"345 463 OFFCURVE",
"376 471 CURVE SMOOTH",
"388 474 OFFCURVE",
"397 475 OFFCURVE",
"406 475 CURVE SMOOTH",
"424 476 OFFCURVE",
"437 470 OFFCURVE",
"451 471 CURVE SMOOTH"
);
},
{
closed = 1;
nodes = (
"631 574 OFFCURVE",
"517 625 OFFCURVE",
"396 638 CURVE",
"440 649 OFFCURVE",
"488 656 OFFCURVE",
"532 656 CURVE SMOOTH",
"619 656 OFFCURVE",
"690 627 OFFCURVE",
"690 532 CURVE SMOOTH",
"690 517 OFFCURVE",
"688 500 OFFCURVE",
"684 483 CURVE"
);
}
);
width = 804;
}
);
note = at;
unicode = 0040;
},
{
glyphname = A;
lastChange = "2021-03-03 20:55:47 +0000";
layers = (
{
background = {
paths = (
{
closed = 1;
nodes = (
"565 278 OFFCURVE",
"576 284 OFFCURVE",
"576 290 CURVE SMOOTH",
"576 296 OFFCURVE",
"565 300 OFFCURVE",
"543 301 CURVE",
"528 414 OFFCURVE",
"486 579 OFFCURVE",
"464 636 CURVE",
"466 641 OFFCURVE",
"467 645 OFFCURVE",
"467 650 CURVE SMOOTH",
"467 661 OFFCURVE",
"460 671 OFFCURVE",
"444 671 CURVE SMOOTH",
"411 671 OFFCURVE",
"400 651 OFFCURVE",
"400 640 CURVE SMOOTH",
"400 634 OFFCURVE",
"403 628 OFFCURVE",
"406 624 CURVE",
"320 529 OFFCURVE",
"226 407 OFFCURVE",
"160 300 CURVE",
"110 300 LINE SMOOTH",
"96 300 OFFCURVE",
"83 285 OFFCURVE",
"83 276 CURVE SMOOTH",
"83 272 OFFCURVE",
"86 269 OFFCURVE",
"93 269 CURVE SMOOTH",
"116 269 OFFCURVE",
"125 270 OFFCURVE",
"143 270 CURVE",
"100 195 OFFCURVE",
"58 107 OFFCURVE",
"42 16 CURVE SMOOTH",
"41 8 OFFCURVE",
"40 3 OFFCURVE",
"40 0 CURVE SMOOTH",
"40 -9 OFFCURVE",
"47 -7 OFFCURVE",
"59 -7 CURVE SMOOTH",
"68 -7 OFFCURVE",
"78 -6 OFFCURVE",
"79 4 CURVE SMOOTH",
"92 96 OFFCURVE",
"138 188 OFFCURVE",
"183 270 CURVE",
"286 270 OFFCURVE",
"401 272 OFFCURVE",
"503 273 CURVE",
"508 239 OFFCURVE",
"523 72 OFFCURVE",
"523 16 CURVE SMOOTH",
"523 4 LINE SMOOTH",
"523 -2 OFFCURVE",
"528 -4 OFFCURVE",
"535 -4 CURVE SMOOTH",
"551 -4 OFFCURVE",
"577 9 OFFCURVE",
"577 23 CURVE SMOOTH",
"577 72 OFFCURVE",
"544 275 OFFCURVE",
"546 275 CURVE SMOOTH"
);
},
{
closed = 1;
nodes = (
"197 298 LINE",
"250 395 OFFCURVE",
"353 525 OFFCURVE",
"429 605 CURVE",
"439 575 OFFCURVE",
"484 424 OFFCURVE",
"500 300 CURVE"
);
}
);
};
hints = (
{
horizontal = 1;
place = "{-7, 21}";
target = up;
type = BottomGhost;
},
{
horizontal = 1;
place = "{270, 29}";
type = Stem;
},
{
horizontal = 1;
place = "{671, -20}";
target = down;
type = TopGhost;
},
{
place = "{523, 54}";
type = Stem;
},
{
horizontal = 1;
place = "{-4, 21}";
target = up;
type = BottomGhost;
}
);
layerId = "3787E0F5-978F-4E40-B775-08CB0E3B1585";
paths = (
{
closed = 1;
nodes = (
"565 278 OFFCURVE",
"576 284 OFFCURVE",
"576 290 CURVE SMOOTH",
"576 296 OFFCURVE",
"565 300 OFFCURVE",
"543 301 CURVE",
"528 414 OFFCURVE",
"486 579 OFFCURVE",
"464 636 CURVE",
"466 641 OFFCURVE",
"467 645 OFFCURVE",
"467 650 CURVE SMOOTH",
"467 661 OFFCURVE",
"460 671 OFFCURVE",
"444 671 CURVE SMOOTH",
"411 671 OFFCURVE",
"400 651 OFFCURVE",
"400 640 CURVE SMOOTH",
"400 634 OFFCURVE",
"403 628 OFFCURVE",
"406 624 CURVE",
"320 529 OFFCURVE",
"226 407 OFFCURVE",
"160 300 CURVE",
"110 300 LINE SMOOTH",
"96 300 OFFCURVE",
"83 285 OFFCURVE",
"83 276 CURVE SMOOTH",
"83 272 OFFCURVE",
"86 269 OFFCURVE",
"93 269 CURVE SMOOTH",
"116 269 OFFCURVE",
"125 270 OFFCURVE",
"143 270 CURVE",
"100 195 OFFCURVE",
"58 107 OFFCURVE",
"42 16 CURVE SMOOTH",
"41 8 OFFCURVE",
"40 3 OFFCURVE",
"40 0 CURVE SMOOTH",
"40 -9 OFFCURVE",
"47 -7 OFFCURVE",
"59 -7 CURVE SMOOTH",
"68 -7 OFFCURVE",
"78 -6 OFFCURVE",
"79 4 CURVE SMOOTH",
"92 96 OFFCURVE",
"138 188 OFFCURVE",
"183 270 CURVE",
"286 270 OFFCURVE",
"401 272 OFFCURVE",
"503 273 CURVE",
"508 239 OFFCURVE",
"523 72 OFFCURVE",
"523 16 CURVE SMOOTH",
"523 4 LINE SMOOTH",
"523 -2 OFFCURVE",
"528 -4 OFFCURVE",
"535 -4 CURVE SMOOTH",
"551 -4 OFFCURVE",
"577 9 OFFCURVE",
"577 23 CURVE SMOOTH",
"577 72 OFFCURVE",
"544 275 OFFCURVE",
"546 275 CURVE SMOOTH"
);
},
{
closed = 1;
nodes = (
"197 298 LINE",
"250 395 OFFCURVE",
"353 525 OFFCURVE",
"429 605 CURVE",
"439 575 OFFCURVE",
"484 424 OFFCURVE",
"500 300 CURVE"
);
}
);
width = 619;
}
);
note = A;
unicode = 0041;
},
{
glyphname = B;
lastChange = "2021-03-03 22:12:35 +0000";
layers = (
{
background = {
paths = (
{
closed = 1;
nodes = (
"595 295 OFFCURVE",
"473 317 OFFCURVE",
"384 317 CURVE SMOOTH",
"365 317 OFFCURVE",
"348 316 OFFCURVE",
"334 315 CURVE",
"396 341 OFFCURVE",
"497 405 OFFCURVE",
"497 486 CURVE SMOOTH",
"497 612 OFFCURVE",
"304 639 OFFCURVE",
"219 647 CURVE",
"221 653 OFFCURVE",
"239 668 OFFCURVE",
"239 682 CURVE SMOOTH",
"239 689 OFFCURVE",
"232 692 OFFCURVE",
"224 692 CURVE SMOOTH",
"197 692 OFFCURVE",
"169 684 OFFCURVE",
"163 650 CURVE",
"124 650 LINE SMOOTH",
"101 650 OFFCURVE",
"82 640 OFFCURVE",
"82 633 CURVE SMOOTH",
"82 629 OFFCURVE",
"88 626 OFFCURVE",
"104 625 CURVE SMOOTH",
"157 625 LINE",
"129 510 OFFCURVE",
"101 289 OFFCURVE",
"101 138 CURVE SMOOTH",
"101 94 OFFCURVE",
"103 57 OFFCURVE",
"109 29 CURVE",
"101 31 OFFCURVE",
"98 32 OFFCURVE",
"96 32 CURVE SMOOTH",
"90 32 OFFCURVE",
"85 28 OFFCURVE",
"85 23 CURVE SMOOTH",
"85 10 OFFCURVE",
"114 -16 OFFCURVE",
"135 -16 CURVE SMOOTH",
"143 -16 OFFCURVE",
"150 -13 OFFCURVE",
"154 -4 CURVE",
"178 -9 OFFCURVE",
"206 -11 OFFCURVE",
"236 -11 CURVE SMOOTH",
"391 -11 OFFCURVE",
"595 55 OFFCURVE",
"595 197 CURVE SMOOTH"
);
},
{
closed = 1;
nodes = (
"549 58 OFFCURVE",
"376 14 OFFCURVE",
"238 14 CURVE SMOOTH",
"205 14 OFFCURVE",
"174 17 OFFCURVE",
"150 22 CURVE",
"146 63 OFFCURVE",
"144 129 OFFCURVE",
"144 186 CURVE SMOOTH",
"144 226 OFFCURVE",
"145 261 OFFCURVE",
"147 278 CURVE",
"207 287 OFFCURVE",
"259 296 OFFCURVE",
"321 296 CURVE SMOOTH",
"412 296 OFFCURVE",
"547 278 OFFCURVE",
"549 187 CURVE SMOOTH"
);
},
{
closed = 1;
nodes = (
"452 492 OFFCURVE",
"453 485 OFFCURVE",
"453 478 CURVE SMOOTH",
"453 332 OFFCURVE",
"205 309 OFFCURVE",
"172 309 CURVE SMOOTH",
"159 309 OFFCURVE",
"150 310 OFFCURVE",
"149 310 CURVE",
"153 369 OFFCURVE",
"194 572 OFFCURVE",
"211 623 CURVE",
"212 623 LINE SMOOTH",
"279 615 OFFCURVE",
"425 584 OFFCURVE",
"451 500 CURVE"
);
}
);
};
hints = (
{
horizontal = 1;
place = "{-16, 21}";
target = up;
type = BottomGhost;
},
{
horizontal = 1;
place = "{296, 21}";
type = Stem;
},
{
horizontal = 1;
place = "{625, 25}";
type = Stem;
},
{
horizontal = 1;
place = "{692, -20}";
target = down;
type = TopGhost;
},
{
place = "{101, 43}";
type = Stem;
},
{
place = "{453, 44}";
type = Stem;
},
{
place = "{549, 46}";
type = Stem;
},
{
horizontal = 1;
place = "{-11, 25}";
type = Stem;
}
);
layerId = "3787E0F5-978F-4E40-B775-08CB0E3B1585";
paths = (
{
closed = 1;
nodes = (
"595 295 OFFCURVE",
"473 317 OFFCURVE",
"384 317 CURVE SMOOTH",
"365 317 OFFCURVE",
"348 316 OFFCURVE",
"334 315 CURVE",
"396 341 OFFCURVE",
"497 405 OFFCURVE",
"497 486 CURVE SMOOTH",
"497 612 OFFCURVE",
"304 639 OFFCURVE",
"219 647 CURVE",
"221 653 OFFCURVE",
"239 668 OFFCURVE",
"239 682 CURVE SMOOTH",
"239 689 OFFCURVE",
"232 692 OFFCURVE",
"224 692 CURVE SMOOTH",
"197 692 OFFCURVE",
"169 684 OFFCURVE",
"163 650 CURVE",
"124 650 LINE SMOOTH",
"101 650 OFFCURVE",
"82 640 OFFCURVE",
"82 633 CURVE SMOOTH",
"82 629 OFFCURVE",
"88 626 OFFCURVE",
"104 625 CURVE SMOOTH",
"157 625 LINE",
"129 510 OFFCURVE",
"101 289 OFFCURVE",
"101 138 CURVE SMOOTH",
"101 94 OFFCURVE",
"103 57 OFFCURVE",
"109 29 CURVE",
"101 31 OFFCURVE",
"98 32 OFFCURVE",
"96 32 CURVE SMOOTH",
"90 32 OFFCURVE",
"85 28 OFFCURVE",
"85 23 CURVE SMOOTH",
"85 10 OFFCURVE",
"114 -16 OFFCURVE",
"135 -16 CURVE SMOOTH",
"143 -16 OFFCURVE",
"150 -13 OFFCURVE",
"154 -4 CURVE",
"178 -9 OFFCURVE",
"206 -11 OFFCURVE",
"236 -11 CURVE SMOOTH",
"391 -11 OFFCURVE",
"595 55 OFFCURVE",
"595 197 CURVE SMOOTH"
);
},
{
closed = 1;
nodes = (
"549 58 OFFCURVE",
"376 14 OFFCURVE",
"238 14 CURVE SMOOTH",
"205 14 OFFCURVE",
"174 17 OFFCURVE",
"150 22 CURVE",
"146 63 OFFCURVE",
"144 129 OFFCURVE",
"144 186 CURVE SMOOTH",
"144 226 OFFCURVE",
"145 261 OFFCURVE",
"147 278 CURVE",
"207 287 OFFCURVE",
"259 296 OFFCURVE",
"321 296 CURVE SMOOTH",
"412 296 OFFCURVE",
"547 278 OFFCURVE",
"549 187 CURVE SMOOTH"
);
},
{
closed = 1;
nodes = (
"452 492 OFFCURVE",
"453 485 OFFCURVE",
"453 478 CURVE SMOOTH",
"453 332 OFFCURVE",
"205 309 OFFCURVE",
"172 309 CURVE SMOOTH",
"159 309 OFFCURVE",
"150 310 OFFCURVE",
"149 310 CURVE",
"153 369 OFFCURVE",
"194 572 OFFCURVE",
"211 623 CURVE",
"212 623 LINE SMOOTH",
"279 615 OFFCURVE",
"425 584 OFFCURVE",
"451 500 CURVE"
);
}
);
width = 631;
}
);
note = B;
unicode = 0042;
},
{
glyphname = C;
lastChange = "2021-03-03 20:57:54 +0000";
layers = (
{
background = {
paths = (
{
closed = 1;
nodes = (
"613 125 OFFCURVE",
"524 7 OFFCURVE",
"339 7 CURVE SMOOTH",
"182 7 OFFCURVE",
"108 133 OFFCURVE",
"108 271 CURVE SMOOTH",
"108 454 OFFCURVE",
"234 633 OFFCURVE",
"442 633 CURVE SMOOTH",
"502 633 OFFCURVE",
"574 602 OFFCURVE",
"574 553 CURVE SMOOTH",
"574 535 OFFCURVE",
"554 516 OFFCURVE",
"554 493 CURVE SMOOTH",
"554 482 OFFCURVE",
"561 474 OFFCURVE",
"575 474 CURVE SMOOTH",
"597 474 OFFCURVE",
"615 495 OFFCURVE",
"615 536 CURVE SMOOTH",
"615 641 OFFCURVE",
"518 658 OFFCURVE",
"440 658 CURVE SMOOTH",
"194 658 OFFCURVE",
"59 478 OFFCURVE",
"59 274 CURVE SMOOTH",
"59 99 OFFCURVE",
"158 -16 OFFCURVE",
"348 -16 CURVE SMOOTH",
"457 -16 OFFCURVE",
"651 42 OFFCURVE",
"651 152 CURVE SMOOTH",
"651 161 OFFCURVE",
"649 167 OFFCURVE",
"646 167 CURVE SMOOTH",
"644 167 OFFCURVE",
"642 165 OFFCURVE",
"639 162 CURVE"
);
}
);
};
layerId = "3787E0F5-978F-4E40-B775-08CB0E3B1585";
paths = (
{
closed = 1;
nodes = (
"613 128 OFFCURVE",
"524 10 OFFCURVE",
"339 10 CURVE SMOOTH",
"182 10 OFFCURVE",
"108 136 OFFCURVE",
"108 274 CURVE SMOOTH",
"108 457 OFFCURVE",
"234 636 OFFCURVE",
"442 636 CURVE SMOOTH",
"502 636 OFFCURVE",
"574 605 OFFCURVE",
"574 556 CURVE SMOOTH",
"574 538 OFFCURVE",
"554 519 OFFCURVE",
"554 496 CURVE SMOOTH",
"554 485 OFFCURVE",
"561 477 OFFCURVE",
"575 477 CURVE SMOOTH",
"597 477 OFFCURVE",
"615 498 OFFCURVE",
"615 539 CURVE SMOOTH",
"615 644 OFFCURVE",
"518 661 OFFCURVE",
"440 661 CURVE SMOOTH",
"194 661 OFFCURVE",
"59 481 OFFCURVE",
"59 277 CURVE SMOOTH",
"59 102 OFFCURVE",
"158 -13 OFFCURVE",
"348 -13 CURVE SMOOTH",
"457 -13 OFFCURVE",
"651 45 OFFCURVE",
"651 155 CURVE SMOOTH",
"651 164 OFFCURVE",
"649 170 OFFCURVE",
"646 170 CURVE SMOOTH",
"644 170 OFFCURVE",
"642 168 OFFCURVE",
"639 165 CURVE"
);
}
);
width = 684;
}
);
leftKerningGroup = Ccedilla;
note = C;
rightKerningGroup = Ccedilla;
unicode = 0043;
},
{
glyphname = D;
lastChange = "2021-03-03 20:55:47 +0000";
layers = (
{
background = {
paths = (
{
closed = 1;
nodes = (
"233 689 OFFCURVE",
"227 692 OFFCURVE",
"219 692 CURVE SMOOTH",
"186 692 OFFCURVE",
"172 677 OFFCURVE",
"167 648 CURVE",
"128 648 LINE SMOOTH",
"104 648 OFFCURVE",
"92 627 OFFCURVE",
"92 615 CURVE SMOOTH",
"92 609 OFFCURVE",
"94 605 OFFCURVE",
"99 605 CURVE SMOOTH",
"105 605 OFFCURVE",
"133 611 OFFCURVE",
"151 611 CURVE SMOOTH",
"159 611 LINE",
"130 499 OFFCURVE",
"99 283 OFFCURVE",
"99 137 CURVE SMOOTH",
"99 99 OFFCURVE",
"101 65 OFFCURVE",
"106 40 CURVE",
"103 41 OFFCURVE",
"102 41 OFFCURVE",
"100 41 CURVE SMOOTH",
"94 41 OFFCURVE",
"93 37 OFFCURVE",
"93 33 CURVE SMOOTH",
"93 9 OFFCURVE",
"135 -9 OFFCURVE",
"204 -9 CURVE SMOOTH",
"382 -9 OFFCURVE",
"725 109 OFFCURVE",
"725 344 CURVE SMOOTH",
"725 565 OFFCURVE",
"466 651 OFFCURVE",
"247 651 CURVE SMOOTH",
"221 651 LINE",
"228 671 OFFCURVE",
"229 672 OFFCURVE",
"233 681 CURVE"
);
},
{
closed = 1;
nodes = (
"143 122 OFFCURVE",
"143 139 OFFCURVE",
"143 157 CURVE SMOOTH",
"143 306 OFFCURVE",
"169 471 OFFCURVE",
"211 613 CURVE",
"246 613 LINE SMOOTH",
"329 613 OFFCURVE",
"688 598 OFFCURVE",
"688 377 CURVE SMOOTH",
"688 318 OFFCURVE",
"667 265 OFFCURVE",
"614 197 CURVE SMOOTH",
"543 105 OFFCURVE",
"356 18 OFFCURVE",
"234 18 CURVE SMOOTH",
"159 18 OFFCURVE",
"146 45 OFFCURVE",
"144 105 CURVE SMOOTH"
);
}
);
};
hints = (
{
horizontal = 1;
place = "{-9, 27}";
type = Stem;
},
{
horizontal = 1;
place = "{611, 81}";
type = Stem;
},
{
place = "{99, 44}";
type = Stem;
},
{
place = "{688, 37}";
type = Stem;
},
{
horizontal = 1;
place = "{611, 40}";
type = Stem;
}
);
layerId = "3787E0F5-978F-4E40-B775-08CB0E3B1585";
paths = (
{
closed = 1;
nodes = (
"233 689 OFFCURVE",
"227 692 OFFCURVE",
"219 692 CURVE SMOOTH",
"186 692 OFFCURVE",
"172 677 OFFCURVE",
"167 648 CURVE",
"128 648 LINE SMOOTH",
"104 648 OFFCURVE",
"92 627 OFFCURVE",
"92 615 CURVE SMOOTH",
"92 609 OFFCURVE",
"94 605 OFFCURVE",
"99 605 CURVE SMOOTH",
"105 605 OFFCURVE",
"133 611 OFFCURVE",
"151 611 CURVE SMOOTH",
"159 611 LINE",
"130 499 OFFCURVE",
"99 283 OFFCURVE",
"99 137 CURVE SMOOTH",
"99 99 OFFCURVE",
"101 65 OFFCURVE",
"106 40 CURVE",
"103 41 OFFCURVE",
"102 41 OFFCURVE",
"100 41 CURVE SMOOTH",
"94 41 OFFCURVE",
"93 37 OFFCURVE",
"93 33 CURVE SMOOTH",
"93 9 OFFCURVE",
"135 -9 OFFCURVE",
"204 -9 CURVE SMOOTH",
"382 -9 OFFCURVE",
"725 109 OFFCURVE",
"725 344 CURVE SMOOTH",
"725 565 OFFCURVE",
"466 651 OFFCURVE",
"247 651 CURVE SMOOTH",
"221 651 LINE",
"228 671 OFFCURVE",
"229 672 OFFCURVE",
"233 681 CURVE"
);
},
{
closed = 1;
nodes = (
"143 122 OFFCURVE",
"143 139 OFFCURVE",
"143 157 CURVE SMOOTH",
"143 306 OFFCURVE",
"169 471 OFFCURVE",
"211 613 CURVE",
"246 613 LINE SMOOTH",
"329 613 OFFCURVE",
"688 598 OFFCURVE",
"688 377 CURVE SMOOTH",
"688 318 OFFCURVE",
"667 265 OFFCURVE",
"614 197 CURVE SMOOTH",
"543 105 OFFCURVE",
"356 18 OFFCURVE",
"234 18 CURVE SMOOTH",
"159 18 OFFCURVE",
"146 45 OFFCURVE",
"144 105 CURVE SMOOTH"
);
}
);
width = 775;
}
);
note = D;
rightKerningGroup = Eth;
unicode = 0044;
},
{
glyphname = E;
lastChange = "2021-03-03 20:55:47 +0000";
layers = (
{
background = {
paths = (
{
closed = 1;
nodes = (
"445 649 OFFCURVE",
"389 648 OFFCURVE",
"348 648 CURVE SMOOTH",
"264 648 OFFCURVE",
"237 649 OFFCURVE",
"224 649 CURVE",
"229 661 OFFCURVE",
"239 672 OFFCURVE",
"239 682 CURVE SMOOTH",
"239 689 OFFCURVE",
"232 692 OFFCURVE",
"224 692 CURVE SMOOTH",
"196 692 OFFCURVE",
"174 685 OFFCURVE",
"167 648 CURVE",
"128 648 LINE SMOOTH",
"105 648 OFFCURVE",
"86 638 OFFCURVE",
"86 632 CURVE SMOOTH",
"86 628 OFFCURVE",
"92 625 OFFCURVE",
"108 624 CURVE SMOOTH",
"161 624 LINE",
"144 560 OFFCURVE",
"127 451 OFFCURVE",
"114 345 CURVE",
"100 344 OFFCURVE",
"88 330 OFFCURVE",
"88 321 CURVE SMOOTH",
"88 317 OFFCURVE",
"91 314 OFFCURVE",
"98 314 CURVE SMOOTH",
"111 314 LINE",
"100 214 OFFCURVE",
"89 110 OFFCURVE",
"89 59 CURVE SMOOTH",
"89 51 OFFCURVE",
"89 44 OFFCURVE",
"90 39 CURVE",
"75 36 OFFCURVE",
"55 15 OFFCURVE",
"55 5 CURVE SMOOTH",
"55 -4 OFFCURVE",
"302 -1 OFFCURVE",
"356 -1 CURVE SMOOTH",
"404 -1 OFFCURVE",
"451 0 OFFCURVE",
"495 0 CURVE SMOOTH",
"516 0 OFFCURVE",
"525 23 OFFCURVE",
"525 36 CURVE SMOOTH",
"525 42 OFFCURVE",
"524 46 OFFCURVE",
"521 46 CURVE SMOOTH",
"520 46 LINE",
"485 35 OFFCURVE",
"434 30 OFFCURVE",
"405 30 CURVE SMOOTH",
"271 30 OFFCURVE",
"193 31 OFFCURVE",
"145 31 CURVE",
"142 47 OFFCURVE",
"141 69 OFFCURVE",
"141 93 CURVE SMOOTH",
"141 166 OFFCURVE",
"151 262 OFFCURVE",
"156 314 CURVE",
"414 314 LINE",
"440 318 OFFCURVE",
"452 334 OFFCURVE",
"452 342 CURVE SMOOTH",
"452 346 OFFCURVE",
"450 348 OFFCURVE",
"446 348 CURVE SMOOTH",
"406 346 OFFCURVE",
"239 345 OFFCURVE",
"160 345 CURVE",
"169 417 OFFCURVE",
"193 548 OFFCURVE",
"214 619 CURVE",
"273 618 OFFCURVE",
"302 617 OFFCURVE",
"337 617 CURVE SMOOTH",
"351 617 OFFCURVE",
"366 618 OFFCURVE",
"384 618 CURVE SMOOTH",
"406 618 OFFCURVE",
"452 618 OFFCURVE",
"469 616 CURVE SMOOTH",
"488 614 OFFCURVE",
"493 590 OFFCURVE",
"503 590 CURVE SMOOTH",
"517 590 OFFCURVE",
"534 620 OFFCURVE",
"534 634 CURVE SMOOTH",
"534 642 OFFCURVE",
"530 649 OFFCURVE",
"519 649 CURVE SMOOTH"
);
}
);
};
hints = (
{
horizontal = 1;
place = "{-1, 31}";
type = Stem;
},
{
horizontal = 1;
place = "{314, 31}";
type = Stem;
},
{
horizontal = 1;
place = "{624, 24}";
type = Stem;
},
{
place = "{89, 52}";
type = Stem;
},
{
horizontal = 1;
place = "{624, 68}";
type = Stem;
},
{
horizontal = 1;
place = "{0, 21}";
target = up;
type = BottomGhost;
}
);
layerId = "3787E0F5-978F-4E40-B775-08CB0E3B1585";
paths = (
{
closed = 1;
nodes = (
"445 649 OFFCURVE",
"389 648 OFFCURVE",
"348 648 CURVE SMOOTH",
"264 648 OFFCURVE",
"237 649 OFFCURVE",
"224 649 CURVE",
"229 661 OFFCURVE",
"239 672 OFFCURVE",
"239 682 CURVE SMOOTH",
"239 689 OFFCURVE",
"232 692 OFFCURVE",
"224 692 CURVE SMOOTH",
"196 692 OFFCURVE",
"174 685 OFFCURVE",
"167 648 CURVE",
"128 648 LINE SMOOTH",
"105 648 OFFCURVE",
"86 638 OFFCURVE",
"86 632 CURVE SMOOTH",
"86 628 OFFCURVE",
"92 625 OFFCURVE",
"108 624 CURVE SMOOTH",
"161 624 LINE",
"144 560 OFFCURVE",
"127 451 OFFCURVE",
"114 345 CURVE",
"100 344 OFFCURVE",
"88 330 OFFCURVE",
"88 321 CURVE SMOOTH",
"88 317 OFFCURVE",
"91 314 OFFCURVE",
"98 314 CURVE SMOOTH",
"111 314 LINE",
"100 214 OFFCURVE",
"89 110 OFFCURVE",
"89 59 CURVE SMOOTH",
"89 51 OFFCURVE",
"89 44 OFFCURVE",
"90 39 CURVE",
"75 36 OFFCURVE",
"55 15 OFFCURVE",
"55 5 CURVE SMOOTH",
"55 -4 OFFCURVE",
"302 -1 OFFCURVE",
"356 -1 CURVE SMOOTH",
"404 -1 OFFCURVE",
"451 0 OFFCURVE",
"495 0 CURVE SMOOTH",
"516 0 OFFCURVE",
"525 23 OFFCURVE",
"525 36 CURVE SMOOTH",
"525 42 OFFCURVE",
"524 46 OFFCURVE",
"521 46 CURVE SMOOTH",
"520 46 LINE",
"485 35 OFFCURVE",
"434 30 OFFCURVE",
"405 30 CURVE SMOOTH",
"271 30 OFFCURVE",
"193 31 OFFCURVE",
"145 31 CURVE",
"142 47 OFFCURVE",
"141 69 OFFCURVE",
"141 93 CURVE SMOOTH",
"141 166 OFFCURVE",
"151 262 OFFCURVE",
"156 314 CURVE",
"414 314 LINE",
"440 318 OFFCURVE",
"452 334 OFFCURVE",
"452 342 CURVE SMOOTH",
"452 346 OFFCURVE",
"450 348 OFFCURVE",
"446 348 CURVE SMOOTH",
"406 346 OFFCURVE",
"239 345 OFFCURVE",
"160 345 CURVE",
"169 417 OFFCURVE",
"193 548 OFFCURVE",
"214 619 CURVE",
"273 618 OFFCURVE",
"302 617 OFFCURVE",
"337 617 CURVE SMOOTH",
"351 617 OFFCURVE",
"366 618 OFFCURVE",
"384 618 CURVE SMOOTH",
"406 618 OFFCURVE",
"452 618 OFFCURVE",
"469 616 CURVE SMOOTH",
"488 614 OFFCURVE",
"493 590 OFFCURVE",
"503 590 CURVE SMOOTH",
"517 590 OFFCURVE",
"534 620 OFFCURVE",
"534 634 CURVE SMOOTH",
"534 642 OFFCURVE",
"530 649 OFFCURVE",
"519 649 CURVE SMOOTH"
);
}
);
width = 577;
}
);
note = E;
unicode = 0045;
},
{
glyphname = F;
lastChange = "2021-03-03 20:55:47 +0000";
layers = (
{
background = {
paths = (
{
closed = 1;
nodes = (
"406 347 OFFCURVE",
"236 346 OFFCURVE",
"158 346 CURVE",
"172 443 OFFCURVE",
"191 545 OFFCURVE",
"215 620 CURVE",
"274 619 OFFCURVE",
"303 618 OFFCURVE",
"338 618 CURVE SMOOTH",
"352 618 OFFCURVE",
"367 619 OFFCURVE",
"385 619 CURVE SMOOTH",
"407 619 OFFCURVE",
"453 619 OFFCURVE",
"470 617 CURVE SMOOTH",
"489 615 OFFCURVE",
"494 591 OFFCURVE",
"504 591 CURVE SMOOTH",
"518 591 OFFCURVE",
"535 621 OFFCURVE",
"535 635 CURVE SMOOTH",
"535 643 OFFCURVE",
"531 650 OFFCURVE",
"520 650 CURVE SMOOTH",
"446 650 OFFCURVE",
"390 649 OFFCURVE",
"349 649 CURVE SMOOTH",
"265 649 OFFCURVE",
"238 650 OFFCURVE",
"225 650 CURVE",
"230 662 OFFCURVE",
"239 672 OFFCURVE",
"239 682 CURVE SMOOTH",
"239 689 OFFCURVE",
"232 692 OFFCURVE",
"224 692 CURVE SMOOTH",
"197 692 OFFCURVE",
"175 686 OFFCURVE",
"168 649 CURVE",
"129 649 LINE SMOOTH",
"106 649 OFFCURVE",
"87 639 OFFCURVE",
"87 633 CURVE SMOOTH",
"87 629 OFFCURVE",
"93 626 OFFCURVE",
"109 625 CURVE SMOOTH",
"162 625 LINE",
"140 532 OFFCURVE",
"126 439 OFFCURVE",
"115 346 CURVE",
"101 345 OFFCURVE",
"89 331 OFFCURVE",
"89 322 CURVE SMOOTH",
"89 318 OFFCURVE",
"92 315 OFFCURVE",
"99 315 CURVE SMOOTH",
"111 315 LINE",
"101 219 OFFCURVE",
"88 108 OFFCURVE",
"80 14 CURVE",
"80 0 OFFCURVE",
"90 -8 OFFCURVE",
"104 -8 CURVE SMOOTH",
"127 -8 OFFCURVE",
"137 10 OFFCURVE",
"137 43 CURVE SMOOTH",
"137 54 OFFCURVE",
"135 63 OFFCURVE",
"129 64 CURVE",
"129 101 OFFCURVE",
"141 210 OFFCURVE",
"154 315 CURVE",
"415 315 LINE",
"441 319 OFFCURVE",
"453 335 OFFCURVE",
"453 343 CURVE SMOOTH",
"453 347 OFFCURVE",
"451 349 OFFCURVE",
"447 349 CURVE SMOOTH"
);
}
);
};
hints = (
{
horizontal = 1;
place = "{-8, 21}";
target = up;
type = BottomGhost;
},
{
horizontal = 1;
place = "{315, 31}";
type = Stem;
},
{
horizontal = 1;
place = "{618, 32}";
type = Stem;
},
{
place = "{87, 50}";
type = Stem;
},
{
horizontal = 1;
place = "{618, 74}";
type = Stem;
}
);
layerId = "3787E0F5-978F-4E40-B775-08CB0E3B1585";
paths = (
{
closed = 1;
nodes = (
"406 347 OFFCURVE",
"236 346 OFFCURVE",
"158 346 CURVE",
"172 443 OFFCURVE",
"191 545 OFFCURVE",
"215 620 CURVE",
"274 619 OFFCURVE",
"303 618 OFFCURVE",
"338 618 CURVE SMOOTH",
"352 618 OFFCURVE",
"367 619 OFFCURVE",
"385 619 CURVE SMOOTH",
"407 619 OFFCURVE",
"453 619 OFFCURVE",
"470 617 CURVE SMOOTH",
"489 615 OFFCURVE",
"494 591 OFFCURVE",
"504 591 CURVE SMOOTH",
"518 591 OFFCURVE",
"535 621 OFFCURVE",
"535 635 CURVE SMOOTH",
"535 643 OFFCURVE",
"531 650 OFFCURVE",
"520 650 CURVE SMOOTH",
"446 650 OFFCURVE",
"390 649 OFFCURVE",
"349 649 CURVE SMOOTH",
"265 649 OFFCURVE",
"238 650 OFFCURVE",
"225 650 CURVE",
"230 662 OFFCURVE",
"239 672 OFFCURVE",
"239 682 CURVE SMOOTH",
"239 689 OFFCURVE",
"232 692 OFFCURVE",
"224 692 CURVE SMOOTH",
"197 692 OFFCURVE",
"175 686 OFFCURVE",
"168 649 CURVE",
"129 649 LINE SMOOTH",
"106 649 OFFCURVE",
"87 639 OFFCURVE",
"87 633 CURVE SMOOTH",
"87 629 OFFCURVE",
"93 626 OFFCURVE",
"109 625 CURVE SMOOTH",
"162 625 LINE",
"140 532 OFFCURVE",
"126 439 OFFCURVE",
"115 346 CURVE",
"101 345 OFFCURVE",
"89 331 OFFCURVE",
"89 322 CURVE SMOOTH",
"89 318 OFFCURVE",
"92 315 OFFCURVE",
"99 315 CURVE SMOOTH",
"111 315 LINE",
"101 219 OFFCURVE",
"88 108 OFFCURVE",
"80 14 CURVE",
"80 0 OFFCURVE",
"90 -8 OFFCURVE",
"104 -8 CURVE SMOOTH",
"127 -8 OFFCURVE",
"137 10 OFFCURVE",
"137 43 CURVE SMOOTH",
"137 54 OFFCURVE",
"135 63 OFFCURVE",
"129 64 CURVE",
"129 101 OFFCURVE",
"141 210 OFFCURVE",
"154 315 CURVE",
"415 315 LINE",
"441 319 OFFCURVE",
"453 335 OFFCURVE",
"453 343 CURVE SMOOTH",
"453 347 OFFCURVE",
"451 349 OFFCURVE",
"447 349 CURVE SMOOTH"
);
}
);
width = 540;
}
);
note = F;
unicode = 0046;
},
{
glyphname = G;
lastChange = "2021-03-03 20:55:47 +0000";
layers = (
{
background = {
paths = (
{
closed = 1;
nodes = (
"687 280 OFFCURVE",
"454 279 OFFCURVE",
"432 279 CURVE SMOOTH",
"418 279 OFFCURVE",
"405 264 OFFCURVE",
"405 255 CURVE SMOOTH",
"405 251 OFFCURVE",
"408 248 OFFCURVE",
"415 248 CURVE SMOOTH",
"646 248 LINE",
"642 222 OFFCURVE",
"638 194 OFFCURVE",
"632 166 CURVE",
"603 108 OFFCURVE",
"511 7 OFFCURVE",
"339 7 CURVE SMOOTH",
"182 7 OFFCURVE",
"108 133 OFFCURVE",
"108 271 CURVE SMOOTH",
"108 457 OFFCURVE",
"242 633 OFFCURVE",
"479 633 CURVE SMOOTH",
"557 633 OFFCURVE",
"627 606 OFFCURVE",
"627 547 CURVE SMOOTH",
"627 526 OFFCURVE",
"607 499 OFFCURVE",
"607 485 CURVE SMOOTH",
"607 478 OFFCURVE",
"612 474 OFFCURVE",
"626 474 CURVE SMOOTH",
"650 474 OFFCURVE",
"670 495 OFFCURVE",
"670 536 CURVE SMOOTH",
"670 641 OFFCURVE",
"563 658 OFFCURVE",
"477 658 CURVE SMOOTH",
"205 658 OFFCURVE",
"59 477 OFFCURVE",
"59 273 CURVE SMOOTH",
"59 98 OFFCURVE",
"159 -16 OFFCURVE",
"348 -16 CURVE SMOOTH",
"442 -16 OFFCURVE",
"559 13 OFFCURVE",
"618 97 CURVE",
"612 64 OFFCURVE",
"606 30 OFFCURVE",
"606 4 CURVE SMOOTH",
"606 -12 OFFCURVE",
"615 -20 OFFCURVE",
"625 -20 CURVE SMOOTH",
"639 -20 OFFCURVE",
"657 -4 OFFCURVE",
"657 22 CURVE SMOOTH",
"657 34 OFFCURVE",
"654 46 OFFCURVE",
"654 61 CURVE SMOOTH",
"654 169 OFFCURVE",
"674 213 OFFCURVE",
"685 248 CURVE",
"705 248 LINE",
"731 252 OFFCURVE",
"743 268 OFFCURVE",
"743 276 CURVE SMOOTH",
"743 280 OFFCURVE",
"741 282 OFFCURVE",
"737 282 CURVE SMOOTH"
);
}
);
};
hints = (
{
horizontal = 1;
place = "{-16, 23}";
type = Stem;
},
{
horizontal = 1;
place = "{248, 34}";
type = Stem;
},
{
horizontal = 1;
place = "{633, 25}";
type = Stem;
},
{
place = "{59, 49}";
type = Stem;
},
{
place = "{627, 43}";
type = Stem;
},
{
horizontal = 1;
place = "{474, 184}";
type = Stem;
},
{
horizontal = 1;
place = "{-20, 21}";
target = up;
type = BottomGhost;
},
{
place = "{606, 48}";
type = Stem;
}
);
layerId = "3787E0F5-978F-4E40-B775-08CB0E3B1585";
paths = (
{
closed = 1;
nodes = (
"687 280 OFFCURVE",
"454 279 OFFCURVE",
"432 279 CURVE SMOOTH",
"418 279 OFFCURVE",
"405 264 OFFCURVE",
"405 255 CURVE SMOOTH",
"405 251 OFFCURVE",
"408 248 OFFCURVE",
"415 248 CURVE SMOOTH",
"646 248 LINE",
"642 222 OFFCURVE",
"638 194 OFFCURVE",
"632 166 CURVE",
"603 108 OFFCURVE",
"511 7 OFFCURVE",
"339 7 CURVE SMOOTH",
"182 7 OFFCURVE",
"108 133 OFFCURVE",
"108 271 CURVE SMOOTH",
"108 457 OFFCURVE",
"242 633 OFFCURVE",
"479 633 CURVE SMOOTH",
"557 633 OFFCURVE",
"627 606 OFFCURVE",
"627 547 CURVE SMOOTH",
"627 526 OFFCURVE",
"607 499 OFFCURVE",
"607 485 CURVE SMOOTH",
"607 478 OFFCURVE",
"612 474 OFFCURVE",
"626 474 CURVE SMOOTH",
"650 474 OFFCURVE",
"670 495 OFFCURVE",
"670 536 CURVE SMOOTH",
"670 641 OFFCURVE",
"563 658 OFFCURVE",
"477 658 CURVE SMOOTH",
"205 658 OFFCURVE",
"59 477 OFFCURVE",
"59 273 CURVE SMOOTH",
"59 98 OFFCURVE",
"159 -16 OFFCURVE",
"348 -16 CURVE SMOOTH",
"442 -16 OFFCURVE",
"559 13 OFFCURVE",
"618 97 CURVE",
"612 64 OFFCURVE",
"606 30 OFFCURVE",
"606 4 CURVE SMOOTH",
"606 -12 OFFCURVE",
"615 -20 OFFCURVE",
"625 -20 CURVE SMOOTH",
"639 -20 OFFCURVE",
"657 -4 OFFCURVE",
"657 22 CURVE SMOOTH",
"657 34 OFFCURVE",
"654 46 OFFCURVE",
"654 61 CURVE SMOOTH",
"654 169 OFFCURVE",
"674 213 OFFCURVE",
"685 248 CURVE",
"705 248 LINE",
"731 252 OFFCURVE",
"743 268 OFFCURVE",
"743 276 CURVE SMOOTH",
"743 280 OFFCURVE",
"741 282 OFFCURVE",
"737 282 CURVE SMOOTH"
);
}
);
width = 780;
}
);
note = G;
unicode = 0047;
},
{
glyphname = H;
lastChange = "2021-03-03 20:58:28 +0000";
layers = (
{
background = {
paths = (
{
closed = 1;
nodes = (
"564 334 OFFCURVE",
"555 333 OFFCURVE",
"546 333 CURVE",
"563 454 OFFCURVE",
"590 565 OFFCURVE",
"625 645 CURVE",
"625 647 LINE SMOOTH",
"625 654 OFFCURVE",
"618 657 OFFCURVE",
"610 657 CURVE SMOOTH",
"555 657 OFFCURVE",
"535 613 OFFCURVE",
"535 569 CURVE SMOOTH",
"535 539 LINE",
"523 471 OFFCURVE",
"514 403 OFFCURVE",
"506 333 CURVE",
"400 332 OFFCURVE",
"215 331 OFFCURVE",
"147 331 CURVE",
"167 449 OFFCURVE",
"194 561 OFFCURVE",
"231 645 CURVE",
"231 647 LINE SMOOTH",
"231 654 OFFCURVE",
"224 657 OFFCURVE",
"216 657 CURVE SMOOTH",
"155 657 OFFCURVE",
"151 588 OFFCURVE",
"143 549 CURVE SMOOTH",
"128 477 OFFCURVE",
"116 403 OFFCURVE",
"107 331 CURVE",
"95 329 OFFCURVE",
"84 316 OFFCURVE",
"84 307 CURVE SMOOTH",
"84 303 OFFCURVE",
"87 300 OFFCURVE",
"94 300 CURVE SMOOTH",
"104 300 LINE",
"92 200 OFFCURVE",
"80 100 OFFCURVE",
"80 12 CURVE SMOOTH",
"80 -1 OFFCURVE",
"90 -8 OFFCURVE",
"101 -8 CURVE SMOOTH",
"113 -8 OFFCURVE",
"128 1 OFFCURVE",
"128 20 CURVE SMOOTH",
"128 30 OFFCURVE",
"121 36 OFFCURVE",
"121 56 CURVE SMOOTH",
"121 107 OFFCURVE",
"128 200 OFFCURVE",
"143 300 CURVE",
"502 300 LINE",
"492 207 OFFCURVE",
"483 112 OFFCURVE",
"474 14 CURVE",
"474 0 OFFCURVE",
"484 -8 OFFCURVE",
"498 -8 CURVE SMOOTH",
"513 -8 OFFCURVE",
"529 2 OFFCURVE",
"529 21 CURVE SMOOTH",
"529 29 OFFCURVE",
"524 29 OFFCURVE",
"522 47 CURVE",
"522 88 OFFCURVE",
"528 190 OFFCURVE",
"542 301 CURVE",
"565 306 OFFCURVE",
"575 320 OFFCURVE",
"575 328 CURVE SMOOTH",
"575 332 OFFCURVE",
"573 334 OFFCURVE",
"569 334 CURVE SMOOTH"
);
}
);
};
hints = (
{
horizontal = 1;
place = "{-8, 21}";
target = up;
type = BottomGhost;
},
{
horizontal = 1;
place = "{300, 33}";
type = Stem;
},
{
horizontal = 1;
place = "{657, -20}";
target = down;
type = TopGhost;
},
{
place = "{80, 41}";
type = Stem;
}
);
layerId = "3787E0F5-978F-4E40-B775-08CB0E3B1585";
paths = (
{
closed = 1;
nodes = (
"564 334 OFFCURVE",
"555 333 OFFCURVE",
"546 333 CURVE",
"563 454 OFFCURVE",
"590 565 OFFCURVE",
"625 645 CURVE",
"625 647 LINE SMOOTH",
"625 654 OFFCURVE",
"618 657 OFFCURVE",
"610 657 CURVE SMOOTH",
"555 657 OFFCURVE",
"535 613 OFFCURVE",
"535 569 CURVE SMOOTH",
"535 539 LINE",
"523 471 OFFCURVE",
"514 403 OFFCURVE",
"506 333 CURVE",
"400 332 OFFCURVE",
"215 331 OFFCURVE",
"147 331 CURVE",
"167 449 OFFCURVE",
"194 561 OFFCURVE",
"231 645 CURVE",
"231 647 LINE SMOOTH",
"231 654 OFFCURVE",
"224 657 OFFCURVE",
"216 657 CURVE SMOOTH",
"155 657 OFFCURVE",
"151 588 OFFCURVE",
"143 549 CURVE SMOOTH",
"128 477 OFFCURVE",
"116 403 OFFCURVE",
"107 331 CURVE",
"95 329 OFFCURVE",
"84 316 OFFCURVE",
"84 307 CURVE SMOOTH",
"84 303 OFFCURVE",
"87 300 OFFCURVE",
"94 300 CURVE SMOOTH",
"104 300 LINE",
"92 200 OFFCURVE",
"80 100 OFFCURVE",
"80 12 CURVE SMOOTH",
"80 -1 OFFCURVE",
"90 -8 OFFCURVE",
"101 -8 CURVE SMOOTH",
"113 -8 OFFCURVE",
"128 1 OFFCURVE",
"128 20 CURVE SMOOTH",
"128 30 OFFCURVE",
"121 36 OFFCURVE",
"121 56 CURVE SMOOTH",
"121 107 OFFCURVE",
"128 200 OFFCURVE",
"143 300 CURVE",
"502 300 LINE",
"492 207 OFFCURVE",
"483 112 OFFCURVE",
"474 14 CURVE SMOOTH",
"474 0 OFFCURVE",
"484 -8 OFFCURVE",
"498 -8 CURVE SMOOTH",
"513 -8 OFFCURVE",
"529 2 OFFCURVE",
"529 21 CURVE SMOOTH",
"529 29 OFFCURVE",
"524 29 OFFCURVE",
"522 47 CURVE SMOOTH",
"522 88 OFFCURVE",
"528 190 OFFCURVE",
"542 301 CURVE",
"565 306 OFFCURVE",
"575 320 OFFCURVE",
"575 328 CURVE SMOOTH",
"575 332 OFFCURVE",
"573 334 OFFCURVE",
"569 334 CURVE SMOOTH"
);
}
);
width = 689;
}
);
note = H;
unicode = 0048;
},
{
color = 9;
glyphname = I;
lastChange = "2021-03-03 20:55:47 +0000";
layers = (
{
background = {
paths = (
{
closed = 1;
nodes = (
"320 618 LINE",
"429 618 LINE",
"455 622 OFFCURVE",
"467 638 OFFCURVE",
"467 646 CURVE SMOOTH",
"467 650 OFFCURVE",
"465 652 OFFCURVE",
"461 652 CURVE SMOOTH",
"440 651 OFFCURVE",
"388 650 OFFCURVE",
"332 650 CURVE",
"338 659 LINE",
"338 661 LINE SMOOTH",
"338 668 OFFCURVE",
"331 671 OFFCURVE",
"323 671 CURVE SMOOTH",
"288 671 OFFCURVE",
"271 663 OFFCURVE",
"265 649 CURVE",
"156 649 LINE SMOOTH",
"142 649 OFFCURVE",
"129 634 OFFCURVE",
"129 625 CURVE SMOOTH",
"129 621 OFFCURVE",
"132 618 OFFCURVE",
"139 618 CURVE SMOOTH",
"255 618 LINE",
"255 610 OFFCURVE",
"253 606 OFFCURVE",
"253 598 CURVE SMOOTH",
"253 568 LINE",
"220 397 OFFCURVE",
"201 211 OFFCURVE",
"184 31 CURVE",
"73 31 LINE SMOOTH",
"59 31 OFFCURVE",
"46 16 OFFCURVE",
"46 7 CURVE SMOOTH",
"46 3 OFFCURVE",
"49 0 OFFCURVE",
"56 0 CURVE SMOOTH",
"187 0 LINE",
"191 -5 OFFCURVE",
"198 -8 OFFCURVE",
"206 -8 CURVE SMOOTH",
"214 -8 OFFCURVE",
"222 -5 OFFCURVE",
"228 0 CURVE",
"346 0 LINE",
"372 4 OFFCURVE",
"384 20 OFFCURVE",
"384 28 CURVE SMOOTH",
"384 32 OFFCURVE",
"382 34 OFFCURVE",
"378 34 CURVE SMOOTH",
"355 33 OFFCURVE",
"295 32 OFFCURVE",
"234 31 CURVE",
"232 34 OFFCURVE",
"231 39 OFFCURVE",
"231 47 CURVE SMOOTH",
"231 125 OFFCURVE",
"263 455 OFFCURVE",
"320 616 CURVE"
);
}
);
};
hints = (
{
horizontal = 1;
place = "{0, 31}";
type = Stem;
},
{
horizontal = 1;
place = "{618, 32}";
type = Stem;
},
{
horizontal = 1;
place = "{618, 53}";
type = Stem;
},
{
horizontal = 1;
place = "{-8, 21}";
target = up;
type = BottomGhost;
}
);
layerId = "3787E0F5-978F-4E40-B775-08CB0E3B1585";
paths = (
{
closed = 1;
nodes = (
"320 618 LINE",
"429 618 LINE",
"455 622 OFFCURVE",
"467 638 OFFCURVE",
"467 646 CURVE SMOOTH",
"467 650 OFFCURVE",
"465 652 OFFCURVE",
"461 652 CURVE SMOOTH",
"440 651 OFFCURVE",
"388 650 OFFCURVE",
"332 650 CURVE",
"338 659 LINE",
"338 661 LINE SMOOTH",
"338 668 OFFCURVE",
"331 671 OFFCURVE",
"323 671 CURVE SMOOTH",
"288 671 OFFCURVE",
"271 663 OFFCURVE",
"265 649 CURVE",
"156 649 LINE SMOOTH",
"142 649 OFFCURVE",
"129 634 OFFCURVE",
"129 625 CURVE SMOOTH",
"129 621 OFFCURVE",
"132 618 OFFCURVE",
"139 618 CURVE SMOOTH",
"255 618 LINE",
"255 610 OFFCURVE",
"253 606 OFFCURVE",
"253 598 CURVE SMOOTH",
"253 568 LINE",
"220 397 OFFCURVE",
"201 211 OFFCURVE",
"184 31 CURVE",
"73 31 LINE SMOOTH",
"59 31 OFFCURVE",
"46 16 OFFCURVE",
"46 7 CURVE SMOOTH",
"46 3 OFFCURVE",
"49 0 OFFCURVE",
"56 0 CURVE SMOOTH",
"187 0 LINE",
"191 -5 OFFCURVE",
"198 -8 OFFCURVE",
"206 -8 CURVE SMOOTH",
"214 -8 OFFCURVE",
"222 -5 OFFCURVE",
"228 0 CURVE",
"346 0 LINE",
"372 4 OFFCURVE",
"384 20 OFFCURVE",
"384 28 CURVE SMOOTH",
"384 32 OFFCURVE",
"382 34 OFFCURVE",
"378 34 CURVE SMOOTH",
"355 33 OFFCURVE",
"295 32 OFFCURVE",
"234 31 CURVE",
"232 34 OFFCURVE",
"231 39 OFFCURVE",
"231 47 CURVE SMOOTH",
"231 125 OFFCURVE",
"263 455 OFFCURVE",
"320 616 CURVE"
);
}
);
width = 458;
}
);
note = I;
rightKerningGroup = I;
unicode = 0049;
},
{
glyphname = J;
lastChange = "2021-03-03 20:55:47 +0000";
layers = (
{
background = {
paths = (
{
closed = 1;
nodes = (
"245 63 OFFCURVE",
"232 5 OFFCURVE",
"187 5 CURVE SMOOTH",
"102 5 OFFCURVE",
"59 167 OFFCURVE",
"48 167 CURVE SMOOTH",
"43 167 OFFCURVE",
"39 160 OFFCURVE",
"39 148 CURVE SMOOTH",
"39 92 OFFCURVE",
"129 -33 OFFCURVE",
"202 -33 CURVE SMOOTH",
"301 -33 OFFCURVE",
"310 180 OFFCURVE",
"327 346 CURVE SMOOTH",
"340 473 OFFCURVE",
"362 568 OFFCURVE",
"371 607 CURVE SMOOTH",
"374 618 LINE",
"463 618 LINE",
"489 622 OFFCURVE",
"501 638 OFFCURVE",
"501 646 CURVE SMOOTH",
"501 650 OFFCURVE",
"499 652 OFFCURVE",
"495 652 CURVE SMOOTH",
"476 651 OFFCURVE",
"433 650 OFFCURVE",
"387 650 CURVE",
"394 665 LINE",
"394 667 LINE SMOOTH",
"394 674 OFFCURVE",
"387 677 OFFCURVE",
"379 677 CURVE SMOOTH",
"358 677 OFFCURVE",
"339 666 OFFCURVE",
"330 649 CURVE",
"216 649 LINE SMOOTH",
"202 649 OFFCURVE",
"189 634 OFFCURVE",
"189 625 CURVE SMOOTH",
"189 621 OFFCURVE",
"192 618 OFFCURVE",
"199 618 CURVE SMOOTH",
"319 618 LINE",
"315 593 OFFCURVE",
"313 579 OFFCURVE",
"313 571 CURVE SMOOTH",
"313 565 OFFCURVE",
"313 562 OFFCURVE",
"315 561 CURVE",
"300 394 OFFCURVE",
"283 282 OFFCURVE",
"253 108 CURVE SMOOTH"
);
}
);
};
hints = (
{
horizontal = 1;
place = "{-33, 38}";
type = Stem;
},
{
horizontal = 1;
place = "{618, 31}";
type = Stem;
},
{
horizontal = 1;
place = "{618, 59}";
type = Stem;
}
);
layerId = "3787E0F5-978F-4E40-B775-08CB0E3B1585";
paths = (
{
closed = 1;
nodes = (
"245 63 OFFCURVE",
"232 5 OFFCURVE",
"187 5 CURVE SMOOTH",
"102 5 OFFCURVE",
"59 167 OFFCURVE",
"48 167 CURVE SMOOTH",
"43 167 OFFCURVE",
"39 160 OFFCURVE",
"39 148 CURVE SMOOTH",
"39 92 OFFCURVE",
"129 -33 OFFCURVE",
"202 -33 CURVE SMOOTH",
"301 -33 OFFCURVE",
"310 180 OFFCURVE",
"327 346 CURVE SMOOTH",
"340 473 OFFCURVE",
"362 568 OFFCURVE",
"371 607 CURVE SMOOTH",
"374 618 LINE",
"463 618 LINE",
"489 622 OFFCURVE",
"501 638 OFFCURVE",
"501 646 CURVE SMOOTH",
"501 650 OFFCURVE",
"499 652 OFFCURVE",
"495 652 CURVE SMOOTH",
"476 651 OFFCURVE",
"433 650 OFFCURVE",
"387 650 CURVE",
"394 665 LINE",
"394 667 LINE SMOOTH",
"394 674 OFFCURVE",
"387 677 OFFCURVE",
"379 677 CURVE SMOOTH",
"358 677 OFFCURVE",
"339 666 OFFCURVE",
"330 649 CURVE",
"216 649 LINE SMOOTH",
"202 649 OFFCURVE",
"189 634 OFFCURVE",
"189 625 CURVE SMOOTH",
"189 621 OFFCURVE",
"192 618 OFFCURVE",
"199 618 CURVE SMOOTH",
"319 618 LINE",
"315 593 OFFCURVE",
"313 579 OFFCURVE",
"313 571 CURVE SMOOTH",
"313 565 OFFCURVE",
"313 562 OFFCURVE",
"315 561 CURVE",
"300 394 OFFCURVE",
"283 282 OFFCURVE",
"253 108 CURVE SMOOTH"
);
}
);
width = 516;
}
);
note = J;
unicode = 004A;
},
{
glyphname = K;
lastChange = "2021-03-03 20:55:47 +0000";
layers = (
{
background = {
paths = (
{
closed = 1;
nodes = (
"273 115 OFFCURVE",
"422 -26 OFFCURVE",
"497 -26 CURVE SMOOTH",
"535 -26 OFFCURVE",
"590 12 OFFCURVE",
"590 110 CURVE SMOOTH",
"590 129 OFFCURVE",
"591 171 OFFCURVE",
"570 171 CURVE SMOOTH",
"565 171 OFFCURVE",
"561 167 OFFCURVE",
"561 155 CURVE SMOOTH",
"561 143 OFFCURVE",
"564 128 OFFCURVE",
"564 110 CURVE SMOOTH",
"564 60 OFFCURVE",
"554 6 OFFCURVE",
"516 6 CURVE",
"431 13 OFFCURVE",
"282 174 OFFCURVE",
"180 282 CURVE SMOOTH",
"173 289 OFFCURVE",
"168 297 OFFCURVE",
"168 303 CURVE SMOOTH",
"168 311 OFFCURVE",
"176 319 OFFCURVE",
"196 325 CURVE SMOOTH",
"319 361 OFFCURVE",
"659 615 OFFCURVE",
"659 676 CURVE SMOOTH",
"659 684 OFFCURVE",
"653 687 OFFCURVE",
"645 687 CURVE SMOOTH",
"626 687 OFFCURVE",
"595 670 OFFCURVE",
"595 656 CURVE SMOOTH",
"595 654 OFFCURVE",
"595 653 OFFCURVE",
"597 651 CURVE",
"562 621 OFFCURVE",
"425 446 OFFCURVE",
"208 361 CURVE SMOOTH",
"195 356 OFFCURVE",
"177 354 OFFCURVE",
"159 349 CURVE",
"175 465 OFFCURVE",
"201 568 OFFCURVE",
"235 645 CURVE",
"235 647 LINE SMOOTH",
"235 654 OFFCURVE",
"228 657 OFFCURVE",
"220 657 CURVE SMOOTH",
"165 657 OFFCURVE",
"145 613 OFFCURVE",
"145 569 CURVE SMOOTH",
"145 539 LINE",
"134 475 OFFCURVE",
"125 410 OFFCURVE",
"117 344 CURVE",
"109 344 LINE SMOOTH",
"96 344 OFFCURVE",
"85 346 OFFCURVE",
"80 351 CURVE",
"75 351 OFFCURVE",
"73 349 OFFCURVE",
"73 346 CURVE SMOOTH",
"73 336 OFFCURVE",
"91 315 OFFCURVE",
"111 293 CURVE",
"101 202 OFFCURVE",
"93 110 OFFCURVE",
"84 14 CURVE",
"84 0 OFFCURVE",
"94 -8 OFFCURVE",
"108 -8 CURVE SMOOTH",
"123 -8 OFFCURVE",
"139 2 OFFCURVE",
"139 21 CURVE SMOOTH",
"139 29 OFFCURVE",
"134 29 OFFCURVE",
"132 47 CURVE",
"132 82 OFFCURVE",
"136 163 OFFCURVE",
"147 256 CURVE",
"153 250 OFFCURVE",
"159 244 OFFCURVE",
"164 240 CURVE"
);
}
);
};
hints = (
{
horizontal = 1;
place = "{-26, 32}";
type = Stem;
},
{
horizontal = 1;
place = "{687, -20}";
target = down;
type = TopGhost;
},
{
place = "{564, 26}";
type = Stem;
},
{
horizontal = 1;
place = "{-8, 21}";
target = up;
type = BottomGhost;
}
);
layerId = "3787E0F5-978F-4E40-B775-08CB0E3B1585";
paths = (
{
closed = 1;
nodes = (
"273 115 OFFCURVE",
"422 -26 OFFCURVE",
"497 -26 CURVE SMOOTH",
"535 -26 OFFCURVE",
"590 12 OFFCURVE",
"590 110 CURVE SMOOTH",
"590 129 OFFCURVE",
"591 171 OFFCURVE",
"570 171 CURVE SMOOTH",
"565 171 OFFCURVE",
"561 167 OFFCURVE",
"561 155 CURVE SMOOTH",
"561 143 OFFCURVE",
"564 128 OFFCURVE",
"564 110 CURVE SMOOTH",
"564 60 OFFCURVE",
"554 6 OFFCURVE",
"516 6 CURVE",
"431 13 OFFCURVE",
"282 174 OFFCURVE",
"180 282 CURVE SMOOTH",
"173 289 OFFCURVE",
"168 297 OFFCURVE",
"168 303 CURVE SMOOTH",
"168 311 OFFCURVE",
"176 319 OFFCURVE",
"196 325 CURVE SMOOTH",
"319 361 OFFCURVE",
"659 615 OFFCURVE",
"659 676 CURVE SMOOTH",
"659 684 OFFCURVE",
"653 687 OFFCURVE",
"645 687 CURVE SMOOTH",
"626 687 OFFCURVE",
"595 670 OFFCURVE",
"595 656 CURVE SMOOTH",
"595 654 OFFCURVE",
"595 653 OFFCURVE",
"597 651 CURVE",
"562 621 OFFCURVE",
"425 446 OFFCURVE",
"208 361 CURVE SMOOTH",
"195 356 OFFCURVE",
"177 354 OFFCURVE",
"159 349 CURVE",
"175 465 OFFCURVE",
"201 568 OFFCURVE",
"235 645 CURVE",
"235 647 LINE SMOOTH",
"235 654 OFFCURVE",
"228 657 OFFCURVE",
"220 657 CURVE SMOOTH",
"165 657 OFFCURVE",
"145 613 OFFCURVE",
"145 569 CURVE SMOOTH",
"145 539 LINE",
"134 475 OFFCURVE",
"125 410 OFFCURVE",
"117 344 CURVE",
"109 344 LINE SMOOTH",
"96 344 OFFCURVE",
"85 346 OFFCURVE",
"80 351 CURVE",
"75 351 OFFCURVE",
"73 349 OFFCURVE",
"73 346 CURVE SMOOTH",
"73 336 OFFCURVE",
"91 315 OFFCURVE",
"111 293 CURVE",
"101 202 OFFCURVE",
"93 110 OFFCURVE",
"84 14 CURVE",
"84 0 OFFCURVE",
"94 -8 OFFCURVE",
"108 -8 CURVE SMOOTH",
"123 -8 OFFCURVE",
"139 2 OFFCURVE",
"139 21 CURVE SMOOTH",
"139 29 OFFCURVE",
"134 29 OFFCURVE",
"132 47 CURVE",
"132 82 OFFCURVE",
"136 163 OFFCURVE",
"147 256 CURVE",
"153 250 OFFCURVE",
"159 244 OFFCURVE",
"164 240 CURVE"
);
}
);
width = 635;
}
);
note = K;
unicode = 004B;
},
{
glyphname = L;
lastChange = "2021-03-03 20:55:47 +0000";
layers = (
{
background = {
paths = (
{
closed = 1;
nodes = (
"220 600 OFFCURVE",
"239 634 OFFCURVE",
"239 647 CURVE SMOOTH",
"239 654 OFFCURVE",
"232 657 OFFCURVE",
"224 657 CURVE SMOOTH",
"169 657 OFFCURVE",
"149 613 OFFCURVE",
"149 569 CURVE SMOOTH",
"149 539 LINE",
"122 380 OFFCURVE",
"106 214 OFFCURVE",
"90 39 CURVE",
"75 34 OFFCURVE",
"56 15 OFFCURVE",
"56 5 CURVE SMOOTH",
"56 2 OFFCURVE",
"58 0 OFFCURVE",
"63 0 CURVE SMOOTH",
"92 0 LINE",
"96 -5 OFFCURVE",
"103 -8 OFFCURVE",
"111 -8 CURVE SMOOTH",
"119 -8 OFFCURVE",
"127 -5 OFFCURVE",
"133 0 CURVE",
"215 0 OFFCURVE",
"299 -1 OFFCURVE",
"379 -1 CURVE SMOOTH",
"434 -1 OFFCURVE",
"525 -16 OFFCURVE",
"525 36 CURVE SMOOTH",
"525 42 OFFCURVE",
"524 46 OFFCURVE",
"521 46 CURVE SMOOTH",
"520 46 LINE",
"485 35 OFFCURVE",
"434 30 OFFCURVE",
"405 30 CURVE SMOOTH",
"274 30 OFFCURVE",
"188 31 OFFCURVE",
"139 31 CURVE",
"138 34 OFFCURVE",
"136 38 OFFCURVE",
"136 47 CURVE SMOOTH",
"136 125 OFFCURVE",
"159 426 OFFCURVE",
"216 587 CURVE SMOOTH"
);
}
);
};
hints = (
{
horizontal = 1;
place = "{0, 30}";
type = Stem;
},
{
horizontal = 1;
place = "{657, -20}";
target = down;
type = TopGhost;
},
{
horizontal = 1;
place = "{-8, 21}";
target = up;
type = BottomGhost;
},
{
horizontal = 1;
place = "{-1, 21}";
target = up;
type = BottomGhost;
}
);
layerId = "3787E0F5-978F-4E40-B775-08CB0E3B1585";
paths = (
{
closed = 1;
nodes = (
"220 600 OFFCURVE",
"239 634 OFFCURVE",
"239 647 CURVE SMOOTH",
"239 654 OFFCURVE",
"232 657 OFFCURVE",
"224 657 CURVE SMOOTH",
"169 657 OFFCURVE",
"149 613 OFFCURVE",
"149 569 CURVE SMOOTH",
"149 539 LINE",
"122 380 OFFCURVE",
"106 214 OFFCURVE",
"90 39 CURVE",
"75 34 OFFCURVE",
"56 15 OFFCURVE",
"56 5 CURVE SMOOTH",
"56 2 OFFCURVE",
"58 0 OFFCURVE",
"63 0 CURVE SMOOTH",
"92 0 LINE",
"96 -5 OFFCURVE",
"103 -8 OFFCURVE",
"111 -8 CURVE SMOOTH",
"119 -8 OFFCURVE",
"127 -5 OFFCURVE",
"133 0 CURVE",
"215 0 OFFCURVE",
"299 -1 OFFCURVE",
"379 -1 CURVE SMOOTH",
"434 -1 OFFCURVE",
"525 -16 OFFCURVE",
"525 36 CURVE SMOOTH",
"525 42 OFFCURVE",
"524 46 OFFCURVE",
"521 46 CURVE SMOOTH",
"520 46 LINE",
"485 35 OFFCURVE",
"434 30 OFFCURVE",
"405 30 CURVE SMOOTH",
"274 30 OFFCURVE",
"188 31 OFFCURVE",
"139 31 CURVE",
"138 34 OFFCURVE",
"136 38 OFFCURVE",
"136 47 CURVE SMOOTH",
"136 125 OFFCURVE",
"159 426 OFFCURVE",
"216 587 CURVE SMOOTH"
);
}
);
width = 579;
}
);
note = L;
unicode = 004C;
},
{
glyphname = M;
lastChange = "2021-03-03 20:55:47 +0000";
layers = (
{
background = {
paths = (
{
closed = 1;
nodes = (
"696 601 OFFCURVE",
"711 632 OFFCURVE",
"711 646 CURVE SMOOTH",
"711 654 OFFCURVE",
"703 657 OFFCURVE",
"695 657 CURVE SMOOTH",
"642 657 OFFCURVE",
"626 618 OFFCURVE",
"626 575 CURVE SMOOTH",
"626 566 OFFCURVE",
"629 554 OFFCURVE",
"629 544 CURVE SMOOTH",
"629 539 LINE",
"626 509 LINE",
"525 273 OFFCURVE",
"412 187 OFFCURVE",
"356 187 CURVE SMOOTH",
"253 187 OFFCURVE",
"211 398 OFFCURVE",
"204 557 CURVE",
"216 587 LINE SMOOTH",
"221 600 OFFCURVE",
"244 636 OFFCURVE",
"244 648 CURVE SMOOTH",
"244 655 OFFCURVE",
"237 657 OFFCURVE",
"230 657 CURVE SMOOTH",
"225 657 OFFCURVE",
"220 656 OFFCURVE",
"217 655 CURVE SMOOTH",
"210 653 LINE",
"207 654 OFFCURVE",
"204 654 OFFCURVE",
"200 654 CURVE SMOOTH",
"182 654 OFFCURVE",
"156 641 OFFCURVE",
"156 581 CURVE SMOOTH",
"156 570 OFFCURVE",
"158 562 OFFCURVE",
"163 558 CURVE",
"161 554 OFFCURVE",
"160 550 OFFCURVE",
"160 549 CURVE",
"109 367 OFFCURVE",
"77 176 OFFCURVE",
"55 14 CURVE",
"55 9 LINE SMOOTH",
"55 -2 OFFCURVE",
"61 -8 OFFCURVE",
"69 -8 CURVE SMOOTH",
"77 -8 OFFCURVE",
"92 2 OFFCURVE",
"92 23 CURVE SMOOTH",
"92 32 OFFCURVE",
"88 39 OFFCURVE",
"88 56 CURVE",
"94 136 OFFCURVE",
"126 316 OFFCURVE",
"173 467 CURVE",
"190 324 OFFCURVE",
"240 139 OFFCURVE",
"343 139 CURVE SMOOTH",
"404 139 OFFCURVE",
"513 218 OFFCURVE",
"621 444 CURVE",
"613 306 OFFCURVE",
"611 163 OFFCURVE",
"610 11 CURVE SMOOTH",
"610 -1 OFFCURVE",
"622 -8 OFFCURVE",
"635 -8 CURVE SMOOTH",
"650 -8 OFFCURVE",
"663 1 OFFCURVE",
"663 20 CURVE SMOOTH",
"663 29 OFFCURVE",
"657 27 OFFCURVE",
"655 47 CURVE SMOOTH",
"652 68 OFFCURVE",
"652 108 OFFCURVE",
"652 157 CURVE SMOOTH",
"652 282 OFFCURVE",
"660 471 OFFCURVE",
"693 587 CURVE SMOOTH"
);
}
);
};
hints = (
{
horizontal = 1;
place = "{-8, 21}";
target = up;
type = BottomGhost;
},
{
horizontal = 1;
place = "{139, 48}";
type = Stem;
},
{
horizontal = 1;
place = "{657, -20}";
target = down;
type = TopGhost;
},
{
place = "{621, 31}";
type = Stem;
}
);
layerId = "3787E0F5-978F-4E40-B775-08CB0E3B1585";
paths = (
{
closed = 1;
nodes = (
"696 601 OFFCURVE",
"711 632 OFFCURVE",
"711 646 CURVE SMOOTH",
"711 654 OFFCURVE",
"703 657 OFFCURVE",
"695 657 CURVE SMOOTH",
"642 657 OFFCURVE",
"626 618 OFFCURVE",
"626 575 CURVE SMOOTH",
"626 566 OFFCURVE",
"629 554 OFFCURVE",
"629 544 CURVE SMOOTH",
"629 539 LINE",
"626 509 LINE",
"525 273 OFFCURVE",
"412 187 OFFCURVE",
"356 187 CURVE SMOOTH",
"253 187 OFFCURVE",
"211 398 OFFCURVE",
"204 557 CURVE",
"216 587 LINE SMOOTH",
"221 600 OFFCURVE",
"244 636 OFFCURVE",
"244 648 CURVE SMOOTH",
"244 655 OFFCURVE",
"237 657 OFFCURVE",
"230 657 CURVE SMOOTH",
"225 657 OFFCURVE",
"220 656 OFFCURVE",
"217 655 CURVE SMOOTH",
"210 653 LINE",
"207 654 OFFCURVE",
"204 654 OFFCURVE",
"200 654 CURVE SMOOTH",
"182 654 OFFCURVE",
"156 641 OFFCURVE",
"156 581 CURVE SMOOTH",
"156 570 OFFCURVE",
"158 562 OFFCURVE",
"163 558 CURVE",
"161 554 OFFCURVE",
"160 550 OFFCURVE",
"160 549 CURVE",
"109 367 OFFCURVE",
"77 176 OFFCURVE",
"55 14 CURVE",
"55 9 LINE SMOOTH",
"55 -2 OFFCURVE",
"61 -8 OFFCURVE",
"69 -8 CURVE SMOOTH",
"77 -8 OFFCURVE",
"92 2 OFFCURVE",
"92 23 CURVE SMOOTH",
"92 32 OFFCURVE",
"88 39 OFFCURVE",
"88 56 CURVE",
"94 136 OFFCURVE",
"126 316 OFFCURVE",
"173 467 CURVE",
"190 324 OFFCURVE",
"240 139 OFFCURVE",
"343 139 CURVE SMOOTH",
"404 139 OFFCURVE",
"513 218 OFFCURVE",
"621 444 CURVE",
"613 306 OFFCURVE",
"611 163 OFFCURVE",
"610 11 CURVE SMOOTH",
"610 -1 OFFCURVE",
"622 -8 OFFCURVE",
"635 -8 CURVE SMOOTH",
"650 -8 OFFCURVE",
"663 1 OFFCURVE",
"663 20 CURVE SMOOTH",
"663 29 OFFCURVE",
"657 27 OFFCURVE",
"655 47 CURVE SMOOTH",
"652 68 OFFCURVE",
"652 108 OFFCURVE",
"652 157 CURVE SMOOTH",
"652 282 OFFCURVE",
"660 471 OFFCURVE",
"693 587 CURVE SMOOTH"
);
}
);
width = 755;
}
);
note = M;
unicode = 004D;
},
{
glyphname = N;
lastChange = "2021-03-03 20:55:47 +0000";
layers = (
{
background = {
paths = (
{
closed = 1;
nodes = (
"86 19 OFFCURVE",
"101 0 OFFCURVE",
"114 0 CURVE SMOOTH",
"125 0 OFFCURVE",
"128 12 OFFCURVE",
"128 39 CURVE SMOOTH",
"128 55 OFFCURVE",
"127 73 OFFCURVE",
"127 87 CURVE SMOOTH",
"127 176 OFFCURVE",
"153 407 OFFCURVE",
"195 547 CURVE",
"196 508 OFFCURVE",
"205 471 OFFCURVE",
"258 410 CURVE SMOOTH",
"313 347 OFFCURVE",
"442 225 OFFCURVE",
"489 162 CURVE SMOOTH",
"500 146 OFFCURVE",
"512 120 OFFCURVE",
"520 95 CURVE",
"513 13 LINE",
"513 -1 OFFCURVE",
"520 -9 OFFCURVE",
"531 -9 CURVE SMOOTH",
"540 -9 OFFCURVE",
"551 -1 OFFCURVE",
"554 14 CURVE",
"554 20 LINE",
"559 33 OFFCURVE",
"564 53 OFFCURVE",
"564 76 CURVE SMOOTH",
"564 95 OFFCURVE",
"561 117 OFFCURVE",
"553 139 CURVE",
"565 311 OFFCURVE",
"597 520 OFFCURVE",
"651 644 CURVE",
"651 646 LINE SMOOTH",
"651 653 OFFCURVE",
"644 656 OFFCURVE",
"636 656 CURVE SMOOTH",
"580 656 OFFCURVE",
"574 612 OFFCURVE",
"574 568 CURVE SMOOTH",
"574 538 LINE",
"562 470 OFFCURVE",
"552 402 OFFCURVE",
"545 332 CURVE SMOOTH",
"529 185 LINE",
"520 197 LINE SMOOTH",
"407 337 OFFCURVE",
"215 475 OFFCURVE",
"215 576 CURVE SMOOTH",
"215 588 OFFCURVE",
"241 627 OFFCURVE",
"241 647 CURVE SMOOTH",
"241 653 OFFCURVE",
"231 656 OFFCURVE",
"218 656 CURVE SMOOTH",
"182 656 OFFCURVE",
"158 630 OFFCURVE",
"158 569 CURVE SMOOTH",
"158 563 OFFCURVE",
"158 557 OFFCURVE",
"159 551 CURVE",
"140 442 OFFCURVE",
"92 162 OFFCURVE",
"86 38 CURVE SMOOTH"
);
}
);
};
hints = (
{
horizontal = 1;
place = "{0, 21}";
target = up;
type = BottomGhost;
},
{
horizontal = 1;
place = "{656, -20}";
target = down;
type = TopGhost;
},
{
place = "{86, 41}";
type = Stem;
},
{
place = "{158, 57}";
type = Stem;
},
{
horizontal = 1;
place = "{-9, 21}";
target = up;
type = BottomGhost;
}
);
layerId = "3787E0F5-978F-4E40-B775-08CB0E3B1585";
paths = (
{
closed = 1;
nodes = (
"86 19 OFFCURVE",
"101 0 OFFCURVE",
"114 0 CURVE SMOOTH",
"125 0 OFFCURVE",
"128 12 OFFCURVE",
"128 39 CURVE SMOOTH",
"128 55 OFFCURVE",
"127 73 OFFCURVE",
"127 87 CURVE SMOOTH",
"127 176 OFFCURVE",
"153 407 OFFCURVE",
"195 547 CURVE",
"196 508 OFFCURVE",
"205 471 OFFCURVE",
"258 410 CURVE SMOOTH",
"313 347 OFFCURVE",
"442 225 OFFCURVE",
"489 162 CURVE SMOOTH",
"500 146 OFFCURVE",
"512 120 OFFCURVE",
"520 95 CURVE",
"513 13 LINE",
"513 -1 OFFCURVE",
"520 -9 OFFCURVE",
"531 -9 CURVE SMOOTH",
"540 -9 OFFCURVE",
"551 -1 OFFCURVE",
"554 14 CURVE",
"554 20 LINE",
"559 33 OFFCURVE",
"564 53 OFFCURVE",
"564 76 CURVE SMOOTH",
"564 95 OFFCURVE",
"561 117 OFFCURVE",
"553 139 CURVE",
"565 311 OFFCURVE",
"597 520 OFFCURVE",
"651 644 CURVE",
"651 646 LINE SMOOTH",
"651 653 OFFCURVE",
"644 656 OFFCURVE",
"636 656 CURVE SMOOTH",
"580 656 OFFCURVE",
"574 612 OFFCURVE",
"574 568 CURVE SMOOTH",
"574 538 LINE",
"562 470 OFFCURVE",
"552 402 OFFCURVE",
"545 332 CURVE SMOOTH",
"529 185 LINE",
"520 197 LINE SMOOTH",
"407 337 OFFCURVE",
"215 475 OFFCURVE",
"215 576 CURVE SMOOTH",
"215 588 OFFCURVE",
"241 627 OFFCURVE",
"241 647 CURVE SMOOTH",
"241 653 OFFCURVE",
"231 656 OFFCURVE",
"218 656 CURVE SMOOTH",
"182 656 OFFCURVE",
"158 630 OFFCURVE",
"158 569 CURVE SMOOTH",
"158 563 OFFCURVE",
"158 557 OFFCURVE",
"159 551 CURVE",
"140 442 OFFCURVE",
"92 162 OFFCURVE",
"86 38 CURVE SMOOTH"
);
}
);
width = 680;
}
);
note = N;
unicode = 004E;
},
{
glyphname = O;
lastChange = "2021-03-03 20:55:47 +0000";
layers = (
{
background = {
paths = (
{
closed = 1;
nodes = (
"749 521 OFFCURVE",
"662 595 OFFCURVE",
"531 614 CURVE",
"540 626 OFFCURVE",
"554 648 OFFCURVE",
"554 667 CURVE SMOOTH",
"554 697 OFFCURVE",
"515 705 OFFCURVE",
"484 705 CURVE SMOOTH",
"389 705 OFFCURVE",
"296 649 OFFCURVE",
"233 588 CURVE",
"203 577 OFFCURVE",
"117 541 OFFCURVE",
"117 525 CURVE SMOOTH",
"117 520 OFFCURVE",
"121 516 OFFCURVE",
"126 516 CURVE SMOOTH",
"131 516 OFFCURVE",
"164 535 OFFCURVE",
"195 549 CURVE",
"104 465 OFFCURVE",
"62 352 OFFCURVE",
"62 248 CURVE SMOOTH",
"62 102 OFFCURVE",
"153 -18 OFFCURVE",
"348 -18 CURVE SMOOTH",
"545 -18 OFFCURVE",
"749 127 OFFCURVE",
"749 371 CURVE SMOOTH"
);
},
{
closed = 1;
nodes = (
"488 620 OFFCURVE",
"460 621 OFFCURVE",
"432 621 CURVE SMOOTH",
"378 621 OFFCURVE",
"324 615 OFFCURVE",
"285 603 CURVE",
"334 642 OFFCURVE",
"420 675 OFFCURVE",
"485 675 CURVE SMOOTH",
"509 675 OFFCURVE",
"523 669 OFFCURVE",
"523 651 CURVE SMOOTH",
"523 642 OFFCURVE",
"520 631 OFFCURVE",
"514 617 CURVE"
);
},
{
closed = 1;
nodes = (
"308 584 OFFCURVE",
"384 597 OFFCURVE",
"459 597 CURVE SMOOTH",
"473 597 OFFCURVE",
"486 597 OFFCURVE",
"500 596 CURVE",
"494 591 OFFCURVE",
"491 584 OFFCURVE",
"491 580 CURVE SMOOTH",
"491 577 OFFCURVE",
"493 576 OFFCURVE",
"496 576 CURVE SMOOTH",
"500 576 OFFCURVE",
"509 580 OFFCURVE",
"521 594 CURVE",
"628 580 OFFCURVE",
"703 485 OFFCURVE",
"703 368 CURVE SMOOTH",
"703 139 OFFCURVE",
"511 6 OFFCURVE",
"355 6 CURVE SMOOTH",
"185 6 OFFCURVE",
"110 126 OFFCURVE",
"110 262 CURVE SMOOTH",
"110 372 OFFCURVE",
"150 492 OFFCURVE",
"253 569 CURVE"
);
}
);
};
hints = (
{
horizontal = 1;
place = "{-18, 24}";
type = Stem;
},
{
horizontal = 1;
place = "{597, 24}";
type = Stem;
},
{
horizontal = 1;
place = "{675, 30}";
type = Stem;
},
{
place = "{62, 48}";
type = Stem;
},
{
place = "{523, 31}";
type = Stem;
},
{
place = "{703, 46}";
type = Stem;
}
);
layerId = "3787E0F5-978F-4E40-B775-08CB0E3B1585";
paths = (
{
closed = 1;
nodes = (
"749 521 OFFCURVE",
"662 595 OFFCURVE",
"531 614 CURVE",
"540 626 OFFCURVE",
"554 648 OFFCURVE",
"554 667 CURVE SMOOTH",
"554 697 OFFCURVE",
"515 705 OFFCURVE",
"484 705 CURVE SMOOTH",
"389 705 OFFCURVE",
"296 649 OFFCURVE",
"233 588 CURVE",
"203 577 OFFCURVE",
"117 541 OFFCURVE",
"117 525 CURVE SMOOTH",
"117 520 OFFCURVE",
"121 516 OFFCURVE",
"126 516 CURVE SMOOTH",
"131 516 OFFCURVE",
"164 535 OFFCURVE",
"195 549 CURVE",
"104 465 OFFCURVE",
"62 352 OFFCURVE",
"62 248 CURVE SMOOTH",
"62 102 OFFCURVE",
"153 -18 OFFCURVE",
"348 -18 CURVE SMOOTH",
"545 -18 OFFCURVE",
"749 127 OFFCURVE",
"749 371 CURVE SMOOTH"
);
},
{
closed = 1;
nodes = (
"488 620 OFFCURVE",
"460 621 OFFCURVE",
"432 621 CURVE SMOOTH",
"378 621 OFFCURVE",
"324 615 OFFCURVE",
"285 603 CURVE",
"334 642 OFFCURVE",
"420 675 OFFCURVE",
"485 675 CURVE SMOOTH",
"509 675 OFFCURVE",
"523 669 OFFCURVE",
"523 651 CURVE SMOOTH",
"523 642 OFFCURVE",
"520 631 OFFCURVE",
"514 617 CURVE"
);
},
{
closed = 1;
nodes = (
"308 584 OFFCURVE",
"384 597 OFFCURVE",
"459 597 CURVE SMOOTH",
"473 597 OFFCURVE",
"486 597 OFFCURVE",
"500 596 CURVE",
"494 591 OFFCURVE",
"491 584 OFFCURVE",
"491 580 CURVE SMOOTH",
"491 577 OFFCURVE",
"493 576 OFFCURVE",
"496 576 CURVE SMOOTH",
"500 576 OFFCURVE",
"509 580 OFFCURVE",
"521 594 CURVE",
"628 580 OFFCURVE",
"703 485 OFFCURVE",
"703 368 CURVE SMOOTH",
"703 139 OFFCURVE",
"511 6 OFFCURVE",
"355 6 CURVE SMOOTH",
"185 6 OFFCURVE",
"110 126 OFFCURVE",
"110 262 CURVE SMOOTH",
"110 372 OFFCURVE",
"150 492 OFFCURVE",
"253 569 CURVE"
);
}
);
width = 796;
}
);
leftKerningGroup = O;
note = O;
rightKerningGroup = O;
unicode = 004F;
},
{
glyphname = P;
lastChange = "2021-03-03 20:55:47 +0000";
layers = (
{
background = {
paths = (
{
closed = 1;
nodes = (
"122 12 OFFCURVE",
"127 10 OFFCURVE",
"127 17 CURVE SMOOTH",
"127 15 OFFCURVE",
"121 41 OFFCURVE",
"121 74 CURVE SMOOTH",
"121 155 OFFCURVE",
"129 249 OFFCURVE",
"135 283 CURVE",
"141 280 OFFCURVE",
"165 278 OFFCURVE",
"197 278 CURVE SMOOTH",
"239 278 OFFCURVE",
"294 283 OFFCURVE",
"340 299 CURVE SMOOTH",
"403 321 OFFCURVE",
"498 402 OFFCURVE",
"498 493 CURVE SMOOTH",
"498 616 OFFCURVE",
"310 641 OFFCURVE",
"223 649 CURVE",
"228 665 OFFCURVE",
"232 664 OFFCURVE",
"239 680 CURVE",
"239 689 OFFCURVE",
"232 692 OFFCURVE",
"223 692 CURVE SMOOTH",
"189 692 OFFCURVE",
"164 676 OFFCURVE",
"160 653 CURVE",
"128 653 OFFCURVE",
"87 649 OFFCURVE",
"87 636 CURVE SMOOTH",
"87 632 OFFCURVE",
"93 629 OFFCURVE",
"109 628 CURVE SMOOTH",
"120 628 OFFCURVE",
"135 630 OFFCURVE",
"148 630 CURVE SMOOTH",
"154 630 LINE",
"151 621 OFFCURVE",
"146 597 OFFCURVE",
"146 589 CURVE SMOOTH",
"146 583 OFFCURVE",
"149 581 OFFCURVE",
"149 576 CURVE SMOOTH",
"149 574 LINE",
"118 427 OFFCURVE",
"77 105 OFFCURVE",
"77 14 CURVE SMOOTH",
"77 1 OFFCURVE",
"84 -2 OFFCURVE",
"99 -2 CURVE SMOOTH",
"108 -2 OFFCURVE",
"118 1 OFFCURVE",
"121 8 CURVE SMOOTH"
);
},
{
closed = 1;
nodes = (
"454 581 OFFCURVE",
"454 487 CURVE SMOOTH",
"454 381 OFFCURVE",
"334 313 OFFCURVE",
"256 305 CURVE SMOOTH",
"242 303 OFFCURVE",
"223 303 OFFCURVE",
"204 303 CURVE SMOOTH",
"174 303 OFFCURVE",
"145 305 OFFCURVE",
"141 309 CURVE",
"147 368 OFFCURVE",
"190 577 OFFCURVE",
"215 626 CURVE",
"299 617 OFFCURVE"
);
}
);
};
hints = (
{
horizontal = 1;
place = "{-2, 21}";
target = up;
type = BottomGhost;
},
{
horizontal = 1;
place = "{278, 25}";
type = Stem;
},
{
horizontal = 1;
place = "{628, 64}";
type = Stem;
},
{
place = "{77, 44}";
type = Stem;
},
{
place = "{454, 44}";
type = Stem;
}
);
layerId = "3787E0F5-978F-4E40-B775-08CB0E3B1585";
paths = (
{
closed = 1;
nodes = (
"122 12 OFFCURVE",
"127 10 OFFCURVE",
"127 17 CURVE SMOOTH",
"127 15 OFFCURVE",
"121 41 OFFCURVE",
"121 74 CURVE SMOOTH",
"121 155 OFFCURVE",
"129 249 OFFCURVE",
"135 283 CURVE",
"141 280 OFFCURVE",
"165 278 OFFCURVE",
"197 278 CURVE SMOOTH",
"239 278 OFFCURVE",
"294 283 OFFCURVE",
"340 299 CURVE SMOOTH",
"403 321 OFFCURVE",
"498 402 OFFCURVE",
"498 493 CURVE SMOOTH",
"498 616 OFFCURVE",
"310 641 OFFCURVE",
"223 649 CURVE",
"228 665 OFFCURVE",
"232 664 OFFCURVE",
"239 680 CURVE",
"239 689 OFFCURVE",
"232 692 OFFCURVE",
"223 692 CURVE SMOOTH",
"189 692 OFFCURVE",
"164 676 OFFCURVE",
"160 653 CURVE",
"128 653 OFFCURVE",
"87 649 OFFCURVE",
"87 636 CURVE SMOOTH",
"87 632 OFFCURVE",
"93 629 OFFCURVE",
"109 628 CURVE SMOOTH",
"120 628 OFFCURVE",
"135 630 OFFCURVE",
"148 630 CURVE SMOOTH",
"154 630 LINE",
"151 621 OFFCURVE",
"146 597 OFFCURVE",
"146 589 CURVE SMOOTH",
"146 583 OFFCURVE",
"149 581 OFFCURVE",
"149 576 CURVE SMOOTH",
"149 574 LINE",
"118 427 OFFCURVE",
"77 105 OFFCURVE",
"77 14 CURVE SMOOTH",
"77 1 OFFCURVE",
"84 -2 OFFCURVE",
"99 -2 CURVE SMOOTH",
"108 -2 OFFCURVE",
"118 1 OFFCURVE",
"121 8 CURVE SMOOTH"
);
},
{
closed = 1;
nodes = (
"454 581 OFFCURVE",
"454 487 CURVE SMOOTH",
"454 381 OFFCURVE",
"334 313 OFFCURVE",
"256 305 CURVE SMOOTH",
"242 303 OFFCURVE",
"223 303 OFFCURVE",
"204 303 CURVE SMOOTH",
"174 303 OFFCURVE",
"145 305 OFFCURVE",
"141 309 CURVE",
"147 368 OFFCURVE",
"190 577 OFFCURVE",
"215 626 CURVE",
"299 617 OFFCURVE"
);
}
);
width = 523;
}
);
note = P;
unicode = 0050;
},
{
glyphname = Q;
lastChange = "2021-03-03 20:55:47 +0000";
layers = (
{
background = {
paths = (
{
closed = 1;
nodes = (
"749 521 OFFCURVE",
"662 595 OFFCURVE",
"531 614 CURVE",
"540 626 OFFCURVE",
"554 648 OFFCURVE",
"554 667 CURVE SMOOTH",
"554 697 OFFCURVE",
"515 705 OFFCURVE",
"484 705 CURVE SMOOTH",
"389 705 OFFCURVE",
"296 649 OFFCURVE",
"233 588 CURVE",
"203 577 OFFCURVE",
"117 541 OFFCURVE",
"117 525 CURVE SMOOTH",
"117 520 OFFCURVE",
"121 516 OFFCURVE",
"126 516 CURVE SMOOTH",
"131 516 OFFCURVE",
"164 535 OFFCURVE",
"195 549 CURVE",
"104 465 OFFCURVE",
"62 352 OFFCURVE",
"62 248 CURVE SMOOTH",
"62 102 OFFCURVE",
"153 -18 OFFCURVE",
"348 -18 CURVE SMOOTH",
"373 -18 OFFCURVE",
"399 -15 OFFCURVE",
"424 -11 CURVE",
"490 -113 OFFCURVE",
"548 -242 OFFCURVE",
"656 -242 CURVE SMOOTH",
"704 -242 OFFCURVE",
"768 -211 OFFCURVE",
"768 -133 CURVE SMOOTH",
"768 -126 OFFCURVE",
"767 -117 OFFCURVE",
"763 -117 CURVE SMOOTH",
"751 -117 OFFCURVE",
"749 -214 OFFCURVE",
"680 -214 CURVE SMOOTH",
"590 -214 OFFCURVE",
"511 -83 OFFCURVE",
"460 -2 CURVE",
"615 41 OFFCURVE",
"749 173 OFFCURVE",
"749 371 CURVE SMOOTH"
);
},
{
closed = 1;
nodes = (
"308 584 OFFCURVE",
"384 597 OFFCURVE",
"459 597 CURVE SMOOTH",
"473 597 OFFCURVE",
"486 597 OFFCURVE",
"500 596 CURVE",
"494 591 OFFCURVE",
"491 584 OFFCURVE",
"491 580 CURVE SMOOTH",
"491 577 OFFCURVE",
"493 576 OFFCURVE",
"496 576 CURVE SMOOTH",
"500 576 OFFCURVE",
"509 580 OFFCURVE",
"521 594 CURVE",
"628 580 OFFCURVE",
"703 485 OFFCURVE",
"703 368 CURVE SMOOTH",
"703 182 OFFCURVE",
"577 60 OFFCURVE",
"446 20 CURVE",
"405 80 OFFCURVE",
"354 152 OFFCURVE",
"298 152 CURVE SMOOTH",
"266 152 OFFCURVE",
"219 119 OFFCURVE",
"219 91 CURVE SMOOTH",
"219 90 OFFCURVE",
"220 89 OFFCURVE",
"221 89 CURVE SMOOTH",
"237 89 OFFCURVE",
"245 124 OFFCURVE",
"273 124 CURVE SMOOTH",
"321 124 OFFCURVE",
"371 66 OFFCURVE",
"410 11 CURVE",
"391 7 OFFCURVE",
"373 6 OFFCURVE",
"355 6 CURVE SMOOTH",
"185 6 OFFCURVE",
"110 126 OFFCURVE",
"110 262 CURVE SMOOTH",
"110 372 OFFCURVE",
"150 492 OFFCURVE",
"253 569 CURVE"
);
},
{
closed = 1;
nodes = (
"488 620 OFFCURVE",
"460 621 OFFCURVE",
"432 621 CURVE SMOOTH",
"378 621 OFFCURVE",
"324 615 OFFCURVE",
"285 603 CURVE",
"334 642 OFFCURVE",
"420 675 OFFCURVE",
"485 675 CURVE SMOOTH",
"509 675 OFFCURVE",
"523 669 OFFCURVE",
"523 651 CURVE SMOOTH",
"523 642 OFFCURVE",
"520 631 OFFCURVE",
"514 617 CURVE"
);
}
);
};
hints = (
{
horizontal = 1;
place = "{-242, 28}";
type = Stem;
},
{
horizontal = 1;
place = "{-18, 24}";
type = Stem;
},
{
horizontal = 1;
place = "{124, 28}";
type = Stem;
},
{
horizontal = 1;
place = "{597, 24}";
type = Stem;
},
{
horizontal = 1;
place = "{675, 30}";
type = Stem;
},
{
place = "{62, 48}";
type = Stem;
},
{
place = "{523, 31}";
type = Stem;
},
{
place = "{703, 46}";
type = Stem;
}
);
layerId = "3787E0F5-978F-4E40-B775-08CB0E3B1585";
paths = (
{
closed = 1;
nodes = (
"749 521 OFFCURVE",
"662 595 OFFCURVE",
"531 614 CURVE",
"540 626 OFFCURVE",
"554 648 OFFCURVE",
"554 667 CURVE SMOOTH",
"554 697 OFFCURVE",
"515 705 OFFCURVE",
"484 705 CURVE SMOOTH",
"389 705 OFFCURVE",
"296 649 OFFCURVE",
"233 588 CURVE",
"203 577 OFFCURVE",
"117 541 OFFCURVE",
"117 525 CURVE SMOOTH",
"117 520 OFFCURVE",
"121 516 OFFCURVE",
"126 516 CURVE SMOOTH",
"131 516 OFFCURVE",
"164 535 OFFCURVE",
"195 549 CURVE",
"104 465 OFFCURVE",
"62 352 OFFCURVE",
"62 248 CURVE SMOOTH",
"62 102 OFFCURVE",
"153 -18 OFFCURVE",
"348 -18 CURVE SMOOTH",
"373 -18 OFFCURVE",
"399 -15 OFFCURVE",
"424 -11 CURVE",
"490 -113 OFFCURVE",
"548 -242 OFFCURVE",
"656 -242 CURVE SMOOTH",
"704 -242 OFFCURVE",
"768 -211 OFFCURVE",
"768 -133 CURVE SMOOTH",
"768 -126 OFFCURVE",
"767 -117 OFFCURVE",
"763 -117 CURVE SMOOTH",
"751 -117 OFFCURVE",
"749 -214 OFFCURVE",
"680 -214 CURVE SMOOTH",
"590 -214 OFFCURVE",
"511 -83 OFFCURVE",
"460 -2 CURVE",
"615 41 OFFCURVE",
"749 173 OFFCURVE",
"749 371 CURVE SMOOTH"
);
},
{
closed = 1;
nodes = (
"308 584 OFFCURVE",
"384 597 OFFCURVE",
"459 597 CURVE SMOOTH",
"473 597 OFFCURVE",
"486 597 OFFCURVE",
"500 596 CURVE",
"494 591 OFFCURVE",
"491 584 OFFCURVE",
"491 580 CURVE SMOOTH",
"491 577 OFFCURVE",
"493 576 OFFCURVE",
"496 576 CURVE SMOOTH",
"500 576 OFFCURVE",
"509 580 OFFCURVE",
"521 594 CURVE",
"628 580 OFFCURVE",
"703 485 OFFCURVE",
"703 368 CURVE SMOOTH",
"703 182 OFFCURVE",
"577 60 OFFCURVE",
"446 20 CURVE",
"405 80 OFFCURVE",
"354 152 OFFCURVE",
"298 152 CURVE SMOOTH",
"266 152 OFFCURVE",
"219 119 OFFCURVE",
"219 91 CURVE SMOOTH",
"219 90 OFFCURVE",
"220 89 OFFCURVE",
"221 89 CURVE SMOOTH",
"237 89 OFFCURVE",
"245 124 OFFCURVE",
"273 124 CURVE SMOOTH",
"321 124 OFFCURVE",
"371 66 OFFCURVE",
"410 11 CURVE",
"391 7 OFFCURVE",
"373 6 OFFCURVE",
"355 6 CURVE SMOOTH",
"185 6 OFFCURVE",
"110 126 OFFCURVE",
"110 262 CURVE SMOOTH",
"110 372 OFFCURVE",
"150 492 OFFCURVE",
"253 569 CURVE"
);
},
{
closed = 1;
nodes = (
"488 620 OFFCURVE",
"460 621 OFFCURVE",
"432 621 CURVE SMOOTH",
"378 621 OFFCURVE",
"324 615 OFFCURVE",
"285 603 CURVE",
"334 642 OFFCURVE",
"420 675 OFFCURVE",
"485 675 CURVE SMOOTH",
"509 675 OFFCURVE",
"523 669 OFFCURVE",
"523 651 CURVE SMOOTH",
"523 642 OFFCURVE",
"520 631 OFFCURVE",
"514 617 CURVE"
);
}
);
width = 796;
}
);
leftKerningGroup = O;
note = Q;
rightKerningGroup = O;
unicode = 0051;
},
{
glyphname = R;
lastChange = "2021-03-03 20:55:47 +0000";
layers = (
{
background = {
paths = (
{
closed = 1;
nodes = (
"122 12 OFFCURVE",
"127 10 OFFCURVE",
"127 17 CURVE SMOOTH",
"127 15 OFFCURVE",
"121 41 OFFCURVE",
"121 74 CURVE SMOOTH",
"121 136 OFFCURVE",
"125 205 OFFCURVE",
"130 249 CURVE",
"158 224 LINE",
"257 119 OFFCURVE",
"396 -26 OFFCURVE",
"471 -26 CURVE SMOOTH",
"509 -26 OFFCURVE",
"564 12 OFFCURVE",
"564 110 CURVE SMOOTH",
"564 129 OFFCURVE",
"565 171 OFFCURVE",
"544 171 CURVE SMOOTH",
"539 171 OFFCURVE",
"535 167 OFFCURVE",
"535 155 CURVE SMOOTH",
"535 143 OFFCURVE",
"538 128 OFFCURVE",
"538 110 CURVE SMOOTH",
"538 60 OFFCURVE",
"528 6 OFFCURVE",
"490 6 CURVE",
"405 13 OFFCURVE",
"265 169 OFFCURVE",
"173 259 CURVE SMOOTH",
"166 266 OFFCURVE",
"163 270 OFFCURVE",
"163 274 CURVE SMOOTH",
"163 278 OFFCURVE",
"168 279 OFFCURVE",
"180 279 CURVE SMOOTH",
"191 279 LINE SMOOTH",
"234 279 OFFCURVE",
"295 284 OFFCURVE",
"356 308 CURVE SMOOTH",
"418 332 OFFCURVE",
"501 409 OFFCURVE",
"501 489 CURVE SMOOTH",
"501 614 OFFCURVE",
"312 639 OFFCURVE",
"225 647 CURVE",
"230 663 OFFCURVE",
"232 664 OFFCURVE",
"239 680 CURVE",
"239 689 OFFCURVE",
"232 692 OFFCURVE",
"223 692 CURVE SMOOTH",
"188 692 OFFCURVE",
"167 676 OFFCURVE",
"162 651 CURVE",
"130 651 OFFCURVE",
"89 647 OFFCURVE",
"89 634 CURVE SMOOTH",
"89 630 OFFCURVE",
"95 627 OFFCURVE",
"111 626 CURVE SMOOTH",
"122 626 OFFCURVE",
"137 628 OFFCURVE",
"150 628 CURVE SMOOTH",
"156 628 LINE",
"153 619 OFFCURVE",
"148 595 OFFCURVE",
"148 587 CURVE SMOOTH",
"148 581 OFFCURVE",
"151 579 OFFCURVE",
"151 574 CURVE SMOOTH",
"151 572 LINE",
"137 509 OFFCURVE",
"116 402 OFFCURVE",
"105 311 CURVE",
"94 311 OFFCURVE",
"86 313 OFFCURVE",
"82 317 CURVE",
"78 317 OFFCURVE",
"76 315 OFFCURVE",
"76 313 CURVE SMOOTH",
"76 306 OFFCURVE",
"87 293 OFFCURVE",
"101 278 CURVE",
"87 169 OFFCURVE",
"77 62 OFFCURVE",
"77 14 CURVE SMOOTH",
"77 1 OFFCURVE",
"84 -2 OFFCURVE",
"99 -2 CURVE SMOOTH",
"108 -2 OFFCURVE",
"118 1 OFFCURVE",
"121 8 CURVE SMOOTH"
);
},
{
closed = 1;
nodes = (
"456 498 OFFCURVE",
"456 489 OFFCURVE",
"456 481 CURVE SMOOTH",
"456 380 OFFCURVE",
"334 313 OFFCURVE",
"256 305 CURVE SMOOTH",
"242 303 OFFCURVE",
"223 303 OFFCURVE",
"204 303 CURVE SMOOTH",
"174 303 OFFCURVE",
"145 305 OFFCURVE",
"141 309 CURVE",
"147 368 OFFCURVE",
"192 575 OFFCURVE",
"217 624 CURVE",
"218 624 LINE SMOOTH",
"284 617 OFFCURVE",
"428 587 OFFCURVE",
"454 507 CURVE"
);
}
);
};
hints = (
{
horizontal = 1;
place = "{-26, 197}";
type = Stem;
},
{
horizontal = 1;
place = "{279, 24}";
type = Stem;
},
{
horizontal = 1;
place = "{626, 66}";
type = Stem;
},
{
place = "{77, 44}";
type = Stem;
},
{
place = "{456, 45}";
type = Stem;
},
{
place = "{538, 26}";
type = Stem;
},
{
horizontal = 1;
place = "{-26, 32}";
type = Stem;
},
{
horizontal = 1;
place = "{-2, 21}";
target = up;
type = BottomGhost;
}
);
layerId = "3787E0F5-978F-4E40-B775-08CB0E3B1585";
paths = (
{
closed = 1;
nodes = (
"122 12 OFFCURVE",
"127 10 OFFCURVE",
"127 17 CURVE SMOOTH",
"127 15 OFFCURVE",
"121 41 OFFCURVE",
"121 74 CURVE SMOOTH",
"121 136 OFFCURVE",
"125 205 OFFCURVE",
"130 249 CURVE",
"158 224 LINE",
"257 119 OFFCURVE",
"396 -26 OFFCURVE",
"471 -26 CURVE SMOOTH",
"509 -26 OFFCURVE",
"564 12 OFFCURVE",
"564 110 CURVE SMOOTH",
"564 129 OFFCURVE",
"565 171 OFFCURVE",
"544 171 CURVE SMOOTH",
"539 171 OFFCURVE",
"535 167 OFFCURVE",
"535 155 CURVE SMOOTH",
"535 143 OFFCURVE",
"538 128 OFFCURVE",
"538 110 CURVE SMOOTH",
"538 60 OFFCURVE",
"528 6 OFFCURVE",
"490 6 CURVE",
"405 13 OFFCURVE",
"265 169 OFFCURVE",
"173 259 CURVE SMOOTH",
"166 266 OFFCURVE",
"163 270 OFFCURVE",
"163 274 CURVE SMOOTH",
"163 278 OFFCURVE",
"168 279 OFFCURVE",
"180 279 CURVE SMOOTH",
"191 279 LINE SMOOTH",
"234 279 OFFCURVE",
"295 284 OFFCURVE",
"356 308 CURVE SMOOTH",
"418 332 OFFCURVE",
"501 409 OFFCURVE",
"501 489 CURVE SMOOTH",
"501 614 OFFCURVE",
"312 639 OFFCURVE",
"225 647 CURVE",
"230 663 OFFCURVE",
"232 664 OFFCURVE",
"239 680 CURVE",
"239 689 OFFCURVE",
"232 692 OFFCURVE",
"223 692 CURVE SMOOTH",
"188 692 OFFCURVE",
"167 676 OFFCURVE",
"162 651 CURVE",
"130 651 OFFCURVE",
"89 647 OFFCURVE",
"89 634 CURVE SMOOTH",
"89 630 OFFCURVE",
"95 627 OFFCURVE",
"111 626 CURVE SMOOTH",
"122 626 OFFCURVE",
"137 628 OFFCURVE",
"150 628 CURVE SMOOTH",
"156 628 LINE",
"153 619 OFFCURVE",
"148 595 OFFCURVE",
"148 587 CURVE SMOOTH",
"148 581 OFFCURVE",
"151 579 OFFCURVE",
"151 574 CURVE SMOOTH",
"151 572 LINE",
"137 509 OFFCURVE",
"116 402 OFFCURVE",
"105 311 CURVE",
"94 311 OFFCURVE",
"86 313 OFFCURVE",
"82 317 CURVE",
"78 317 OFFCURVE",
"76 315 OFFCURVE",
"76 313 CURVE SMOOTH",
"76 306 OFFCURVE",
"87 293 OFFCURVE",
"101 278 CURVE",
"87 169 OFFCURVE",
"77 62 OFFCURVE",
"77 14 CURVE SMOOTH",
"77 1 OFFCURVE",
"84 -2 OFFCURVE",
"99 -2 CURVE SMOOTH",
"108 -2 OFFCURVE",
"118 1 OFFCURVE",
"121 8 CURVE SMOOTH"
);
},
{
closed = 1;
nodes = (
"456 498 OFFCURVE",
"456 489 OFFCURVE",
"456 481 CURVE SMOOTH",
"456 380 OFFCURVE",
"334 313 OFFCURVE",
"256 305 CURVE SMOOTH",
"242 303 OFFCURVE",
"223 303 OFFCURVE",
"204 303 CURVE SMOOTH",
"174 303 OFFCURVE",
"145 305 OFFCURVE",
"141 309 CURVE",
"147 368 OFFCURVE",
"192 575 OFFCURVE",
"217 624 CURVE",
"218 624 LINE SMOOTH",
"284 617 OFFCURVE",
"428 587 OFFCURVE",
"454 507 CURVE"
);
}
);
width = 584;
}
);
note = R;
unicode = 0052;
},
{
glyphname = S;
lastChange = "2021-03-05 16:00:08 +0000";
layers = (
{
background = {
paths = (
{
closed = 1;
nodes = (
"132 467 OFFCURVE",
"131 470 OFFCURVE",
"131 473 CURVE SMOOTH",
"131 573 OFFCURVE",
"285 625 OFFCURVE",
"358 625 CURVE SMOOTH",
"412 625 OFFCURVE",
"454 609 OFFCURVE",
"454 548 CURVE SMOOTH",
"454 528 LINE SMOOTH",
"454 518 OFFCURVE",
"455 515 OFFCURVE",
"461 515 CURVE SMOOTH",
"479 515 OFFCURVE",
"489 552 OFFCURVE",
"489 563 CURVE SMOOTH",
"489 608 OFFCURVE",
"474 662 OFFCURVE",
"389 662 CURVE SMOOTH",
"235 662 OFFCURVE",
"90 559 OFFCURVE",
"90 445 CURVE SMOOTH",
"90 268 OFFCURVE",
"403 297 OFFCURVE",
"403 168 CURVE SMOOTH",
"403 75 OFFCURVE",
"277 15 OFFCURVE",
"188 15 CURVE SMOOTH",
"137 15 OFFCURVE",
"105 22 OFFCURVE",
"84 57 CURVE SMOOTH",
"73 76 OFFCURVE",
"77 96 OFFCURVE",
"66 96 CURVE SMOOTH",
"43 96 OFFCURVE",
"39 72 OFFCURVE",
"39 61 CURVE SMOOTH",
"39 54 LINE SMOOTH",
"39 21 OFFCURVE",
"55 -17 OFFCURVE",
"149 -17 CURVE SMOOTH",
"312 -17 OFFCURVE",
"457 94 OFFCURVE",
"457 199 CURVE SMOOTH",
"457 329 OFFCURVE",
"153 295 OFFCURVE",
"132 464 CURVE SMOOTH"
);
}
);
};
hints = (
{
horizontal = 1;
place = "{-17, 32}";
type = Stem;
},
{
horizontal = 1;
place = "{625, 37}";
type = Stem;
},
{
place = "{90, 41}";
type = Stem;
},
{
place = "{454, 35}";
type = Stem;
},
{
place = "{403, 54}";
type = Stem;
},
{
horizontal = 1;
place = "{-17, 113}";
type = Stem;
}
);
layerId = "3787E0F5-978F-4E40-B775-08CB0E3B1585";
paths = (
{
closed = 1;
nodes = (
"132 467 OFFCURVE",
"131 470 OFFCURVE",
"131 473 CURVE SMOOTH",
"131 573 OFFCURVE",
"285 625 OFFCURVE",
"358 625 CURVE SMOOTH",
"412 625 OFFCURVE",
"454 609 OFFCURVE",
"454 548 CURVE SMOOTH",
"454 528 LINE SMOOTH",
"454 518 OFFCURVE",
"455 515 OFFCURVE",
"461 515 CURVE SMOOTH",
"479 515 OFFCURVE",
"489 552 OFFCURVE",
"489 563 CURVE SMOOTH",
"489 608 OFFCURVE",
"474 662 OFFCURVE",
"389 662 CURVE SMOOTH",
"235 662 OFFCURVE",
"90 559 OFFCURVE",
"90 445 CURVE SMOOTH",
"90 268 OFFCURVE",
"403 297 OFFCURVE",
"403 168 CURVE SMOOTH",
"403 75 OFFCURVE",
"277 15 OFFCURVE",
"188 15 CURVE SMOOTH",
"137 15 OFFCURVE",
"105 22 OFFCURVE",
"84 57 CURVE SMOOTH",
"73 76 OFFCURVE",
"77 96 OFFCURVE",
"66 96 CURVE SMOOTH",
"43 96 OFFCURVE",
"39 72 OFFCURVE",
"39 61 CURVE SMOOTH",
"39 54 LINE SMOOTH",
"39 21 OFFCURVE",
"55 -17 OFFCURVE",
"149 -17 CURVE SMOOTH",
"312 -17 OFFCURVE",
"457 94 OFFCURVE",
"457 199 CURVE SMOOTH",
"457 329 OFFCURVE",
"153 295 OFFCURVE",
"132 464 CURVE SMOOTH"
);
}
);
width = 519;
}
);
note = S;
unicode = 0053;
},
{
glyphname = T;
lastChange = "2021-03-03 21:02:03 +0000";
layers = (
{
background = {
paths = (
{
closed = 1;
nodes = (
"569 651 OFFCURVE",
"469 650 OFFCURVE",
"362 650 CURVE",
"361 657 OFFCURVE",
"353 658 OFFCURVE",
"346 658 CURVE SMOOTH",
"331 658 OFFCURVE",
"318 654 OFFCURVE",
"310 649 CURVE",
"55 649 LINE SMOOTH",
"41 649 OFFCURVE",
"28 634 OFFCURVE",
"28 625 CURVE SMOOTH",
"28 621 OFFCURVE",
"31 618 OFFCURVE",
"38 618 CURVE SMOOTH",
"282 618 LINE",
"277 605 OFFCURVE",
"272 586 OFFCURVE",
"272 571 CURVE SMOOTH",
"272 541 LINE",
"238 365 OFFCURVE",
"231 199 OFFCURVE",
"214 14 CURVE",
"214 0 OFFCURVE",
"224 -8 OFFCURVE",
"238 -8 CURVE SMOOTH",
"253 -8 OFFCURVE",
"269 2 OFFCURVE",
"269 21 CURVE SMOOTH",
"269 29 OFFCURVE",
"264 29 OFFCURVE",
"262 47 CURVE",
"262 135 OFFCURVE",
"291 458 OFFCURVE",
"349 618 CURVE",
"559 618 LINE",
"585 622 OFFCURVE",
"597 638 OFFCURVE",
"597 646 CURVE SMOOTH",
"597 650 OFFCURVE",
"595 652 OFFCURVE",
"591 652 CURVE SMOOTH"
);
}
);
};
hints = (
{
horizontal = 1;
place = "{-8, 21}";
target = up;
type = BottomGhost;
},
{
horizontal = 1;
place = "{658, -20}";
target = down;
type = TopGhost;
},
{
horizontal = 1;
place = "{618, 31}";
type = Stem;
}
);
layerId = "3787E0F5-978F-4E40-B775-08CB0E3B1585";
paths = (
{
closed = 1;
nodes = (
"569 651 OFFCURVE",
"469 650 OFFCURVE",
"362 650 CURVE",
"361 657 OFFCURVE",
"353 658 OFFCURVE",
"346 658 CURVE SMOOTH",
"331 658 OFFCURVE",
"318 654 OFFCURVE",
"310 649 CURVE",
"55 649 LINE SMOOTH",
"41 649 OFFCURVE",
"28 634 OFFCURVE",
"28 625 CURVE SMOOTH",
"28 621 OFFCURVE",
"31 618 OFFCURVE",
"38 618 CURVE SMOOTH",
"282 618 LINE",
"277 605 OFFCURVE",
"272 586 OFFCURVE",
"272 571 CURVE SMOOTH",
"272 541 LINE",
"238 365 OFFCURVE",
"231 199 OFFCURVE",
"214 14 CURVE",
"214 0 OFFCURVE",
"224 -8 OFFCURVE",
"238 -8 CURVE SMOOTH",
"253 -8 OFFCURVE",
"269 2 OFFCURVE",
"269 21 CURVE SMOOTH",
"269 29 OFFCURVE",
"264 29 OFFCURVE",
"262 47 CURVE",
"262 135 OFFCURVE",
"291 458 OFFCURVE",
"349 618 CURVE",
"559 618 LINE",
"585 622 OFFCURVE",
"597 638 OFFCURVE",
"597 646 CURVE SMOOTH",
"597 650 OFFCURVE",
"595 652 OFFCURVE",
"591 652 CURVE SMOOTH"
);
}
);
width = 614;
}
);
note = T;
unicode = 0054;
},
{
glyphname = U;
lastChange = "2021-03-03 20:55:47 +0000";
layers = (
{
background = {
paths = (
{
closed = 1;
nodes = (
"85 450 OFFCURVE",
"56 308 OFFCURVE",
"56 193 CURVE SMOOTH",
"56 84 OFFCURVE",
"82 -1 OFFCURVE",
"151 -1 CURVE SMOOTH",
"210 -1 OFFCURVE",
"349 76 OFFCURVE",
"487 345 CURVE",
"474 238 OFFCURVE",
"464 128 OFFCURVE",
"454 14 CURVE",
"454 0 OFFCURVE",
"464 -8 OFFCURVE",
"478 -8 CURVE SMOOTH",
"501 -8 OFFCURVE",
"511 10 OFFCURVE",
"511 43 CURVE SMOOTH",
"511 54 OFFCURVE",
"509 64 OFFCURVE",
"503 72 CURVE",
"503 167 OFFCURVE",
"537 489 OFFCURVE",
"605 645 CURVE",
"605 647 LINE SMOOTH",
"605 654 OFFCURVE",
"598 657 OFFCURVE",
"590 657 CURVE SMOOTH",
"535 657 OFFCURVE",
"515 613 OFFCURVE",
"515 569 CURVE SMOOTH",
"515 547 LINE SMOOTH",
"515 458 OFFCURVE",
"459 324 OFFCURVE",
"378 214 CURVE SMOOTH",
"282 85 OFFCURVE",
"218 39 OFFCURVE",
"175 39 CURVE SMOOTH",
"123 39 OFFCURVE",
"105 94 OFFCURVE",
"105 180 CURVE SMOOTH",
"105 221 OFFCURVE",
"110 268 OFFCURVE",
"116 320 CURVE SMOOTH",
"125 403 OFFCURVE",
"167 591 OFFCURVE",
"221 640 CURVE SMOOTH",
"224 643 OFFCURVE",
"225 646 OFFCURVE",
"225 649 CURVE SMOOTH",
"225 658 OFFCURVE",
"214 666 OFFCURVE",
"198 666 CURVE SMOOTH",
"186 666 OFFCURVE",
"171 662 OFFCURVE",
"157 651 CURVE SMOOTH",
"145 641 OFFCURVE",
"113 583 OFFCURVE",
"113 558 CURVE SMOOTH",
"113 552 OFFCURVE",
"115 548 OFFCURVE",
"119 547 CURVE"
);
}
);
};
hints = (
{
horizontal = 1;
place = "{-1, 40}";
type = Stem;
},
{
horizontal = 1;
place = "{666, -20}";
target = down;
type = TopGhost;
},
{
place = "{56, 49}";
type = Stem;
},
{
horizontal = 1;
place = "{-8, 21}";
target = up;
type = BottomGhost;
}
);
layerId = "3787E0F5-978F-4E40-B775-08CB0E3B1585";
paths = (
{
closed = 1;
nodes = (
"85 450 OFFCURVE",
"56 308 OFFCURVE",
"56 193 CURVE SMOOTH",
"56 84 OFFCURVE",
"82 -1 OFFCURVE",
"151 -1 CURVE SMOOTH",
"210 -1 OFFCURVE",
"349 76 OFFCURVE",
"487 345 CURVE",
"474 238 OFFCURVE",
"464 128 OFFCURVE",
"454 14 CURVE",
"454 0 OFFCURVE",
"464 -8 OFFCURVE",
"478 -8 CURVE SMOOTH",
"501 -8 OFFCURVE",
"511 10 OFFCURVE",
"511 43 CURVE SMOOTH",
"511 54 OFFCURVE",
"509 64 OFFCURVE",
"503 72 CURVE",
"503 167 OFFCURVE",
"537 489 OFFCURVE",
"605 645 CURVE",
"605 647 LINE SMOOTH",
"605 654 OFFCURVE",
"598 657 OFFCURVE",
"590 657 CURVE SMOOTH",
"535 657 OFFCURVE",
"515 613 OFFCURVE",
"515 569 CURVE SMOOTH",
"515 547 LINE SMOOTH",
"515 458 OFFCURVE",
"459 324 OFFCURVE",
"378 214 CURVE SMOOTH",
"282 85 OFFCURVE",
"218 39 OFFCURVE",
"175 39 CURVE SMOOTH",
"123 39 OFFCURVE",
"105 94 OFFCURVE",
"105 180 CURVE SMOOTH",
"105 221 OFFCURVE",
"110 268 OFFCURVE",
"116 320 CURVE SMOOTH",
"125 403 OFFCURVE",
"167 591 OFFCURVE",
"221 640 CURVE SMOOTH",
"224 643 OFFCURVE",
"225 646 OFFCURVE",
"225 649 CURVE SMOOTH",
"225 658 OFFCURVE",
"214 666 OFFCURVE",
"198 666 CURVE SMOOTH",
"186 666 OFFCURVE",
"171 662 OFFCURVE",
"157 651 CURVE SMOOTH",
"145 641 OFFCURVE",
"113 583 OFFCURVE",
"113 558 CURVE SMOOTH",
"113 552 OFFCURVE",
"115 548 OFFCURVE",
"119 547 CURVE"
);
}
);
width = 646;
}
);
note = U;
unicode = 0055;
},
{
glyphname = V;
lastChange = "2021-03-03 20:55:47 +0000";
layers = (
{
background = {
paths = (
{
closed = 1;
nodes = (
"79 470 OFFCURVE",
"68 376 OFFCURVE",
"68 286 CURVE SMOOTH",
"68 135 OFFCURVE",
"99 -3 OFFCURVE",
"184 -3 CURVE SMOOTH",
"235 -3 OFFCURVE",
"319 47 OFFCURVE",
"425 225 CURVE",
"485 337 OFFCURVE",
"577 589 OFFCURVE",
"577 664 CURVE SMOOTH",
"577 684 OFFCURVE",
"572 699 OFFCURVE",
"556 699 CURVE SMOOTH",
"533 699 OFFCURVE",
"528 689 OFFCURVE",
"528 684 CURVE SMOOTH",
"528 676 OFFCURVE",
"533 664 OFFCURVE",
"533 642 CURVE SMOOTH",
"533 564 OFFCURVE",
"471 368 OFFCURVE",
"401 243 CURVE SMOOTH",
"310 83 OFFCURVE",
"248 39 OFFCURVE",
"205 39 CURVE SMOOTH",
"137 39 OFFCURVE",
"119 145 OFFCURVE",
"119 291 CURVE SMOOTH",
"119 361 OFFCURVE",
"146 594 OFFCURVE",
"187 644 CURVE SMOOTH",
"189 647 OFFCURVE",
"190 650 OFFCURVE",
"190 653 CURVE SMOOTH",
"190 662 OFFCURVE",
"180 669 OFFCURVE",
"165 669 CURVE SMOOTH",
"140 669 OFFCURVE",
"89 634 OFFCURVE",
"89 557 CURVE SMOOTH",
"89 549 OFFCURVE",
"91 543 OFFCURVE",
"96 542 CURVE"
);
}
);
};
hints = (
{
horizontal = 1;
place = "{-3, 42}";
type = Stem;
},
{
horizontal = 1;
place = "{699, -20}";
target = down;
type = TopGhost;
},
{
place = "{68, 51}";
type = Stem;
},
{
place = "{533, 44}";
type = Stem;
}
);
layerId = "3787E0F5-978F-4E40-B775-08CB0E3B1585";
paths = (
{
closed = 1;
nodes = (
"79 470 OFFCURVE",
"68 376 OFFCURVE",
"68 286 CURVE SMOOTH",
"68 135 OFFCURVE",
"99 -3 OFFCURVE",
"184 -3 CURVE SMOOTH",
"235 -3 OFFCURVE",
"319 47 OFFCURVE",
"425 225 CURVE",
"485 337 OFFCURVE",
"577 589 OFFCURVE",
"577 664 CURVE SMOOTH",
"577 684 OFFCURVE",
"572 699 OFFCURVE",
"556 699 CURVE SMOOTH",
"533 699 OFFCURVE",
"528 689 OFFCURVE",
"528 684 CURVE SMOOTH",
"528 676 OFFCURVE",
"533 664 OFFCURVE",
"533 642 CURVE SMOOTH",
"533 564 OFFCURVE",
"471 368 OFFCURVE",
"401 243 CURVE SMOOTH",
"310 83 OFFCURVE",
"248 39 OFFCURVE",
"205 39 CURVE SMOOTH",
"137 39 OFFCURVE",
"119 145 OFFCURVE",
"119 291 CURVE SMOOTH",
"119 361 OFFCURVE",
"146 594 OFFCURVE",
"187 644 CURVE SMOOTH",
"189 647 OFFCURVE",
"190 650 OFFCURVE",
"190 653 CURVE SMOOTH",
"190 662 OFFCURVE",
"180 669 OFFCURVE",
"165 669 CURVE SMOOTH",
"140 669 OFFCURVE",
"89 634 OFFCURVE",
"89 557 CURVE SMOOTH",
"89 549 OFFCURVE",
"91 543 OFFCURVE",
"96 542 CURVE"
);
}
);
width = 563;
}
);
note = V;
unicode = 0056;
},
{
glyphname = W;
lastChange = "2021-03-03 20:55:47 +0000";
layers = (
{
background = {
paths = (
{
closed = 1;
nodes = (
"802 327 OFFCURVE",
"874 519 OFFCURVE",
"874 610 CURVE SMOOTH",
"874 643 OFFCURVE",
"867 669 OFFCURVE",
"844 669 CURVE SMOOTH",
"827 669 OFFCURVE",
"824 660 OFFCURVE",
"824 651 CURVE SMOOTH",
"824 643 OFFCURVE",
"826 632 OFFCURVE",
"826 613 CURVE SMOOTH",
"826 523 OFFCURVE",
"784 365 OFFCURVE",
"721 237 CURVE SMOOTH",
"649 90 OFFCURVE",
"596 39 OFFCURVE",
"552 39 CURVE SMOOTH",
"493 39 OFFCURVE",
"469 143 OFFCURVE",
"469 263 CURVE SMOOTH",
"469 401 OFFCURVE",
"501 560 OFFCURVE",
"543 602 CURVE SMOOTH",
"546 605 OFFCURVE",
"547 607 OFFCURVE",
"547 610 CURVE SMOOTH",
"547 619 OFFCURVE",
"535 628 OFFCURVE",
"518 628 CURVE SMOOTH",
"498 628 OFFCURVE",
"453 606 OFFCURVE",
"453 560 CURVE SMOOTH",
"453 553 OFFCURVE",
"455 548 OFFCURVE",
"462 546 CURVE",
"450 506 OFFCURVE",
"441 459 OFFCURVE",
"434 409 CURVE",
"342 138 OFFCURVE",
"217 39 OFFCURVE",
"175 39 CURVE SMOOTH",
"123 39 OFFCURVE",
"105 94 OFFCURVE",
"105 180 CURVE SMOOTH",
"105 221 OFFCURVE",
"110 268 OFFCURVE",
"116 320 CURVE SMOOTH",
"125 403 OFFCURVE",
"167 591 OFFCURVE",
"221 640 CURVE SMOOTH",
"224 643 OFFCURVE",
"225 646 OFFCURVE",
"225 649 CURVE SMOOTH",
"225 658 OFFCURVE",
"214 666 OFFCURVE",
"198 666 CURVE SMOOTH",
"186 666 OFFCURVE",
"171 662 OFFCURVE",
"157 651 CURVE SMOOTH",
"145 641 OFFCURVE",
"113 583 OFFCURVE",
"113 558 CURVE SMOOTH",
"113 552 OFFCURVE",
"115 548 OFFCURVE",
"119 547 CURVE",
"85 450 OFFCURVE",
"56 308 OFFCURVE",
"56 193 CURVE SMOOTH",
"56 84 OFFCURVE",
"82 -1 OFFCURVE",
"151 -1 CURVE SMOOTH",
"200 -1 OFFCURVE",
"330 67 OFFCURVE",
"424 321 CURVE",
"422 297 OFFCURVE",
"421 272 OFFCURVE",
"421 249 CURVE SMOOTH",
"421 114 OFFCURVE",
"450 0 OFFCURVE",
"531 0 CURVE SMOOTH",
"583 0 OFFCURVE",
"675 66 OFFCURVE",
"755 232 CURVE SMOOTH"
);
}
);
};
hints = (
{
horizontal = 1;
place = "{-1, 40}";
type = Stem;
},
{
horizontal = 1;
place = "{669, -20}";
target = down;
type = TopGhost;
},
{
place = "{56, 49}";
type = Stem;
},
{
place = "{421, 48}";
type = Stem;
},
{
place = "{826, 48}";
type = Stem;
},
{
horizontal = 1;
place = "{0, 21}";
target = up;
type = BottomGhost;
}
);
layerId = "3787E0F5-978F-4E40-B775-08CB0E3B1585";
paths = (
{
closed = 1;
nodes = (
"802 327 OFFCURVE",
"874 519 OFFCURVE",
"874 610 CURVE SMOOTH",
"874 643 OFFCURVE",
"867 669 OFFCURVE",
"844 669 CURVE SMOOTH",
"827 669 OFFCURVE",
"824 660 OFFCURVE",
"824 651 CURVE SMOOTH",
"824 643 OFFCURVE",
"826 632 OFFCURVE",
"826 613 CURVE SMOOTH",
"826 523 OFFCURVE",
"784 365 OFFCURVE",
"721 237 CURVE SMOOTH",
"649 90 OFFCURVE",
"596 39 OFFCURVE",
"552 39 CURVE SMOOTH",
"493 39 OFFCURVE",
"469 143 OFFCURVE",
"469 263 CURVE SMOOTH",
"469 401 OFFCURVE",
"501 560 OFFCURVE",
"543 602 CURVE SMOOTH",
"546 605 OFFCURVE",
"547 607 OFFCURVE",
"547 610 CURVE SMOOTH",
"547 619 OFFCURVE",
"535 628 OFFCURVE",
"518 628 CURVE SMOOTH",
"498 628 OFFCURVE",
"453 606 OFFCURVE",
"453 560 CURVE SMOOTH",
"453 553 OFFCURVE",
"455 548 OFFCURVE",
"462 546 CURVE",
"450 506 OFFCURVE",
"441 459 OFFCURVE",
"434 409 CURVE",
"342 138 OFFCURVE",
"217 39 OFFCURVE",
"175 39 CURVE SMOOTH",
"123 39 OFFCURVE",
"105 94 OFFCURVE",
"105 180 CURVE SMOOTH",
"105 221 OFFCURVE",
"110 268 OFFCURVE",
"116 320 CURVE SMOOTH",
"125 403 OFFCURVE",
"167 591 OFFCURVE",
"221 640 CURVE SMOOTH",
"224 643 OFFCURVE",
"225 646 OFFCURVE",
"225 649 CURVE SMOOTH",
"225 658 OFFCURVE",
"214 666 OFFCURVE",
"198 666 CURVE SMOOTH",
"186 666 OFFCURVE",
"171 662 OFFCURVE",
"157 651 CURVE SMOOTH",
"145 641 OFFCURVE",
"113 583 OFFCURVE",
"113 558 CURVE SMOOTH",
"113 552 OFFCURVE",
"115 548 OFFCURVE",
"119 547 CURVE",
"85 450 OFFCURVE",
"56 308 OFFCURVE",
"56 193 CURVE SMOOTH",
"56 84 OFFCURVE",
"82 -1 OFFCURVE",
"151 -1 CURVE SMOOTH",
"200 -1 OFFCURVE",
"330 67 OFFCURVE",
"424 321 CURVE",
"422 297 OFFCURVE",
"421 272 OFFCURVE",
"421 249 CURVE SMOOTH",
"421 114 OFFCURVE",
"450 0 OFFCURVE",
"531 0 CURVE SMOOTH",
"583 0 OFFCURVE",
"675 66 OFFCURVE",
"755 232 CURVE SMOOTH"
);
}
);
width = 917;
}
);
note = W;
unicode = 0057;
},
{
glyphname = X;
lastChange = "2021-03-03 20:55:47 +0000";
layers = (
{
background = {
paths = (
{
closed = 1;
nodes = (
"227 628 OFFCURVE",
"244 631 OFFCURVE",
"244 637 CURVE SMOOTH",
"244 644 OFFCURVE",
"215 654 OFFCURVE",
"200 654 CURVE SMOOTH",
"183 654 OFFCURVE",
"151 651 OFFCURVE",
"151 625 CURVE SMOOTH",
"151 615 OFFCURVE",
"153 602 OFFCURVE",
"158 589 CURVE SMOOTH",
"195 487 OFFCURVE",
"226 399 OFFCURVE",
"265 308 CURVE",
"180 231 OFFCURVE",
"37 90 OFFCURVE",
"3 8 CURVE SMOOTH",
"1 4 OFFCURVE",
"0 0 OFFCURVE",
"0 -3 CURVE SMOOTH",
"0 -10 OFFCURVE",
"5 -16 OFFCURVE",
"11 -16 CURVE SMOOTH",
"17 -16 OFFCURVE",
"24 -11 OFFCURVE",
"29 1 CURVE SMOOTH",
"49 48 OFFCURVE",
"206 211 OFFCURVE",
"278 278 CURVE",
"289 256 LINE SMOOTH",
"352 118 OFFCURVE",
"420 -7 OFFCURVE",
"477 -7 CURVE SMOOTH",
"524 -7 OFFCURVE",
"608 34 OFFCURVE",
"645 187 CURVE SMOOTH",
"646 190 OFFCURVE",
"646 194 OFFCURVE",
"646 197 CURVE SMOOTH",
"646 205 OFFCURVE",
"643 212 OFFCURVE",
"639 212 CURVE SMOOTH",
"629 212 OFFCURVE",
"583 28 OFFCURVE",
"512 28 CURVE SMOOTH",
"456 28 OFFCURVE",
"371 184 OFFCURVE",
"314 311 CURVE",
"423 409 OFFCURVE",
"596 550 OFFCURVE",
"596 629 CURVE SMOOTH",
"596 660 OFFCURVE",
"585 664 OFFCURVE",
"578 664 CURVE SMOOTH",
"573 664 OFFCURVE",
"572 659 OFFCURVE",
"572 654 CURVE SMOOTH",
"572 642 LINE SMOOTH",
"572 573 OFFCURVE",
"384 415 OFFCURVE",
"300 340 CURVE",
"275 395 OFFCURVE",
"214 539 OFFCURVE",
"214 600 CURVE SMOOTH",
"214 616 OFFCURVE",
"218 626 OFFCURVE",
"227 628 CURVE"
);
}
);
};
hints = (
{
horizontal = 1;
place = "{-16, 21}";
target = up;
type = BottomGhost;
},
{
horizontal = 1;
place = "{664, -20}";
target = down;
type = TopGhost;
},
{
place = "{151, 63}";
type = Stem;
},
{
place = "{572, 24}";
type = Stem;
},
{
horizontal = 1;
place = "{-7, 35}";
type = Stem;
}
);
layerId = "3787E0F5-978F-4E40-B775-08CB0E3B1585";
paths = (
{
closed = 1;
nodes = (
"227 628 OFFCURVE",
"244 631 OFFCURVE",
"244 637 CURVE SMOOTH",
"244 644 OFFCURVE",
"215 654 OFFCURVE",
"200 654 CURVE SMOOTH",
"183 654 OFFCURVE",
"151 651 OFFCURVE",
"151 625 CURVE SMOOTH",
"151 615 OFFCURVE",
"153 602 OFFCURVE",
"158 589 CURVE SMOOTH",
"195 487 OFFCURVE",
"226 399 OFFCURVE",
"265 308 CURVE",
"180 231 OFFCURVE",
"37 90 OFFCURVE",
"3 8 CURVE SMOOTH",
"1 4 OFFCURVE",
"0 0 OFFCURVE",
"0 -3 CURVE SMOOTH",
"0 -10 OFFCURVE",
"5 -16 OFFCURVE",
"11 -16 CURVE SMOOTH",
"17 -16 OFFCURVE",
"24 -11 OFFCURVE",
"29 1 CURVE SMOOTH",
"49 48 OFFCURVE",
"206 211 OFFCURVE",
"278 278 CURVE",
"289 256 LINE SMOOTH",
"352 118 OFFCURVE",
"420 -7 OFFCURVE",
"477 -7 CURVE SMOOTH",
"524 -7 OFFCURVE",
"608 34 OFFCURVE",
"645 187 CURVE SMOOTH",
"646 190 OFFCURVE",
"646 194 OFFCURVE",
"646 197 CURVE SMOOTH",
"646 205 OFFCURVE",
"643 212 OFFCURVE",
"639 212 CURVE SMOOTH",
"629 212 OFFCURVE",
"583 28 OFFCURVE",
"512 28 CURVE SMOOTH",
"456 28 OFFCURVE",
"371 184 OFFCURVE",
"314 311 CURVE",
"423 409 OFFCURVE",
"596 550 OFFCURVE",
"596 629 CURVE SMOOTH",
"596 660 OFFCURVE",
"585 664 OFFCURVE",
"578 664 CURVE SMOOTH",
"573 664 OFFCURVE",
"572 659 OFFCURVE",
"572 654 CURVE SMOOTH",
"572 642 LINE SMOOTH",
"572 573 OFFCURVE",
"384 415 OFFCURVE",
"300 340 CURVE",
"275 395 OFFCURVE",
"214 539 OFFCURVE",
"214 600 CURVE SMOOTH",
"214 616 OFFCURVE",
"218 626 OFFCURVE",
"227 628 CURVE"
);
}
);
width = 669;
}
);
note = X;
unicode = 0058;
},
{
glyphname = Y;
lastChange = "2021-03-03 20:55:47 +0000";
layers = (
{
background = {
paths = (
{
closed = 1;
nodes = (
"89 58 OFFCURVE",
"67 20 OFFCURVE",
"67 10 CURVE SMOOTH",
"67 2 OFFCURVE",
"76 0 OFFCURVE",
"84 0 CURVE SMOOTH",
"153 0 OFFCURVE",
"159 47 OFFCURVE",
"164 113 CURVE SMOOTH",
"167 157 OFFCURVE",
"184 246 OFFCURVE",
"197 284 CURVE",
"269 351 OFFCURVE",
"336 412 OFFCURVE",
"403 493 CURVE SMOOTH",
"449 549 OFFCURVE",
"508 620 OFFCURVE",
"508 647 CURVE SMOOTH",
"508 664 OFFCURVE",
"494 667 OFFCURVE",
"485 667 CURVE SMOOTH",
"462 667 OFFCURVE",
"454 650 OFFCURVE",
"448 625 CURVE SMOOTH",
"423 522 OFFCURVE",
"215 334 OFFCURVE",
"185 309 CURVE",
"160 369 OFFCURVE",
"93 531 OFFCURVE",
"93 598 CURVE SMOOTH",
"93 613 OFFCURVE",
"97 624 OFFCURVE",
"106 626 CURVE SMOOTH",
"105 626 OFFCURVE",
"117 633 OFFCURVE",
"117 640 CURVE SMOOTH",
"117 649 OFFCURVE",
"88 654 OFFCURVE",
"75 654 CURVE SMOOTH",
"58 654 OFFCURVE",
"30 650 OFFCURVE",
"30 623 CURVE SMOOTH",
"30 613 OFFCURVE",
"32 598 OFFCURVE",
"37 584 CURVE SMOOTH",
"73 472 OFFCURVE",
"106 375 OFFCURVE",
"144 276 CURVE SMOOTH",
"145 272 OFFCURVE",
"145 267 OFFCURVE",
"145 261 CURVE SMOOTH",
"145 187 OFFCURVE",
"115 112 OFFCURVE",
"95 69 CURVE SMOOTH"
);
}
);
};
hints = (
{
horizontal = 1;
place = "{0, 21}";
target = up;
type = BottomGhost;
},
{
horizontal = 1;
place = "{667, -20}";
target = down;
type = TopGhost;
},
{
place = "{30, 63}";
type = Stem;
}
);
layerId = "3787E0F5-978F-4E40-B775-08CB0E3B1585";
paths = (
{
closed = 1;
nodes = (
"89 58 OFFCURVE",
"67 20 OFFCURVE",
"67 10 CURVE SMOOTH",
"67 2 OFFCURVE",
"76 0 OFFCURVE",
"84 0 CURVE SMOOTH",
"153 0 OFFCURVE",
"159 47 OFFCURVE",
"164 113 CURVE SMOOTH",
"167 157 OFFCURVE",
"184 246 OFFCURVE",
"197 284 CURVE",
"269 351 OFFCURVE",
"336 412 OFFCURVE",
"403 493 CURVE SMOOTH",
"449 549 OFFCURVE",
"508 620 OFFCURVE",
"508 647 CURVE SMOOTH",
"508 664 OFFCURVE",
"494 667 OFFCURVE",
"485 667 CURVE SMOOTH",
"462 667 OFFCURVE",
"454 650 OFFCURVE",
"448 625 CURVE SMOOTH",
"423 522 OFFCURVE",
"215 334 OFFCURVE",
"185 309 CURVE",
"160 369 OFFCURVE",
"93 531 OFFCURVE",
"93 598 CURVE SMOOTH",
"93 613 OFFCURVE",
"97 624 OFFCURVE",
"106 626 CURVE SMOOTH",
"105 626 OFFCURVE",
"117 633 OFFCURVE",
"117 640 CURVE SMOOTH",
"117 649 OFFCURVE",
"88 654 OFFCURVE",
"75 654 CURVE SMOOTH",
"58 654 OFFCURVE",
"30 650 OFFCURVE",
"30 623 CURVE SMOOTH",
"30 613 OFFCURVE",
"32 598 OFFCURVE",
"37 584 CURVE SMOOTH",
"73 472 OFFCURVE",
"106 375 OFFCURVE",
"144 276 CURVE SMOOTH",
"145 272 OFFCURVE",
"145 267 OFFCURVE",
"145 261 CURVE SMOOTH",
"145 187 OFFCURVE",
"115 112 OFFCURVE",
"95 69 CURVE SMOOTH"
);
}
);
width = 484;
}
);
note = Y;
unicode = 0059;
},
{
glyphname = Z;
lastChange = "2021-03-03 20:55:47 +0000";
layers = (
{
background = {
paths = (
{
closed = 1;
nodes = (
"507 651 OFFCURVE",
"455 652 OFFCURVE",
"397 652 CURVE SMOOTH",
"300 652 OFFCURVE",
"120 654 OFFCURVE",
"120 612 CURVE SMOOTH",
"120 595 OFFCURVE",
"153 566 OFFCURVE",
"161 566 CURVE SMOOTH",
"165 566 OFFCURVE",
"167 568 OFFCURVE",
"168 574 CURVE SMOOTH",
"168 581 OFFCURVE",
"162 591 OFFCURVE",
"159 593 CURVE",
"182 613 OFFCURVE",
"294 621 OFFCURVE",
"368 621 CURVE SMOOTH",
"445 621 OFFCURVE",
"505 613 OFFCURVE",
"505 605 CURVE SMOOTH",
"505 551 OFFCURVE",
"47 149 OFFCURVE",
"27 60 CURVE SMOOTH",
"25 50 OFFCURVE",
"24 42 OFFCURVE",
"24 34 CURVE SMOOTH",
"24 3 OFFCURVE",
"34 -5 OFFCURVE",
"35 -5 CURVE SMOOTH",
"44 -5 OFFCURVE",
"75 5 OFFCURVE",
"111 10 CURVE SMOOTH",
"223 25 OFFCURVE",
"323 44 OFFCURVE",
"426 44 CURVE SMOOTH",
"466 44 OFFCURVE",
"499 34 OFFCURVE",
"499 9 CURVE SMOOTH",
"499 -1 OFFCURVE",
"494 -14 OFFCURVE",
"481 -29 CURVE",
"481 -29 OFFCURVE",
"480 -39 OFFCURVE",
"486 -39 CURVE SMOOTH",
"499 -39 OFFCURVE",
"533 7 OFFCURVE",
"533 41 CURVE SMOOTH",
"533 79 OFFCURVE",
"471 82 OFFCURVE",
"416 82 CURVE SMOOTH",
"276 82 OFFCURVE",
"81 34 OFFCURVE",
"53 29 CURVE",
"82 123 OFFCURVE",
"490 478 OFFCURVE",
"560 587 CURVE SMOOTH",
"563 592 OFFCURVE",
"565 599 OFFCURVE",
"565 606 CURVE SMOOTH",
"565 624 OFFCURVE",
"554 644 OFFCURVE",
"538 648 CURVE"
);
}
);
};
hints = (
{
horizontal = 1;
place = "{-39, 21}";
target = up;
type = BottomGhost;
},
{
horizontal = 1;
place = "{-5, 21}";
target = up;
type = BottomGhost;
},
{
horizontal = 1;
place = "{44, 38}";
type = Stem;
},
{
horizontal = 1;
place = "{621, 31}";
type = Stem;
},
{
place = "{505, 28}";
type = Stem;
}
);
layerId = "3787E0F5-978F-4E40-B775-08CB0E3B1585";
paths = (
{
closed = 1;
nodes = (
"507 651 OFFCURVE",
"455 652 OFFCURVE",
"397 652 CURVE SMOOTH",
"300 652 OFFCURVE",
"120 654 OFFCURVE",
"120 612 CURVE SMOOTH",
"120 595 OFFCURVE",
"153 566 OFFCURVE",
"161 566 CURVE SMOOTH",
"165 566 OFFCURVE",
"167 568 OFFCURVE",
"168 574 CURVE SMOOTH",
"168 581 OFFCURVE",
"162 591 OFFCURVE",
"159 593 CURVE",
"182 613 OFFCURVE",
"294 621 OFFCURVE",
"368 621 CURVE SMOOTH",
"445 621 OFFCURVE",
"505 613 OFFCURVE",
"505 605 CURVE SMOOTH",
"505 551 OFFCURVE",
"47 149 OFFCURVE",
"27 60 CURVE SMOOTH",
"25 50 OFFCURVE",
"24 42 OFFCURVE",
"24 34 CURVE SMOOTH",
"24 3 OFFCURVE",
"34 -5 OFFCURVE",
"35 -5 CURVE SMOOTH",
"44 -5 OFFCURVE",
"75 5 OFFCURVE",
"111 10 CURVE SMOOTH",
"223 25 OFFCURVE",
"323 44 OFFCURVE",
"426 44 CURVE SMOOTH",
"466 44 OFFCURVE",
"499 34 OFFCURVE",
"499 9 CURVE SMOOTH",
"499 -1 OFFCURVE",
"494 -14 OFFCURVE",
"481 -29 CURVE",
"481 -29 OFFCURVE",
"480 -39 OFFCURVE",
"486 -39 CURVE SMOOTH",
"499 -39 OFFCURVE",
"533 7 OFFCURVE",
"533 41 CURVE SMOOTH",
"533 79 OFFCURVE",
"471 82 OFFCURVE",
"416 82 CURVE SMOOTH",
"276 82 OFFCURVE",
"81 34 OFFCURVE",
"53 29 CURVE",
"82 123 OFFCURVE",
"490 478 OFFCURVE",
"560 587 CURVE SMOOTH",
"563 592 OFFCURVE",
"565 599 OFFCURVE",
"565 606 CURVE SMOOTH",
"565 624 OFFCURVE",
"554 644 OFFCURVE",
"538 648 CURVE"
);
}
);
width = 556;
}
);
note = Z;
unicode = 005A;
},
{
glyphname = bracketleft;
lastChange = "2021-03-05 15:24:36 +0000";
layers = (
{
background = {
components = (
{
name = l;
},
{
name = b;
transform = "{1, 0, 0, 1, 123, 0}";
}
);
paths = (
{
closed = 1;
nodes = (
"554 669 OFFCURVE",
"555 673 OFFCURVE",
"555 677 CURVE SMOOTH",
"555 681 OFFCURVE",
"552 684 OFFCURVE",
"545 684 CURVE SMOOTH",
"418 684 LINE SMOOTH",
"390 684 OFFCURVE",
"369 669 OFFCURVE",
"353 651 CURVE SMOOTH",
"266 550 OFFCURVE",
"20 132 OFFCURVE",
"20 18 CURVE SMOOTH",
"20 -11 OFFCURVE",
"68 -13 OFFCURVE",
"99 -13 CURVE SMOOTH",
"244 -13 LINE SMOOTH",
"254 -13 OFFCURVE",
"264 1 OFFCURVE",
"264 9 CURVE SMOOTH",
"264 12 OFFCURVE",
"263 14 OFFCURVE",
"259 14 CURVE SMOOTH",
"235 14 OFFCURVE",
"191 11 OFFCURVE",
"167 11 CURVE SMOOTH",
"110 11 OFFCURVE",
"75 18 OFFCURVE",
"75 42 CURVE SMOOTH",
"75 107 OFFCURVE",
"156 255 OFFCURVE",
"235 392 CURVE SMOOTH",
"342 577 OFFCURVE",
"394 656 OFFCURVE",
"438 656 CURVE SMOOTH",
"520 656 LINE SMOOTH",
"544 656 OFFCURVE",
"547 656 OFFCURVE",
"551 664 CURVE SMOOTH"
);
}
);
};
hints = (
{
horizontal = 1;
place = "{-17, 21}";
type = Stem;
},
{
place = "{36, 52}";
type = Stem;
}
);
layerId = "3787E0F5-978F-4E40-B775-08CB0E3B1585";
paths = (
{
closed = 1;
nodes = (
"411 669 OFFCURVE",
"411 673 OFFCURVE",
"410 677 CURVE SMOOTH",
"409 681 OFFCURVE",
"405 684 OFFCURVE",
"398 684 CURVE SMOOTH",
"271 684 LINE SMOOTH",
"243 684 OFFCURVE",
"226 669 OFFCURVE",
"213 651 CURVE SMOOTH",
"148 550 OFFCURVE",
"-10 132 OFFCURVE",
"13 18 CURVE SMOOTH",
"20 -11 OFFCURVE",
"68 -13 OFFCURVE",
"99 -13 CURVE SMOOTH",
"244 -13 LINE SMOOTH",
"254 -13 OFFCURVE",
"261 1 OFFCURVE",
"259 9 CURVE SMOOTH",
"259 12 OFFCURVE",
"257 14 OFFCURVE",
"253 14 CURVE SMOOTH",
"229 14 OFFCURVE",
"186 11 OFFCURVE",
"162 11 CURVE SMOOTH",
"105 11 OFFCURVE",
"68 18 OFFCURVE",
"63 42 CURVE SMOOTH",
"50 107 OFFCURVE",
"100 255 OFFCURVE",
"150 392 CURVE SMOOTH",
"218 577 OFFCURVE",
"253 656 OFFCURVE",
"297 656 CURVE SMOOTH",
"379 656 LINE SMOOTH",
"403 656 OFFCURVE",
"406 656 OFFCURVE",
"409 664 CURVE SMOOTH"
);
}
);
width = 421;
}
);
note = bracketleft;
unicode = 005B;
},
{
glyphname = backslash;
lastChange = "2021-03-03 20:55:47 +0000";
layers = (
{
background = {
paths = (
{
closed = 1;
nodes = (
"598 -93 OFFCURVE",
"602 -85 OFFCURVE",
"602 -73 CURVE SMOOTH",
"602 -60 OFFCURVE",
"598 -43 OFFCURVE",
"592 -26 CURVE SMOOTH",
"540 124 OFFCURVE",
"97 698 OFFCURVE",
"67 698 CURVE SMOOTH",
"52 698 OFFCURVE",
"45 689 OFFCURVE",
"45 678 CURVE SMOOTH",
"45 672 OFFCURVE",
"47 665 OFFCURVE",
"52 660 CURVE SMOOTH",
"200 490 OFFCURVE",
"523 76 OFFCURVE",
"568 -48 CURVE SMOOTH",
"582 -86 OFFCURVE",
"568 -93 OFFCURVE",
"586 -93 CURVE SMOOTH"
);
}
);
};
hints = (
{
place = "{574, 27}";
type = Stem;
}
);
layerId = "3787E0F5-978F-4E40-B775-08CB0E3B1585";
paths = (
{
closed = 1;
nodes = (
"598 -93 OFFCURVE",
"602 -85 OFFCURVE",
"602 -73 CURVE SMOOTH",
"602 -60 OFFCURVE",
"598 -43 OFFCURVE",
"592 -26 CURVE SMOOTH",
"540 124 OFFCURVE",
"97 698 OFFCURVE",
"67 698 CURVE SMOOTH",
"52 698 OFFCURVE",
"45 689 OFFCURVE",
"45 678 CURVE SMOOTH",
"45 672 OFFCURVE",
"47 665 OFFCURVE",
"52 660 CURVE SMOOTH",
"200 490 OFFCURVE",
"523 76 OFFCURVE",
"568 -48 CURVE SMOOTH",
"582 -86 OFFCURVE",
"568 -93 OFFCURVE",
"586 -93 CURVE SMOOTH"
);
}
);
width = 604;
}
);
note = backslash;
unicode = 005C;
},
{
color = 9;
glyphname = bracketright;
lastChange = "2021-03-05 15:24:47 +0000";
layers = (
{
background = {
paths = (
{
closed = 1;
nodes = (
"24 -2 OFFCURVE",
"23 -7 OFFCURVE",
"23 -10 CURVE SMOOTH",
"23 -15 OFFCURVE",
"26 -17 OFFCURVE",
"33 -17 CURVE SMOOTH",
"160 -17 LINE SMOOTH",
"188 -17 OFFCURVE",
"209 -2 OFFCURVE",
"225 16 CURVE SMOOTH",
"312 117 OFFCURVE",
"558 535 OFFCURVE",
"558 649 CURVE SMOOTH",
"558 677 OFFCURVE",
"510 680 OFFCURVE",
"479 680 CURVE SMOOTH",
"334 680 LINE SMOOTH",
"324 680 OFFCURVE",
"314 666 OFFCURVE",
"314 658 CURVE SMOOTH",
"314 655 OFFCURVE",
"315 653 OFFCURVE",
"319 653 CURVE SMOOTH",
"343 653 OFFCURVE",
"387 656 OFFCURVE",
"411 656 CURVE SMOOTH",
"468 656 OFFCURVE",
"503 649 OFFCURVE",
"503 625 CURVE SMOOTH",
"503 560 OFFCURVE",
"422 412 OFFCURVE",
"343 275 CURVE SMOOTH",
"236 90 OFFCURVE",
"184 11 OFFCURVE",
"140 11 CURVE SMOOTH",
"58 11 LINE SMOOTH",
"34 11 OFFCURVE",
"31 11 OFFCURVE",
"27 3 CURVE SMOOTH"
);
}
);
};
hints = (
{
horizontal = 1;
place = "{-21, 26}";
type = Stem;
},
{
horizontal = 1;
place = "{659, 21}";
target = up;
type = BottomGhost;
},
{
place = "{494, 48}";
type = Stem;
}
);
layerId = "3787E0F5-978F-4E40-B775-08CB0E3B1585";
paths = (
{
closed = 1;
nodes = (
"21 -2 OFFCURVE",
"21 -7 OFFCURVE",
"22 -10 CURVE SMOOTH",
"23 -15 OFFCURVE",
"26 -17 OFFCURVE",
"33 -17 CURVE SMOOTH",
"160 -17 LINE SMOOTH",
"188 -17 OFFCURVE",
"206 -2 OFFCURVE",
"218 16 CURVE SMOOTH",
"284 117 OFFCURVE",
"442 535 OFFCURVE",
"418 649 CURVE SMOOTH",
"412 677 OFFCURVE",
"363 680 OFFCURVE",
"332 680 CURVE SMOOTH",
"187 680 LINE SMOOTH",
"177 680 OFFCURVE",
"170 666 OFFCURVE",
"172 658 CURVE SMOOTH",
"173 655 OFFCURVE",
"174 653 OFFCURVE",
"178 653 CURVE SMOOTH",
"202 653 OFFCURVE",
"246 656 OFFCURVE",
"270 656 CURVE SMOOTH",
"327 656 OFFCURVE",
"363 649 OFFCURVE",
"368 625 CURVE SMOOTH",
"382 560 OFFCURVE",
"332 412 OFFCURVE",
"282 275 CURVE SMOOTH",
"214 90 OFFCURVE",
"178 11 OFFCURVE",
"134 11 CURVE SMOOTH",
"52 11 LINE SMOOTH",
"28 11 OFFCURVE",
"25 11 OFFCURVE",
"23 3 CURVE SMOOTH"
);
}
);
width = 430;
}
);
note = bracketright;
unicode = 005D;
},
{
color = 9;
glyphname = asciicircum;
lastChange = "2021-03-03 20:55:47 +0000";
layers = (
{
background = {
paths = (
{
closed = 1;
nodes = (
"274 454 OFFCURVE",
"276 454 OFFCURVE",
"277 454 CURVE SMOOTH",
"280 454 OFFCURVE",
"281 455 OFFCURVE",
"281 458 CURVE SMOOTH",
"281 460 OFFCURVE",
"280 463 OFFCURVE",
"277 466 CURVE SMOOTH",
"265 478 OFFCURVE",
"178 556 OFFCURVE",
"167 559 CURVE",
"152 556 OFFCURVE",
"59 472 OFFCURVE",
"53 463 CURVE SMOOTH",
"51 460 OFFCURVE",
"50 458 OFFCURVE",
"50 456 CURVE SMOOTH",
"50 454 OFFCURVE",
"51 453 OFFCURVE",
"53 453 CURVE SMOOTH",
"56 453 OFFCURVE",
"141 510 OFFCURVE",
"162 527 CURVE",
"184 510 OFFCURVE",
"253 466 OFFCURVE",
"273 455 CURVE"
);
}
);
};
hints = (
{
horizontal = 1;
place = "{454, 21}";
target = up;
type = BottomGhost;
},
{
horizontal = 1;
place = "{559, -20}";
target = down;
type = TopGhost;
},
{
horizontal = 1;
place = "{453, 21}";
target = up;
type = BottomGhost;
}
);
layerId = "3787E0F5-978F-4E40-B775-08CB0E3B1585";
paths = (
{
closed = 1;
nodes = (
"274 454 OFFCURVE",
"276 454 OFFCURVE",
"277 454 CURVE SMOOTH",
"280 454 OFFCURVE",
"281 455 OFFCURVE",
"281 458 CURVE SMOOTH",
"281 460 OFFCURVE",
"280 463 OFFCURVE",
"277 466 CURVE SMOOTH",
"265 478 OFFCURVE",
"178 556 OFFCURVE",
"167 559 CURVE",
"152 556 OFFCURVE",
"59 472 OFFCURVE",
"53 463 CURVE SMOOTH",
"51 460 OFFCURVE",
"50 458 OFFCURVE",
"50 456 CURVE SMOOTH",
"50 454 OFFCURVE",
"51 453 OFFCURVE",
"53 453 CURVE SMOOTH",
"56 453 OFFCURVE",
"141 510 OFFCURVE",
"162 527 CURVE",
"184 510 OFFCURVE",
"253 466 OFFCURVE",
"273 455 CURVE"
);
}
);
width = 334;
}
);
note = asciicircum;
unicode = 005E;
},
{
glyphname = underscore;
lastChange = "2021-03-03 20:55:47 +0000";
layers = (
{
background = {
paths = (
{
closed = 1;
nodes = (
"341 -15 LINE",
"341 1 LINE",
"339 4 LINE",
"1 4 LINE",
"-2 1 LINE",
"-2 -15 LINE",
"1 -17 LINE",
"339 -17 LINE"
);
}
);
};
hints = (
{
horizontal = 1;
place = "{-17, 21}";
type = Stem;
}
);
layerId = "3787E0F5-978F-4E40-B775-08CB0E3B1585";
paths = (
{
closed = 1;
nodes = (
"341 -15 LINE",
"341 1 LINE",
"339 4 LINE",
"1 4 LINE",
"-2 1 LINE",
"-2 -15 LINE",
"1 -17 LINE",
"339 -17 LINE"
);
}
);
width = 328;
}
);
note = underscore;
unicode = 005F;
},
{
glyphname = grave;
lastChange = "2021-03-05 15:41:03 +0000";
layers = (
{
background = {
paths = (
{
closed = 1;
nodes = (
"159 596 OFFCURVE",
"225 564 OFFCURVE",
"261 546 CURVE SMOOTH",
"262 545 OFFCURVE",
"263 545 OFFCURVE",
"264 545 CURVE SMOOTH",
"266 545 OFFCURVE",
"267 546 OFFCURVE",
"267 548 CURVE SMOOTH",
"267 557 OFFCURVE",
"208 603 OFFCURVE",
"152 640 CURVE SMOOTH",
"149 642 OFFCURVE",
"147 643 OFFCURVE",
"145 643 CURVE SMOOTH",
"135 643 OFFCURVE",
"128 631 OFFCURVE",
"128 621 CURVE SMOOTH",
"128 617 OFFCURVE",
"130 612 OFFCURVE",
"134 610 CURVE SMOOTH"
);
}
);
};
hints = (
{
horizontal = 1;
place = "{460, 21}";
target = up;
type = BottomGhost;
},
{
horizontal = 1;
place = "{556, -20}";
target = down;
type = TopGhost;
}
);
layerId = "3787E0F5-978F-4E40-B775-08CB0E3B1585";
paths = (
{
closed = 1;
nodes = (
"153 603 OFFCURVE",
"228 562 OFFCURVE",
"269 541 CURVE SMOOTH",
"271 540 OFFCURVE",
"272 540 OFFCURVE",
"274 540 CURVE SMOOTH",
"276 540 OFFCURVE",
"277 541 OFFCURVE",
"277 543 CURVE SMOOTH",
"277 554 OFFCURVE",
"208 607 OFFCURVE",
"144 650 CURVE SMOOTH",
"141 652 OFFCURVE",
"138 653 OFFCURVE",
"135 653 CURVE SMOOTH",
"124 653 OFFCURVE",
"116 639 OFFCURVE",
"116 628 CURVE SMOOTH",
"116 623 OFFCURVE",
"118 617 OFFCURVE",
"123 615 CURVE SMOOTH"
);
}
);
width = 355;
}
);
note = grave;
unicode = 0060;
},
{
glyphname = a;
lastChange = "2021-03-03 20:55:47 +0000";
layers = (
{
background = {
paths = (
{
closed = 1;
nodes = (
"337 84 OFFCURVE",
"342 97 OFFCURVE",
"342 103 CURVE SMOOTH",
"342 106 OFFCURVE",
"341 107 OFFCURVE",
"340 107 CURVE SMOOTH",
"336 107 OFFCURVE",
"286 39 OFFCURVE",
"254 39 CURVE SMOOTH",
"246 39 OFFCURVE",
"240 46 OFFCURVE",
"240 64 CURVE SMOOTH",
"240 80 OFFCURVE",
"263 191 OFFCURVE",
"296 283 CURVE SMOOTH",
"298 288 OFFCURVE",
"313 291 OFFCURVE",
"315 296 CURVE SMOOTH",
"321 312 OFFCURVE",
"336 340 OFFCURVE",
"336 359 CURVE SMOOTH",
"336 372 OFFCURVE",
"330 381 OFFCURVE",
"311 381 CURVE SMOOTH",
"295 381 OFFCURVE",
"294 365 OFFCURVE",
"285 365 CURVE SMOOTH",
"274 365 OFFCURVE",
"240 381 OFFCURVE",
"213 381 CURVE SMOOTH",
"202 381 OFFCURVE",
"192 379 OFFCURVE",
"185 371 CURVE",
"174 363 LINE",
"171 363 LINE SMOOTH",
"107 363 OFFCURVE",
"6 125 OFFCURVE",
"6 33 CURVE SMOOTH",
"6 8 OFFCURVE",
"12 -3 OFFCURVE",
"30 -3 CURVE SMOOTH",
"87 -3 OFFCURVE",
"183 128 OFFCURVE",
"222 182 CURVE",
"210 141 OFFCURVE",
"189 63 OFFCURVE",
"189 27 CURVE",
"192 9 OFFCURVE",
"201 2 OFFCURVE",
"214 2 CURVE SMOOTH",
"250 2 OFFCURVE",
"312 62 OFFCURVE",
"332 80 CURVE SMOOTH"
);
},
{
closed = 1;
nodes = (
"269 346 LINE SMOOTH",
"272 346 OFFCURVE",
"274 344 OFFCURVE",
"274 340 CURVE SMOOTH",
"274 319 OFFCURVE",
"239 244 OFFCURVE",
"207 192 CURVE SMOOTH",
"198 178 OFFCURVE",
"95 44 OFFCURVE",
"62 44 CURVE SMOOTH",
"56 44 OFFCURVE",
"52 49 OFFCURVE",
"52 61 CURVE SMOOTH",
"52 139 OFFCURVE",
"161 338 OFFCURVE",
"191 346 CURVE SMOOTH",
"203 349 OFFCURVE",
"212 350 OFFCURVE",
"221 350 CURVE SMOOTH",
"239 350 OFFCURVE",
"252 346 OFFCURVE",
"266 346 CURVE SMOOTH"
);
}
);
};
hints = (
{
horizontal = 1;
place = "{12, -20}";
target = down;
type = TopGhost;
},
{
horizontal = 1;
place = "{381, -20}";
target = down;
type = TopGhost;
}
);
layerId = "3787E0F5-978F-4E40-B775-08CB0E3B1585";
paths = (
{
closed = 1;
nodes = (
"337 84 OFFCURVE",
"342 97 OFFCURVE",
"342 103 CURVE SMOOTH",
"342 106 OFFCURVE",
"341 107 OFFCURVE",
"340 107 CURVE SMOOTH",
"336 107 OFFCURVE",
"286 39 OFFCURVE",
"254 39 CURVE SMOOTH",
"246 39 OFFCURVE",
"240 46 OFFCURVE",
"240 64 CURVE SMOOTH",
"240 80 OFFCURVE",
"263 191 OFFCURVE",
"296 283 CURVE SMOOTH",
"298 288 OFFCURVE",
"313 291 OFFCURVE",
"315 296 CURVE SMOOTH",
"321 312 OFFCURVE",
"336 340 OFFCURVE",
"336 359 CURVE SMOOTH",
"336 372 OFFCURVE",
"330 381 OFFCURVE",
"311 381 CURVE SMOOTH",
"295 381 OFFCURVE",
"294 365 OFFCURVE",
"285 365 CURVE SMOOTH",
"274 365 OFFCURVE",
"240 381 OFFCURVE",
"213 381 CURVE SMOOTH",
"202 381 OFFCURVE",
"192 379 OFFCURVE",
"185 371 CURVE",
"174 363 LINE",
"171 363 LINE SMOOTH",
"107 363 OFFCURVE",
"6 125 OFFCURVE",
"6 33 CURVE SMOOTH",
"6 8 OFFCURVE",
"12 -3 OFFCURVE",
"30 -3 CURVE SMOOTH",
"87 -3 OFFCURVE",
"183 128 OFFCURVE",
"222 182 CURVE",
"210 141 OFFCURVE",
"189 63 OFFCURVE",
"189 27 CURVE",
"192 9 OFFCURVE",
"201 2 OFFCURVE",
"214 2 CURVE SMOOTH",
"250 2 OFFCURVE",
"312 62 OFFCURVE",
"332 80 CURVE SMOOTH"
);
},
{
closed = 1;
nodes = (
"269 346 LINE SMOOTH",
"272 346 OFFCURVE",
"274 344 OFFCURVE",
"274 340 CURVE SMOOTH",
"274 319 OFFCURVE",
"239 244 OFFCURVE",
"207 192 CURVE SMOOTH",
"198 178 OFFCURVE",
"95 44 OFFCURVE",
"62 44 CURVE SMOOTH",
"56 44 OFFCURVE",
"52 49 OFFCURVE",
"52 61 CURVE SMOOTH",
"52 139 OFFCURVE",
"161 338 OFFCURVE",
"191 346 CURVE SMOOTH",
"203 349 OFFCURVE",
"212 350 OFFCURVE",
"221 350 CURVE SMOOTH",
"239 350 OFFCURVE",
"252 346 OFFCURVE",
"266 346 CURVE SMOOTH"
);
}
);
width = 329;
}
);
note = a;
unicode = 0061;
},
{
glyphname = b;
lastChange = "2021-03-03 20:55:47 +0000";
layers = (
{
background = {
paths = (
{
closed = 1;
nodes = (
"310 348 LINE SMOOTH",
"310 374 OFFCURVE",
"302 385 OFFCURVE",
"290 385 CURVE SMOOTH",
"243 385 OFFCURVE",
"128 235 OFFCURVE",
"96 187 CURVE",
"146 309 OFFCURVE",
"248 585 OFFCURVE",
"263 640 CURVE",
"263 651 OFFCURVE",
"260 655 OFFCURVE",
"253 655 CURVE SMOOTH",
"238 655 OFFCURVE",
"211 631 OFFCURVE",
"210 631 CURVE",
"151 428 OFFCURVE",
"91 269 OFFCURVE",
"39 134 CURVE SMOOTH",
"36 126 OFFCURVE",
"27 129 OFFCURVE",
"22 115 CURVE SMOOTH",
"7 77 OFFCURVE",
"-2 47 OFFCURVE",
"-2 39 CURVE SMOOTH",
"-2 16 OFFCURVE",
"18 -1 OFFCURVE",
"29 -1 CURVE SMOOTH",
"32 -1 OFFCURVE",
"34 0 OFFCURVE",
"35 2 CURVE SMOOTH",
"39 11 LINE",
"53 -2 OFFCURVE",
"74 -8 OFFCURVE",
"100 -8 CURVE SMOOTH",
"113 -8 OFFCURVE",
"191 39 OFFCURVE",
"210 60 CURVE SMOOTH",
"245 99 OFFCURVE",
"265 161 OFFCURVE",
"286 230 CURVE",
"303 237 OFFCURVE",
"324 254 OFFCURVE",
"324 260 CURVE SMOOTH",
"324 261 OFFCURVE",
"323 262 OFFCURVE",
"321 262 CURVE SMOOTH",
"316 262 OFFCURVE",
"307 259 OFFCURVE",
"291 251 CURVE",
"301 290 OFFCURVE",
"309 320 OFFCURVE",
"310 341 CURVE SMOOTH"
);
},
{
closed = 1;
nodes = (
"221 152 OFFCURVE",
"170 24 OFFCURVE",
"107 24 CURVE SMOOTH",
"91 24 OFFCURVE",
"75 32 OFFCURVE",
"58 51 CURVE",
"66 67 OFFCURVE",
"73 86 OFFCURVE",
"84 107 CURVE",
"121 147 OFFCURVE",
"181 177 OFFCURVE",
"236 206 CURVE"
);
},
{
closed = 1;
nodes = (
"202 207 OFFCURVE",
"137 170 OFFCURVE",
"91 132 CURVE",
"169 256 OFFCURVE",
"230 336 OFFCURVE",
"252 336 CURVE SMOOTH",
"259 336 OFFCURVE",
"262 329 OFFCURVE",
"262 315 CURVE SMOOTH",
"261 297 OFFCURVE",
"258 266 OFFCURVE",
"244 228 CURVE"
);
}
);
};
hints = (
{
horizontal = 1;
place = "{655, -20}";
target = down;
type = TopGhost;
}
);
layerId = "3787E0F5-978F-4E40-B775-08CB0E3B1585";
paths = (
{
closed = 1;
nodes = (
"310 348 LINE SMOOTH",
"310 374 OFFCURVE",
"302 385 OFFCURVE",
"290 385 CURVE SMOOTH",
"243 385 OFFCURVE",
"128 235 OFFCURVE",
"96 187 CURVE",
"146 309 OFFCURVE",
"248 585 OFFCURVE",
"263 640 CURVE",
"263 651 OFFCURVE",
"260 655 OFFCURVE",
"253 655 CURVE SMOOTH",
"238 655 OFFCURVE",
"211 631 OFFCURVE",
"210 631 CURVE",
"151 428 OFFCURVE",
"91 269 OFFCURVE",
"39 134 CURVE SMOOTH",
"36 126 OFFCURVE",
"27 129 OFFCURVE",
"22 115 CURVE SMOOTH",
"7 77 OFFCURVE",
"-2 47 OFFCURVE",
"-2 39 CURVE SMOOTH",
"-2 16 OFFCURVE",
"18 -1 OFFCURVE",
"29 -1 CURVE SMOOTH",
"32 -1 OFFCURVE",
"34 0 OFFCURVE",
"35 2 CURVE SMOOTH",
"39 11 LINE",
"53 -2 OFFCURVE",
"74 -8 OFFCURVE",
"100 -8 CURVE SMOOTH",
"113 -8 OFFCURVE",
"191 39 OFFCURVE",
"210 60 CURVE SMOOTH",
"245 99 OFFCURVE",
"265 161 OFFCURVE",
"286 230 CURVE",
"303 237 OFFCURVE",
"324 254 OFFCURVE",
"324 260 CURVE SMOOTH",
"324 261 OFFCURVE",
"323 262 OFFCURVE",
"321 262 CURVE SMOOTH",
"316 262 OFFCURVE",
"307 259 OFFCURVE",
"291 251 CURVE",
"301 290 OFFCURVE",
"309 320 OFFCURVE",
"310 341 CURVE SMOOTH"
);
},
{
closed = 1;
nodes = (
"221 152 OFFCURVE",
"170 24 OFFCURVE",
"107 24 CURVE SMOOTH",
"91 24 OFFCURVE",
"75 32 OFFCURVE",
"58 51 CURVE",
"66 67 OFFCURVE",
"73 86 OFFCURVE",
"84 107 CURVE",
"121 147 OFFCURVE",
"181 177 OFFCURVE",
"236 206 CURVE"
);
},
{
closed = 1;
nodes = (
"202 207 OFFCURVE",
"137 170 OFFCURVE",
"91 132 CURVE",
"169 256 OFFCURVE",
"230 336 OFFCURVE",
"252 336 CURVE SMOOTH",
"259 336 OFFCURVE",
"262 329 OFFCURVE",
"262 315 CURVE SMOOTH",
"261 297 OFFCURVE",
"258 266 OFFCURVE",
"244 228 CURVE"
);
}
);
width = 292;
}
);
note = b;
unicode = 0062;
},
{
glyphname = c;
lastChange = "2021-03-03 20:55:47 +0000";
layers = (
{
background = {
paths = (
{
closed = 1;
nodes = (
"264 318 OFFCURVE",
"264 323 OFFCURVE",
"264 328 CURVE SMOOTH",
"264 364 OFFCURVE",
"244 375 OFFCURVE",
"217 375 CURVE SMOOTH",
"183 375 OFFCURVE",
"168 356 OFFCURVE",
"127 341 CURVE",
"85 322 OFFCURVE",
"4 159 OFFCURVE",
"4 63 CURVE SMOOTH",
"4 13 OFFCURVE",
"30 -8 OFFCURVE",
"65 -8 CURVE SMOOTH",
"153 -8 OFFCURVE",
"238 104 OFFCURVE",
"238 131 CURVE SMOOTH",
"238 135 OFFCURVE",
"236 137 OFFCURVE",
"233 138 CURVE",
"225 136 OFFCURVE",
"159 22 OFFCURVE",
"75 22 CURVE SMOOTH",
"54 22 OFFCURVE",
"46 33 OFFCURVE",
"46 59 CURVE SMOOTH",
"46 131 OFFCURVE",
"116 285 OFFCURVE",
"137 307 CURVE SMOOTH",
"151 321 OFFCURVE",
"195 353 OFFCURVE",
"213 353 CURVE SMOOTH",
"226 353 OFFCURVE",
"230 346 OFFCURVE",
"230 337 CURVE SMOOTH",
"230 324 OFFCURVE",
"222 305 OFFCURVE",
"222 292 CURVE SMOOTH",
"222 280 OFFCURVE",
"227 274 OFFCURVE",
"234 274 CURVE SMOOTH",
"244 274 OFFCURVE",
"259 288 OFFCURVE",
"263 312 CURVE SMOOTH"
);
}
);
};
hints = (
{
horizontal = 1;
place = "{376, -20}";
target = down;
type = TopGhost;
}
);
layerId = "3787E0F5-978F-4E40-B775-08CB0E3B1585";
paths = (
{
closed = 1;
nodes = (
"264 318 OFFCURVE",
"264 323 OFFCURVE",
"264 328 CURVE SMOOTH",
"264 364 OFFCURVE",
"244 375 OFFCURVE",
"217 375 CURVE SMOOTH",
"183 375 OFFCURVE",
"168 356 OFFCURVE",
"127 341 CURVE",
"85 322 OFFCURVE",
"4 159 OFFCURVE",
"4 63 CURVE SMOOTH",
"4 13 OFFCURVE",
"30 -8 OFFCURVE",
"65 -8 CURVE SMOOTH",
"153 -8 OFFCURVE",
"238 104 OFFCURVE",
"238 131 CURVE SMOOTH",
"238 135 OFFCURVE",
"236 137 OFFCURVE",
"233 138 CURVE",
"225 136 OFFCURVE",
"159 22 OFFCURVE",
"75 22 CURVE SMOOTH",
"54 22 OFFCURVE",
"46 33 OFFCURVE",
"46 59 CURVE SMOOTH",
"46 131 OFFCURVE",
"116 285 OFFCURVE",
"137 307 CURVE SMOOTH",
"151 321 OFFCURVE",
"195 353 OFFCURVE",
"213 353 CURVE SMOOTH",
"226 353 OFFCURVE",
"230 346 OFFCURVE",
"230 337 CURVE SMOOTH",
"230 324 OFFCURVE",
"222 305 OFFCURVE",
"222 292 CURVE SMOOTH",
"222 280 OFFCURVE",
"227 274 OFFCURVE",
"234 274 CURVE SMOOTH",
"244 274 OFFCURVE",
"259 288 OFFCURVE",
"263 312 CURVE SMOOTH"
);
}
);
width = 231;
}
);
leftKerningGroup = c;
note = c;
rightKerningGroup = c;
unicode = 0063;
},
{
glyphname = d;
lastChange = "2021-03-03 20:55:47 +0000";
layers = (
{
background = {
paths = (
{
closed = 1;
nodes = (
"420 651 OFFCURVE",
"409 655 OFFCURVE",
"399 655 CURVE SMOOTH",
"392 655 OFFCURVE",
"386 653 OFFCURVE",
"383 647 CURVE SMOOTH",
"379 641 OFFCURVE",
"353 596 OFFCURVE",
"353 574 CURVE SMOOTH",
"353 567 OFFCURVE",
"356 562 OFFCURVE",
"364 562 CURVE",
"355 530 OFFCURVE",
"312 421 OFFCURVE",
"290 362 CURVE",
"290 361 OFFCURVE",
"289 361 OFFCURVE",
"289 361 CURVE",
"281 361 OFFCURVE",
"243 377 OFFCURVE",
"217 377 CURVE SMOOTH",
"197 377 OFFCURVE",
"195 362 OFFCURVE",
"180 362 CURVE SMOOTH",
"176 362 LINE SMOOTH",
"117 362 OFFCURVE",
"5 109 OFFCURVE",
"5 23 CURVE SMOOTH",
"5 1 OFFCURVE",
"12 -7 OFFCURVE",
"26 -7 CURVE SMOOTH",
"80 -7 OFFCURVE",
"194 141 OFFCURVE",
"227 188 CURVE",
"214 150 OFFCURVE",
"189 63 OFFCURVE",
"189 23 CURVE SMOOTH",
"189 8 OFFCURVE",
"198 2 OFFCURVE",
"208 2 CURVE SMOOTH",
"244 2 OFFCURVE",
"318 66 OFFCURVE",
"336 84 CURVE",
"337 84 OFFCURVE",
"343 97 OFFCURVE",
"343 104 CURVE SMOOTH",
"343 107 OFFCURVE",
"342 109 OFFCURVE",
"340 109 CURVE SMOOTH",
"331 109 OFFCURVE",
"285 38 OFFCURVE",
"251 38 CURVE SMOOTH",
"243 38 OFFCURVE",
"238 44 OFFCURVE",
"238 61 CURVE SMOOTH",
"238 93 OFFCURVE",
"294 274 OFFCURVE",
"319 331 CURVE",
"320 329 OFFCURVE",
"327 328 OFFCURVE",
"333 328 CURVE SMOOTH",
"337 328 OFFCURVE",
"343 328 OFFCURVE",
"343 334 CURVE SMOOTH",
"343 342 OFFCURVE",
"335 354 OFFCURVE",
"330 354 CURVE SMOOTH",
"329 354 OFFCURVE",
"329 354 OFFCURVE",
"328 353 CURVE",
"368 470 OFFCURVE",
"429 603 OFFCURVE",
"429 639 CURVE SMOOTH",
"429 644 OFFCURVE",
"428 647 OFFCURVE",
"426 648 CURVE SMOOTH"
);
},
{
closed = 1;
nodes = (
"273 322 OFFCURVE",
"242 224 OFFCURVE",
"181 156 CURVE SMOOTH",
"167 141 OFFCURVE",
"90 43 OFFCURVE",
"62 43 CURVE SMOOTH",
"56 43 OFFCURVE",
"52 48 OFFCURVE",
"52 59 CURVE SMOOTH",
"52 135 OFFCURVE",
"173 341 OFFCURVE",
"199 348 CURVE SMOOTH",
"203 349 OFFCURVE",
"213 350 OFFCURVE",
"224 350 CURVE SMOOTH",
"249 350 OFFCURVE",
"283 346 OFFCURVE",
"283 339 CURVE"
);
}
);
};
hints = (
{
horizontal = 1;
place = "{14, -20}";
target = down;
type = TopGhost;
},
{
horizontal = 1;
place = "{656, -20}";
target = down;
type = TopGhost;
}
);
layerId = "3787E0F5-978F-4E40-B775-08CB0E3B1585";
paths = (
{
closed = 1;
nodes = (
"420 651 OFFCURVE",
"409 655 OFFCURVE",
"399 655 CURVE SMOOTH",
"392 655 OFFCURVE",
"386 653 OFFCURVE",
"383 647 CURVE SMOOTH",
"379 641 OFFCURVE",
"353 596 OFFCURVE",
"353 574 CURVE SMOOTH",
"353 567 OFFCURVE",
"356 562 OFFCURVE",
"364 562 CURVE",
"355 530 OFFCURVE",
"312 421 OFFCURVE",
"290 362 CURVE",
"290 361 OFFCURVE",
"289 361 OFFCURVE",
"289 361 CURVE",
"281 361 OFFCURVE",
"243 377 OFFCURVE",
"217 377 CURVE SMOOTH",
"197 377 OFFCURVE",
"195 362 OFFCURVE",
"180 362 CURVE SMOOTH",
"176 362 LINE SMOOTH",
"117 362 OFFCURVE",
"5 109 OFFCURVE",
"5 23 CURVE SMOOTH",
"5 1 OFFCURVE",
"12 -7 OFFCURVE",
"26 -7 CURVE SMOOTH",
"80 -7 OFFCURVE",
"194 141 OFFCURVE",
"227 188 CURVE",
"214 150 OFFCURVE",
"189 63 OFFCURVE",
"189 23 CURVE SMOOTH",
"189 8 OFFCURVE",
"198 2 OFFCURVE",
"208 2 CURVE SMOOTH",
"244 2 OFFCURVE",
"318 66 OFFCURVE",
"336 84 CURVE",
"337 84 OFFCURVE",
"343 97 OFFCURVE",
"343 104 CURVE SMOOTH",
"343 107 OFFCURVE",
"342 109 OFFCURVE",
"340 109 CURVE SMOOTH",
"331 109 OFFCURVE",
"285 38 OFFCURVE",
"251 38 CURVE SMOOTH",
"243 38 OFFCURVE",
"238 44 OFFCURVE",
"238 61 CURVE SMOOTH",
"238 93 OFFCURVE",
"294 274 OFFCURVE",
"319 331 CURVE",
"320 329 OFFCURVE",
"327 328 OFFCURVE",
"333 328 CURVE SMOOTH",
"337 328 OFFCURVE",
"343 328 OFFCURVE",
"343 334 CURVE SMOOTH",
"343 342 OFFCURVE",
"335 354 OFFCURVE",
"330 354 CURVE SMOOTH",
"329 354 OFFCURVE",
"329 354 OFFCURVE",
"328 353 CURVE",
"368 470 OFFCURVE",
"429 603 OFFCURVE",
"429 639 CURVE SMOOTH",
"429 644 OFFCURVE",
"428 647 OFFCURVE",
"426 648 CURVE SMOOTH"
);
},
{
closed = 1;
nodes = (
"273 322 OFFCURVE",
"242 224 OFFCURVE",
"181 156 CURVE SMOOTH",
"167 141 OFFCURVE",
"90 43 OFFCURVE",
"62 43 CURVE SMOOTH",
"56 43 OFFCURVE",
"52 48 OFFCURVE",
"52 59 CURVE SMOOTH",
"52 135 OFFCURVE",
"173 341 OFFCURVE",
"199 348 CURVE SMOOTH",
"203 349 OFFCURVE",
"213 350 OFFCURVE",
"224 350 CURVE SMOOTH",
"249 350 OFFCURVE",
"283 346 OFFCURVE",
"283 339 CURVE"
);
}
);
width = 339;
}
);
note = d;
unicode = 0064;
},
